<?xml version="1.0" standalone="no"?>
<!DOCTYPE svg PUBLIC "-//W3C//DTD SVG 1.1//EN" "http://www.w3.org/Graphics/SVG/1.1/DTD/svg11.dtd" >
<svg viewBox="0 -200 1330 1000">
  <g transform="matrix(1 0 0 -1 0 800)">
   <path fill="currentColor"
d="M642 325v62l77 -22v-33c0 -32 -7 -54 -20 -65c-14 -11 -39 -17 -75 -17h-350v38c0 16 2 29 8 37c7 12 21 25 44 39l288 178v54h-237v-86l-82 21v54c0 32 6 54 20 65c13 11 38 17 75 17h214c36 0 61 -6 75 -17c13 -11 20 -33 20 -65v-26c0 -23 -4 -40 -12 -52
c-7 -9 -21 -20 -42 -33l-245 -149h242zM1259 820h71v-72v-107v-72v-107v-72v-108v-71v-111v-71h-71h-200h-71v20h-41v-16v-71h-72h-596h-29l-21 21l-158 158l-21 21v30v358v277v71h71h754h72v-71v-29h41v22h71h200zM1259 638v110h-200v-22h-184v22v79h-754v-277v-358
l158 -159h596v67v21h184v-21h200v111h-200v-22h-184v22v69v20h184v-20h200v110h-200v-22h-184v22v69v20h184v-20h200v110h-200v-22h-184v22v69v20h184v-20h200z" />
  </g>

</svg>
