<?xml version="1.0" encoding="utf-8"?>
<!-- Generator: Adobe Illustrator 16.0.0, SVG Export Plug-In . SVG Version: 6.00 Build 0)  -->
<!DOCTYPE svg PUBLIC "-//W3C//DTD SVG 1.1//EN" "http://www.w3.org/Graphics/SVG/1.1/DTD/svg11.dtd">
<svg version="1.1" id="Layer_1" xmlns="http://www.w3.org/2000/svg" xmlns:xlink="http://www.w3.org/1999/xlink" x="0px" y="0px"
	 width="312.811px" height="250.42px" viewBox="0 0 312.811 250.42" enable-background="new 0 0 312.811 250.42"
	 xml:space="preserve">
<g>
	<path d="M279.584,163.974c-0.236-0.648-0.473-1.297-0.709-1.943c-3.395-1.447-6.693-3.756-10.203-4.148
		c-6.061-0.676-11.865-4.35-13.578-8.182c-3.359-7.516-13.441-7.633-15.063-15.949c-0.078-0.406-1.086-0.85-1.693-0.902
		c-6.553-0.561-7.375-7.008-11.426-10.82c9.982-4.16,19.889-7.494,29.75-10.947c3.721-1.303,9.109-1.885,10.617-4.556
		c2.57-4.557,5.803-4.706,9.844-5.333c1.283-0.201,2.193-2.823,3.273-4.337c-1.559-0.683-3.061-1.58-4.688-1.992
		c-1.975-0.5-4.053-0.591-6.086-0.858c0.008-0.459,0.014-0.919,0.021-1.379c-14.014,4.248-28.055,8.407-42.01,12.836
		c-2.189,0.694-4.1,2.479-5.943,3.996c-2.941,2.42-6.043,4.313-9.66,1.838c-4.496-3.074-8.734-6.525-13.082-9.817
		c-10.137-7.677-20.225-15.417-30.445-22.979c-1.797-1.329-4.063-2.297-6.254-2.76c-3.311-0.699-6.908-0.295-10.086-1.303
		c-3.674-1.165-7.037-3.324-10.508-5.104c-8.33-4.27-16.613-8.631-24.977-12.832c-4.618-2.32-9.322-4.482-14.063-6.543
		c-3.308-1.438-6.778-2.898-9.634,1.858c-2.627-4.79-4.754-9.028-7.209-13.069c-5.79-9.528-5.854-9.49-8.576-9.781
		c0.889,7.705,0.506,15.842,7.592,22.73c-4.731,0-8.133-0.259-11.479,0.064c-4.58,0.441-9.178,2.175-13.658,1.852
		C49.02,52.843,39.082,55.97,28.97,58.07c-2.39,0.496-4.409,2.781-6.598,4.243c0.208,0.368,0.416,0.737,0.624,1.106
		c-1.599,0.232-3.198,0.465-4.756,0.691c0.107,5.605,5.348,10.301,9.789,8.686c9.095-3.308,18.801-3.891,28.105-6.787
		c7.864-2.447,17.503,0.369,26.285,1.445c7.251,0.891,12.987,4.586,15.993,11.631c0.4,0.938,0.445,2.025,0.654,3.045
		c-1.058,0.21-2.132,0.662-3.172,0.594c-7.369-0.48-7.367-0.516-8.428,7.601c4.051,0.507,8.102,1.014,11.482,1.437
		c0,4.193,0,8.232,0,12.272c0.561,0.226,1.121,0.452,1.682,0.678c2.183-2.751,4.365-5.501,7.313-9.21
		c5.961,9.216,11.801,17.73,17.094,26.571c5.205,8.696,9.855,17.724,15.105,27.253c-5.925-1.131-6.014,3.717-7.573,6.734
		c-3.933,7.609-8.489,8.137-14.133,1.41c-3.518-4.193-7.224-8.229-10.771-12.396c-3.959-4.654-6.664-9.688-6.238-16.201
		c0.246-3.781-0.65-7.637-1.118-12.311c-2.813,2.619-4.708,4.384-7.247,6.746c-0.533,1.493-2.943,5.125-2.061,6.316
		c3.564,4.813,0.012,9.414,1.15,14.834c-1.709-1.375-2.645-2.275-3.716-2.965c-4.647-2.996-9.333-5.934-14.01-8.885
		c-3.46-2.184-7.626-3.74-10.229-6.682c-3.92-4.428-8.493-7.128-13.843-9.22c-2.995-1.171-5.53-3.478-8.357-5.129
		c-3.04-1.774-6.178-3.381-9.272-5.062c-0.307,0.469-0.613,0.938-0.919,1.406c0.775,3.775,1.55,7.55,2.325,11.324
		c0.463-0.305,0.927-0.609,1.391-0.914c1.424,1.682,2.772,3.438,4.304,5.016c0.809,0.834,1.893,1.441,2.933,2
		c1.19,0.637,2.639,0.887,3.685,1.684c7.107,5.416,14.315,10.723,21.139,16.479c6.424,5.42,12.884,10.938,18.426,17.207
		c3.294,3.729,6.215,7.209,11.203,8.361c9.401,2.168,16.713,8.197,24.404,13.461c0.805,0.551,1.189,2.668,0.852,3.781
		c-3.18,10.518-7.741,20.566-8.51,31.854c-0.365,5.377-3.015,10.611-4.73,15.877c-1.005,3.088-2.317,6.076-3.283,9.174
		c-0.657,2.105-0.953,4.324-1.559,7.193c8.485-1.496,10.905-6.885,12.979-12.928c3.795-11.059,7.781-22.059,12.027-32.951
		c1.459-3.742,4.13-6.996,5.883-10.648c1.644-3.428,5.91-5.816,9.533-4.721c14.549,4.398,29.498,6.285,44.611,6.084
		c8.4-0.113,16.99-0.783,25.129-2.732c18.24-4.363,36.275-9.604,54.342-14.67c4.762-1.336,9.336-3.334,15.254-5.484
		c-3.695-2.711-6.016-4.414-8.752-6.42C277.016,165.183,278.299,164.578,279.584,163.974z M110.05,76.308
		c8.026,0.498,16.528-0.548,22.362,7.075C125.811,78.255,115.953,83.705,110.05,76.308z M124.658,102.386
		c-0.678-1.006-1.148-2.152-1.615-3.043c14.313,0.089,25.967,7.102,38.059,12.914c1.439,0.691,3.223,1.414,4.688,1.172
		c6.324-1.047,10.131,2.89,13.719,6.852c1.26,1.389,3.004,4.133-0.715,5.555c-8.93,3.418-17.793,7.023-26.816,10.176
		c-1.485,0.52-4.49-0.258-5.347-1.463C139.115,123.962,131.918,113.152,124.658,102.386z M148.713,166.951
		c-5.534-0.699-6.058-2.822-3.193-7.715c1.013-1.73,1.107-3.998,1.621-6.021c-0.525-0.404-1.051-0.811-1.577-1.217
		c3.138-1.201,6.187-3.006,9.432-3.492c11.403-1.707,21.927-5.375,30.995-12.316c2.508,2.779,5.484,5.164,7.264,8.242
		c3.625,6.273,0.146,14.342-7.166,18.107C174.172,168.671,161.484,168.56,148.713,166.951z M186.529,183.335
		c5.949-6.201,13.342-11.359,17.008-18.445c3.742-7.232,3.82-16.359,5.348-23.885c0.643,1.996,1.674,5.195,2.707,8.395
		c0.273,0.041,0.549,0.082,0.822,0.121c0.428-2.125,0.854-4.248,1.389-6.916c10.877,8.072,21.559,15.998,32.844,24.373
		C226.23,173.427,208.025,184.675,186.529,183.335z"/>
	<path d="M32.194,101.656c18.657,2.172,36.947-1.033,55.238-4.208c-0.035-0.546-0.07-1.091-0.106-1.637
		c-18.419,1.104-36.839,2.208-55.259,3.312C32.109,99.968,32.151,100.812,32.194,101.656z"/>
	<path d="M312.811,75.767c-0.346-0.891-0.693-1.783-1.039-2.674c-11.777,3.902-22.689,9.762-33.723,15.342
		c0.25,0.574,0.498,1.146,0.748,1.721C290.135,85.36,301.475,80.564,312.811,75.767z"/>
	<path d="M81.322,90.476c-9.672,0-19.346,0-29.018,0c9.616,3.176,19.279,3.885,29.004,2.123
		C81.313,91.892,81.318,91.183,81.322,90.476z"/>
	<path d="M20.552,74.13C13.502,76.931,7.03,79.502,0,82.294C4.496,85.294,17.474,79.869,20.552,74.13z"/>
	<path d="M283.482,90.199c0.271,0.93,0.543,1.859,0.814,2.79c5.502-1.654,11.004-3.308,16.508-4.962
		c-0.217-0.741-0.436-1.482-0.654-2.224C294.594,87.268,289.039,88.734,283.482,90.199z"/>
	<path d="M59.282,0c-0.436,0.195-0.871,0.392-1.308,0.587c2.002,4.403,4.002,8.808,6.496,14.295C66.853,9.208,64.262,3.338,59.282,0
		z"/>
	<path d="M17.317,73.192c-0.081-0.799-0.162-1.599-0.243-2.397c-3.331,0.361-6.662,0.724-9.994,1.086
		c0.048,0.82,0.097,1.641,0.145,2.461C10.589,73.958,13.953,73.576,17.317,73.192z"/>
	<path d="M17.789,102.117c1.139,1.5,2.449,2.893,3.886,4.107c0.129,0.109,1.465-1.208,3.036-2.535
		c-2.077-1.52-3.48-2.689-5.059-3.539C19.429,100.029,17.689,101.986,17.789,102.117z"/>
	<path fill="#FFFFFF" d="M110.05,76.308c5.903,7.396,15.761,1.947,22.362,7.075C126.578,75.76,118.076,76.806,110.05,76.308z"/>
</g>
</svg>
