<?xml version="1.0" encoding="utf-8"?>
<!-- Generator: Adobe Illustrator 16.0.0, SVG Export Plug-In . SVG Version: 6.00 Build 0)  -->
<!DOCTYPE svg PUBLIC "-//W3C//DTD SVG 1.1//EN" "http://www.w3.org/Graphics/SVG/1.1/DTD/svg11.dtd">
<svg version="1.1" id="Layer_1" xmlns="http://www.w3.org/2000/svg" xmlns:xlink="http://www.w3.org/1999/xlink" x="0px" y="0px"
	 width="570.986px" height="572.832px" viewBox="2.984 -124.688 570.986 572.832"
	 enable-background="new 2.984 -124.688 570.986 572.832" xml:space="preserve">
<g transform="matrix(1 0 0 -1 0 800)">
	<path d="M364.751,903.268c150.553-1.224,239.904-124.236,199.512-275.4C523.259,475.48,366.587,351.856,214.812,351.856
		c-48.96,0-91.8,12.852-125.46,35.494l-21.42-23.256l18.972,25.092C17.136,436.924-14.688,525.664,12.852,627.868
		c40.392,151.164,195.84,274.176,347.005,275.4l7.953,21.42L364.751,903.268z M348.228,807.184l-18.359-110.16
		c26.928-9.792,40.393-36.72,31.824-69.156c-11.018-40.392-52.633-73.44-93.024-73.44c-6.12,0-12.24,1.224-17.748,2.448
		c-1.836,0.612-3.672,1.224-4.896,1.836l-83.232-90.575c21.42-12.853,47.736-20.197,77.724-20.197
		c99.145,0,201.348,80.785,227.664,179.929C493.884,722.728,440.64,801.064,348.228,807.184z M283.968,697.024l40.393,110.16
		c-94.86-6.12-190.333-84.456-216.036-179.316c-16.524-63.648,1.224-119.341,42.84-151.776l72.828,98.532l-3.672,5.508
		c-7.344,12.852-9.792,29.376-4.896,47.736C223.992,660.304,252.144,687.232,283.968,697.024z M302.94,682.948
		c-29.988,0-61.2-25.092-69.768-55.08c-7.956-30.6,10.404-55.08,40.392-55.08c30.6,0,61.812,24.48,69.768,55.08
		C351.9,657.856,333.541,682.948,302.94,682.948z M47.124,627.868c-23.868-88.128,3.06-165.24,62.424-207.468l26.316,34.884
		C87.516,491.393,66.096,555.04,85.68,627.868c29.376,108.324,138.924,197.064,247.247,202.572l14.689,38.556
		C216.036,865.936,82.008,758.836,47.124,627.868z M223.992,386.128c132.804,0,269.892,108.324,306,241.74
		c34.885,130.968-41.615,238.068-171.359,241.128l-6.121-38.556c105.877-5.508,167.689-94.248,138.924-202.572
		c-29.986-111.996-145.654-202.572-257.039-202.572c-34.272,0-64.872,8.567-88.74,23.256l-29.988-32.437
		C145.044,397.144,181.764,386.128,223.992,386.128z M279.684,595.432c-17.748,0-28.152,14.688-23.256,32.436
		c4.284,17.748,22.644,32.436,40.392,32.436c18.359,0,28.764-14.688,23.867-32.436C315.792,610.12,297.432,595.432,279.684,595.432z
		"/>
</g>
</svg>
