<?xml version="1.0" encoding="utf-8"?>
<!-- Generator: Adobe Illustrator 16.0.0, SVG Export Plug-In . SVG Version: 6.00 Build 0)  -->
<!DOCTYPE svg PUBLIC "-//W3C//DTD SVG 1.1//EN" "http://www.w3.org/Graphics/SVG/1.1/DTD/svg11.dtd">
<svg version="1.1" id="Layer_1" xmlns="http://www.w3.org/2000/svg" xmlns:xlink="http://www.w3.org/1999/xlink" x="0px" y="0px"
	 width="124.659px" height="79.419px" viewBox="0 0 124.659 79.419" enable-background="new 0 0 124.659 79.419"
	 xml:space="preserve">
<g>
	<path d="M118.675,39.709c0-2.585,1.744-4.755,3.971-4.941l2.014-0.168l-0.275-2c-1.813-13.168-8.666-24.918-18.805-32.238
		L105.077,0H19.581l-0.502,0.362C8.94,7.683,2.086,19.433,0.274,32.6l-0.274,2l2.013,0.168c2.226,0.186,3.969,2.356,3.969,4.941
		c0,2.585-1.743,4.755-3.969,4.941L0,44.818l0.274,2C2.086,59.986,8.94,71.736,19.079,79.057l0.502,0.362h85.496l0.502-0.362
		c10.139-7.32,16.993-19.07,18.805-32.238l0.274-2l-2.013-0.168C120.419,44.465,118.675,42.295,118.675,39.709z M103.831,75.591
		H20.827C12.239,69.182,6.302,59.234,4.336,48.014c3.19-1.197,5.474-4.502,5.474-8.304c0-3.802-2.283-7.107-5.474-8.305
		c1.966-11.22,7.903-21.167,16.491-27.577l83.004,0c8.588,6.408,14.523,16.355,16.49,27.576c-3.189,1.197-5.475,4.503-5.475,8.305
		c0,3.802,2.285,7.107,5.476,8.304C118.356,59.234,112.419,69.182,103.831,75.591z"/>
	<path d="M57.489,34.114l2.373-7.692l-2.373-0.655l-3.141-0.866l3.141-10.77l0.391-1.341h-0.391H51.28v21.19H29.81V12.79h-9.803
		v24.1h36.625L57.489,34.114z"/>
	<path d="M105.692,42.904c-1.09-1.578-2.521-2.819-4.256-3.764H68.675l-3.529,8.03l-4.063,9.246l-3.594,8.182l-0.555,1.259
		l0.555-2.465l3.594-16.021l1.467-6.537l-1.467-0.405l-3.594-0.992l-1.076-0.297H20.007v27.489h9.803V43.088H51.28v23.541h6.209
		h3.594h4.063h5.533h13.256c6.248-0.049,10.188-0.17,11.822-0.367c2.605-0.318,4.797-1.168,6.574-2.553
		c1.777-1.383,3.18-3.23,4.207-5.545c1.025-2.314,1.539-4.694,1.539-7.143C108.077,47.912,107.282,45.207,105.692,42.904z
		 M98.569,56.683c-0.918,1.139-2.104,1.854-3.561,2.148c-0.949,0.22-3.191,0.331-6.725,0.331H73.95V44.766h13.176
		c4.459,0,7.357,0.257,8.693,0.771c1.336,0.514,2.357,1.334,3.064,2.46c0.705,1.126,1.059,2.497,1.059,4.113
		C99.942,54.02,99.485,55.544,98.569,56.683z"/>
	<path d="M103.854,33.283c1.227-2.105,1.838-4.419,1.838-6.941c0-2.326-0.496-4.426-1.49-6.298
		c-0.994-1.873-2.234-3.373-3.725-4.499c-1.49-1.126-3.18-1.867-5.068-2.222c-1.887-0.355-4.752-0.533-8.594-0.533H70.679h-4.67
		l-0.863,2.511l-1.643,4.784l1.643,0.453l4.117,1.136l-5.221,13.453l5.241,1.746l0.125,0.034l-0.125-0.034l0,0l31.365,0.017
		C101.923,35.937,103.003,34.747,103.854,33.283z M96.714,29.538c-0.961,1.065-2.279,1.708-3.957,1.928
		c-0.928,0.123-3.301,0.184-7.121,0.184H73.95V19.2h10.891c4.615,0,7.406,0.062,8.379,0.184c1.635,0.22,2.865,0.851,3.693,1.892
		c0.828,1.041,1.242,2.393,1.242,4.058C98.155,27.071,97.675,28.473,96.714,29.538z"/>
</g>
</svg>
