<?xml version="1.0" encoding="utf-8"?>
<!-- Generator: Adobe Illustrator 16.0.0, SVG Export Plug-In . SVG Version: 6.00 Build 0)  -->
<!DOCTYPE svg PUBLIC "-//W3C//DTD SVG 1.1//EN" "http://www.w3.org/Graphics/SVG/1.1/DTD/svg11.dtd">
<svg version="1.1" id="Layer_1" xmlns="http://www.w3.org/2000/svg" xmlns:xlink="http://www.w3.org/1999/xlink" x="0px" y="0px"
	 width="129.998px" height="149.742px" viewBox="0 0 129.998 149.742" enable-background="new 0 0 129.998 149.742"
	 xml:space="preserve">
<title>Layer 1</title>
<path d="M129.977,19.284c-0.018-0.014-1.057-0.212-3.127-0.597c-2.068-0.384-3.118-0.576-3.147-0.576
	c-0.028,0-1.121-0.165-3.278-0.494c-2.156-0.329-3.512-0.535-4.064-0.618c-0.554-0.082-1.924-0.315-4.108-0.7
	c-2.187-0.384-3.483-0.618-3.892-0.699c-0.408-0.083-1.311-0.274-2.709-0.577c-1.399-0.302-2.842-0.645-4.327-1.029
	c-1.487-0.384-2.711-0.713-3.673-0.988c-0.961-0.275-1.748-0.508-2.36-0.7c-0.612-0.192-1.122-0.357-1.53-0.494
	s-1.384-0.467-2.928-0.988c-1.545-0.521-2.726-0.932-3.541-1.234c-0.815-0.302-1.981-0.768-3.497-1.399
	c-1.515-0.631-2.324-0.954-2.426-0.967c-0.102-0.014-1.676-0.7-4.72-2.058c-3.046-1.358-4.83-2.161-5.355-2.408
	c-0.524-0.247-1.603-0.769-3.234-1.564L65.61,0h-0.568h-0.568L62.07,1.194c-1.603,0.795-2.943,1.44-4.021,1.935
	c-1.078,0.494-2.171,0.987-3.279,1.481c-1.107,0.494-2.346,1.043-3.715,1.646c-1.37,0.604-2.105,0.913-2.208,0.926
	c-0.102,0.014-0.918,0.343-2.448,0.988s-3.169,1.283-4.917,1.914c-1.748,0.631-2.914,1.043-3.497,1.235
	c-0.583,0.192-1.195,0.384-1.836,0.576c-0.641,0.192-1.53,0.467-2.666,0.823c-1.137,0.356-2.492,0.741-4.065,1.152
	c-1.574,0.412-3.439,0.851-5.595,1.317c-2.156,0.466-3.891,0.809-5.202,1.028c-1.312,0.22-3.483,0.577-6.513,1.071
	c-3.031,0.494-5.289,0.851-6.775,1.07c-1.486,0.22-2.652,0.398-3.497,0.535s-1.362,0.254-1.552,0.35L0,19.386v2.84
	c0,1.894,0.102,5.118,0.306,9.673c0.204,4.555,0.364,7.834,0.481,9.837c0.116,2.003,0.218,3.896,0.306,5.68
	C1.18,49.2,1.37,51.848,1.661,55.36c0.292,3.513,0.481,5.612,0.569,6.298s0.364,2.127,0.83,4.322
	c0.467,2.196,0.831,3.869,1.093,5.022c0.262,1.152,0.714,2.908,1.355,5.269c0.641,2.359,1.224,4.363,1.749,6.009
	c0.524,1.647,1.049,3.197,1.573,4.651c0.524,1.454,0.933,2.539,1.225,3.252c0.291,0.713,0.699,1.688,1.223,2.922
	c0.525,1.235,0.787,1.866,0.787,1.894c0,0.027,0.263,0.618,0.787,1.77s0.933,2.017,1.224,2.593c0.292,0.576,0.626,1.193,1.006,1.852
	c0.379,0.658,0.947,1.632,1.705,2.922c0.757,1.29,1.231,2.078,1.421,2.367c0.188,0.288,0.583,0.905,1.18,1.853
	c0.597,0.946,0.961,1.536,1.092,1.77c0.131,0.233,0.408,0.659,0.831,1.276c0.306,0.453,0.612,0.905,0.917,1.358
	c0.19,0.289,0.467,0.686,0.831,1.194c0.364,0.507,0.656,0.919,0.874,1.234c0.219,0.316,0.481,0.672,0.787,1.07
	c0.306,0.398,0.547,0.721,0.722,0.967c0.175,0.248,0.386,0.528,0.634,0.844c0.247,0.315,0.524,0.672,0.831,1.07
	c0.306,0.397,0.597,0.782,0.874,1.153c0.277,0.37,0.554,0.726,0.831,1.069c0.276,0.344,0.655,0.796,1.136,1.359
	c0.48,0.562,0.845,0.988,1.093,1.276c0.248,0.287,0.991,1.07,2.229,2.345c1.239,1.276,2.04,2.1,2.404,2.47s1.006,0.988,1.923,1.853
	c0.918,0.863,1.435,1.352,1.552,1.461s0.692,0.597,1.726,1.462c1.035,0.863,1.705,1.413,2.011,1.646
	c0.306,0.234,1.005,0.81,2.098,1.729c1.094,0.919,1.924,1.604,2.492,2.058c0.568,0.453,1.239,0.988,2.01,1.605
	c0.772,0.617,1.392,1.104,1.858,1.461c0.467,0.357,0.881,0.666,1.246,0.926c0.364,0.261,0.714,0.494,1.049,0.699
	c0.335,0.207,0.947,0.563,1.835,1.071c0.889,0.507,1.486,0.851,1.793,1.028c0.305,0.179,0.757,0.453,1.355,0.824
	c0.597,0.37,0.969,0.61,1.114,0.721c0.146,0.109,0.699,0.396,1.661,0.863c0.961,0.467,1.646,0.796,2.055,0.988
	c0.408,0.191,0.786,0.328,1.137,0.41l0.524,0.125l0.481-0.164c0.321-0.111,0.889-0.344,1.705-0.7
	c0.815-0.356,1.515-0.673,2.098-0.948c0.583-0.273,0.961-0.465,1.136-0.574c0.175-0.11,0.452-0.289,0.83-0.536
	c0.379-0.246,0.743-0.466,1.093-0.659c0.35-0.191,0.663-0.377,0.94-0.555c0.276-0.179,0.859-0.521,1.748-1.029
	s1.501-0.865,1.836-1.07c0.335-0.206,0.685-0.439,1.049-0.699c0.365-0.262,0.896-0.666,1.596-1.215s1.246-0.98,1.639-1.297
	c0.394-0.314,0.744-0.589,1.049-0.822c0.306-0.233,0.947-0.756,1.924-1.564c0.976-0.811,1.588-1.316,1.835-1.523
	c0.248-0.205,0.933-0.781,2.055-1.728c1.122-0.948,1.836-1.537,2.143-1.771c0.306-0.233,0.925-0.789,1.856-1.667
	c0.934-0.878,2.012-1.935,3.234-3.169c1.225-1.235,2.288-2.332,3.191-3.293c0.904-0.961,1.494-1.613,1.771-1.956
	s0.612-0.754,1.005-1.235c0.395-0.48,0.758-0.946,1.094-1.4c0.336-0.452,0.685-0.905,1.049-1.357
	c0.364-0.453,0.641-0.824,0.83-1.111c0.189-0.288,0.452-0.646,0.787-1.07c0.335-0.425,0.686-0.892,1.049-1.4
	c0.365-0.508,0.686-0.947,0.963-1.317c0.276-0.371,0.641-0.892,1.092-1.563c0.452-0.672,0.787-1.167,1.006-1.482
	s0.685-1.056,1.398-2.223c0.714-1.166,1.165-1.893,1.354-2.181c0.19-0.288,0.743-1.208,1.661-2.758
	c0.918-1.55,1.449-2.449,1.596-2.696s0.582-1.125,1.312-2.634c0.729-1.509,1.325-2.799,1.792-3.869
	c0.466-1.07,0.859-1.989,1.18-2.758c0.32-0.768,0.729-1.797,1.225-3.086c0.495-1.29,0.859-2.278,1.093-2.964
	s0.438-1.262,0.612-1.729s0.305-0.851,0.393-1.152c0.088-0.302,0.35-1.18,0.787-2.635c0.438-1.454,0.815-2.812,1.137-4.074
	c0.32-1.263,0.686-2.731,1.092-4.404c0.408-1.674,0.788-3.334,1.137-4.981c0.35-1.646,0.656-3.389,0.918-5.227
	c0.263-1.839,0.496-4.048,0.7-6.627c0.203-2.579,0.481-7.107,0.831-13.583c0.35-6.476,0.566-11.758,0.654-15.847l0.132-6.133
	L129.977,19.284z"/>
</svg>
