<?xml version="1.0" encoding="utf-8"?>
<!-- Generator: Adobe Illustrator 16.0.0, SVG Export Plug-In . SVG Version: 6.00 Build 0)  -->
<!DOCTYPE svg PUBLIC "-//W3C//DTD SVG 1.1//EN" "http://www.w3.org/Graphics/SVG/1.1/DTD/svg11.dtd">
<svg version="1.1" id="Layer_1" xmlns="http://www.w3.org/2000/svg" xmlns:xlink="http://www.w3.org/1999/xlink" x="0px" y="0px"
	 width="588.993px" height="430.24px" viewBox="23.007 12.86 588.993 430.24" enable-background="new 23.007 12.86 588.993 430.24"
	 xml:space="preserve">
<g transform="matrix(1 0 0 -1 0 800)">
	<path d="M578.869,751.248H612v-32.671v-49.696V636.21v-49.696v-32.67v-49.696v-32.671V420.4v-32.67h-33.131h-91.57h-32.67v9.203
		h-19.326v-7.362v-32.671h-32.671h-274.25h-13.344l-9.663,9.203L32.21,439.266l-9.203,9.663v13.344v165.194v127.001v32.67h32.671
		h346.954h32.671v-32.67v-13.344h19.326v10.123h32.67H578.869z M578.869,667.501v51.076h-91.57v-10.123h-84.667v10.123v35.892
		H55.678V627.468V462.273l72.704-72.703h274.25v30.83v9.203h84.667V420.4h91.57v51.077h-91.57v-10.123h-84.667v10.123v31.291v9.203
		h84.667v-9.203h91.57v51.077h-91.57V543.72h-84.667v10.124v31.29v9.203h84.667v-9.203h91.57v51.077h-91.57v-10.123h-84.667v10.123
		v31.291v9.663h84.667v-9.663H578.869z"/>
</g>
</svg>
