<?xml version="1.0" encoding="utf-8"?>
<!-- Generator: Adobe Illustrator 16.0.0, SVG Export Plug-In . SVG Version: 6.00 Build 0)  -->
<!DOCTYPE svg PUBLIC "-//W3C//DTD SVG 1.1//EN" "http://www.w3.org/Graphics/SVG/1.1/DTD/svg11.dtd">
<svg version="1.1" id="Layer_1" xmlns="http://www.w3.org/2000/svg" xmlns:xlink="http://www.w3.org/1999/xlink" x="0px" y="0px"
	 width="134.604px" height="116.742px" viewBox="0 0 134.604 116.742" enable-background="new 0 0 134.604 116.742"
	 xml:space="preserve">
<path d="M123.015,42.495l-4.711,15.387L107.85,42.495h-9.195l-9.213,30.258h11.592l4.661-15.32l10.448,15.32h9.247l9.213-30.258
	H123.015z"/>
<path d="M33.573,42.496l-4.71,15.386L18.408,42.496H9.213L0,72.755h11.591l4.661-15.321L26.7,72.755h9.248l9.213-30.259H33.573z"/>
<path d="M21.01,79.484h-5.247c6.701,19.072,22.436,33.449,41.663,37.258v-5.291C40.916,107.848,27.344,95.675,21.01,79.484z"/>
<path d="M119.477,79.484h-5.247c-6.306,16.118-19.785,28.256-36.196,31.919v5.291C97.161,112.819,112.801,98.482,119.477,79.484z"/>
<path d="M67.62,5.191c21.006,0,39.013,13.652,46.609,33.07h5.247C111.623,15.913,91.369,0,67.62,0
	C43.87,0,23.617,15.913,15.763,38.262h5.248C28.607,18.844,46.614,5.191,67.62,5.191z"/>
<path d="M26.672,38.262h5.67c6.242-12.064,17.795-20.583,31.309-21.991v-5.394C47.276,12.391,33.398,23.171,26.672,38.262z"/>
<path d="M102.898,38.262h5.668c-6.725-15.091-20.604-25.871-36.978-27.385v5.394C85.104,17.679,96.655,26.197,102.898,38.262z"/>
<path d="M32.342,79.484h-5.67c5.854,13.139,17.133,23.002,30.754,26.335v-5.544C46.634,97.276,37.601,89.648,32.342,79.484z"/>
<path d="M108.566,79.484h-5.668c-5.225,10.096-14.17,17.688-24.865,20.73v5.543C91.557,102.373,102.745,92.55,108.566,79.484z"/>
<path d="M96.257,79.484h-6.432c-3.166,3.855-7.207,6.881-11.792,8.723v5.731C85.533,91.421,91.936,86.267,96.257,79.484z"/>
<path d="M45.415,79.484h-6.432c4.364,6.85,10.848,12.038,18.443,14.528v-5.722C52.751,86.457,48.631,83.402,45.415,79.484z"/>
<path d="M63.65,27.807v-5.471c-10.258,1.248-19.152,7.27-24.667,15.926h6.432C49.996,32.682,56.405,28.845,63.65,27.807z"/>
<path d="M71.59,22.336v5.471c7.244,1.038,13.654,4.875,18.235,10.455h6.432C90.741,29.605,81.847,23.584,71.59,22.336z"/>
<g>
	<path fill="none" d="M76.927,52.813c0.826-0.874,1.449-1.877,1.867-3.001c-0.418,1.123-1.041,2.125-1.867,2.997
		c-0.74,0.782-1.613,1.46-2.605,2.027c0,0.001,0.002,0.002,0.004,0.002C75.315,54.271,76.186,53.594,76.927,52.813z"/>
	<path d="M86.116,56.35c-0.02-0.021-0.041-0.043-0.061-0.064c0.41-0.335,0.797-0.693,1.156-1.071
		c1.939-2.049,2.924-4.668,2.924-7.787c0-1.393-0.26-2.718-0.775-3.939c-0.508-1.202-1.232-2.297-2.156-3.253
		c-0.896-0.929-1.979-1.729-3.217-2.381c-1.191-0.628-2.521-1.105-3.971-1.424c-1.064-0.227-2.135-0.378-3.18-0.453
		c-0.961-0.066-2.051-0.1-3.238-0.1H52.306l-9.323,41.494h21.913c1.604,0,3.05-0.055,4.3-0.156c0.311-0.027,0.771-0.057,1.309-0.09
		c1.941-0.127,3.387-0.232,4.285-0.398c2.186-0.428,4.145-1.057,5.822-1.871c1.736-0.846,3.223-1.865,4.414-3.041
		c1.234-1.215,2.182-2.592,2.811-4.092c0.629-1.486,0.943-3.062,0.943-4.68c0-1.312-0.23-2.547-0.689-3.67
		C87.63,58.246,86.966,57.228,86.116,56.35z M59.948,44.559h13.685v-0.001h0.045c0.715,0,1.365,0.024,1.934,0.073
		c0.508,0.043,0.98,0.12,1.4,0.232l0.039,0.01c0.959,0.232,1.686,0.596,2.158,1.08c0.41,0.423,0.609,0.982,0.609,1.711
		c0,0.854-0.166,1.588-0.5,2.183c-0.336,0.608-0.793,1.102-1.395,1.505c-0.641,0.43-1.404,0.753-2.281,0.965
		c-0.945,0.227-1.996,0.34-3.125,0.34H58.131L59.948,44.559z M56.894,59.73h16.364h0.047c1.248,0,2.252,0.107,2.98,0.316
		c0.875,0.256,1.51,0.623,1.939,1.129c0.404,0.473,0.6,1.041,0.6,1.736c0,0.543-0.098,1.088-0.291,1.629
		c-0.182,0.502-0.488,0.99-0.914,1.449c-0.441,0.477-1.043,0.922-1.787,1.314c-0.77,0.406-1.756,0.736-2.945,0.982
		c-0.393,0.082-2.146,0.186-2.992,0.232c-0.473,0.025-0.883,0.051-1.146,0.072c-0.846,0.066-1.9,0.1-3.128,0.1h-0.047H54.879
		L56.894,59.73z"/>
</g>
</svg>
