<?xml version="1.0" encoding="utf-8"?>
<!-- Generator: Adobe Illustrator 16.0.0, SVG Export Plug-In . SVG Version: 6.00 Build 0)  -->
<!DOCTYPE svg PUBLIC "-//W3C//DTD SVG 1.1//EN" "http://www.w3.org/Graphics/SVG/1.1/DTD/svg11.dtd">
<svg version="1.1" id="Layer_1" xmlns="http://www.w3.org/2000/svg" xmlns:xlink="http://www.w3.org/1999/xlink" x="0px" y="0px"
	 width="575.725px" height="520.199px" viewBox="36.275 -41.018 575.725 520.199"
	 enable-background="new 36.275 -41.018 575.725 520.199" xml:space="preserve">
<g transform="matrix(1 0 0 -1 0 800)">
	<path d="M342.86,742.666l122.868-108.826v-202.44L342.86,320.818L221.748,431.399v202.44L342.86,742.666z M435.889,444.856v174.941
		l-93.028,83.667l-89.518-81.327l89.518-86.008v-92.443l-91.858,88.348v-87.178l91.858-84.252L435.889,444.856z M455.197,763.144
		c-62.02,34.52-124.624,42.711-191.323,23.988c-48.563-12.872-87.763-37.445-120.528-76.061l-8.191-8.191l63.189-44.466
		L60.264,618.042L36.275,770.165l62.019-42.711l6.436,7.606c38.616,46.222,87.178,78.402,147.441,94.199
		c78.401,22.233,154.463,12.872,224.088-27.5c67.87-38.03,113.507-95.369,135.74-169.09l-42.711-11.701
		C549.98,683.572,511.95,730.378,455.197,763.144z"/>
</g>
</svg>
