<?xml version="1.0" encoding="utf-8"?>
<!-- Generator: Adobe Illustrator 16.0.0, SVG Export Plug-In . SVG Version: 6.00 Build 0)  -->
<!DOCTYPE svg PUBLIC "-//W3C//DTD SVG 1.1//EN" "http://www.w3.org/Graphics/SVG/1.1/DTD/svg11.dtd">
<svg version="1.1" id="Layer_1" xmlns="http://www.w3.org/2000/svg" xmlns:xlink="http://www.w3.org/1999/xlink" x="0px" y="0px"
	 width="88.834px" height="88.834px" viewBox="0 0 88.834 88.834" enable-background="new 0 0 88.834 88.834" xml:space="preserve">
<g id="share">
	<path d="M77.729,66.626c-2.699,0-5.085,1.084-7.005,2.679L53.797,57.223c1.074-2.212,1.725-4.641,1.725-7.254
		c0-3.59-1.172-6.907-3.102-9.619l19.801-19.812c1.648,0.967,3.46,1.671,5.509,1.671c6.138,0,11.104-4.966,11.104-11.104
		S83.867,0,77.729,0S66.625,4.967,66.625,11.104c0,2.048,0.705,3.861,1.671,5.507L48.494,36.426
		c-2.732-1.952-6.029-3.113-9.629-3.113c-6.354,0-11.82,3.611-14.63,8.859l-13.369-4.468c-0.541-2.493-2.657-4.392-5.313-4.392
		C2.484,33.312,0,35.795,0,38.865c0,3.07,2.484,5.552,5.552,5.552c1.399,0,2.646-0.564,3.623-1.421l13.295,4.436
		c-0.131,0.836-0.262,1.67-0.262,2.537c0,9.196,7.46,16.657,16.656,16.657c4.576,0,8.729-1.855,11.745-4.849l16.818,12.005
		c-0.477,1.236-0.803,2.549-0.803,3.947c0,6.127,4.967,11.104,11.104,11.104s11.104-4.978,11.104-11.104
		C88.834,71.604,83.867,66.626,77.729,66.626z"/>
</g>
</svg>
