<?xml version="1.0" encoding="utf-8"?>
<!-- Generator: Adobe Illustrator 16.0.0, SVG Export Plug-In . SVG Version: 6.00 Build 0)  -->
<!DOCTYPE svg PUBLIC "-//W3C//DTD SVG 1.1//EN" "http://www.w3.org/Graphics/SVG/1.1/DTD/svg11.dtd">
<svg version="1.1" id="Layer_1" xmlns="http://www.w3.org/2000/svg" xmlns:xlink="http://www.w3.org/1999/xlink" x="0px" y="0px"
	 width="314.84px" height="278.211px" viewBox="0 0 314.84 278.211" enable-background="new 0 0 314.84 278.211"
	 xml:space="preserve">
<g>
	<polygon fill="none" points="95.522,169.686 155.705,0 37.898,0 74.888,111.507 	"/>
	<polygon fill="none" points="236.557,111.416 276.889,0 155.705,0 215.889,169.687 	"/>
	<g>
		<polygon fill="#800000018000000180000001" points="236.557,111.416 215.889,169.687 155.705,0 95.522,169.686 74.888,111.507 
			37.898,0 0,0 55.963,165.117 95.521,276.651 155.705,106.967 215.889,276.652 255.393,165.272 314.84,0 276.889,0 		"/>
	</g>
	<g>
		<polygon fill="#800000018000000180000001" points="156.919,138.326 134.879,208.268 112.828,278.211 156.919,278.211 
			201.018,278.211 178.973,208.268 		"/>
	</g>
	
		<line fill="none" stroke="#800000018000000180000001" stroke-width="0" stroke-linecap="round" stroke-linejoin="round" x1="8374.877" y1="0" x2="314.84" y2="0"/>
	
		<line fill="none" stroke="#800000018000000180000001" stroke-width="0" stroke-linecap="round" stroke-linejoin="round" x1="276.889" y1="0" x2="155.705" y2="0"/>
	
		<line fill="none" stroke="#800000018000000180000001" stroke-width="0" stroke-linecap="round" stroke-linejoin="round" x1="37.898" y1="0" x2="155.705" y2="0"/>
	
		<line fill="none" stroke="#800000018000000180000001" stroke-width="0" stroke-linecap="round" stroke-linejoin="round" x1="0" y1="0" x2="-8008.123" y2="0"/>
	
		<line fill="none" stroke="#800000018000000180000001" stroke-width="0" stroke-linecap="round" stroke-linejoin="round" x1="37.898" y1="0" x2="0" y2="0"/>
	
		<line fill="none" stroke="#800000018000000180000001" stroke-width="0" stroke-linecap="round" stroke-linejoin="round" x1="276.889" y1="0" x2="314.84" y2="0"/>
	<g>
		<polygon fill="#800000018000000180000001" points="14.723,138.326 37.877,207.488 61.03,276.652 70.765,246.736 33.687,138.326 		
			"/>
	</g>
	<g>
		<polygon fill="#800000018000000180000001" points="238.999,247.515 248.734,277.431 271.886,208.267 295.041,139.105 
			276.078,139.105 		"/>
	</g>
</g>
</svg>
