<?xml version="1.0" encoding="utf-8"?>
<!-- Generated by IcoMoon.io -->
<!DOCTYPE svg PUBLIC "-//W3C//DTD SVG 1.1//EN" "http://www.w3.org/Graphics/SVG/1.1/DTD/svg11.dtd">
<svg version="1.1" xmlns="http://www.w3.org/2000/svg" xmlns:xlink="http://www.w3.org/1999/xlink" width="25" height="32" viewBox="0 0 25 32">
<g>
	<line stroke-width="1" x1="16" y1="0" x2="16" y2="448" stroke="#449FDB" opacity="0.3"></line>
	<line stroke-width="1" x1="32" y1="0" x2="32" y2="448" stroke="#449FDB" opacity="1"></line>
	<line stroke-width="1" x1="48" y1="0" x2="48" y2="448" stroke="#449FDB" opacity="0.3"></line>
	<line stroke-width="1" x1="64" y1="0" x2="64" y2="448" stroke="#449FDB" opacity="1"></line>
	<line stroke-width="1" x1="80" y1="0" x2="80" y2="448" stroke="#449FDB" opacity="0.3"></line>
	<line stroke-width="1" x1="96" y1="0" x2="96" y2="448" stroke="#449FDB" opacity="1"></line>
	<line stroke-width="1" x1="112" y1="0" x2="112" y2="448" stroke="#449FDB" opacity="0.3"></line>
	<line stroke-width="1" x1="128" y1="0" x2="128" y2="448" stroke="#449FDB" opacity="1"></line>
	<line stroke-width="1" x1="144" y1="0" x2="144" y2="448" stroke="#449FDB" opacity="0.3"></line>
	<line stroke-width="1" x1="160" y1="0" x2="160" y2="448" stroke="#449FDB" opacity="1"></line>
	<line stroke-width="1" x1="176" y1="0" x2="176" y2="448" stroke="#449FDB" opacity="0.3"></line>
	<line stroke-width="1" x1="192" y1="0" x2="192" y2="448" stroke="#449FDB" opacity="1"></line>
	<line stroke-width="1" x1="208" y1="0" x2="208" y2="448" stroke="#449FDB" opacity="0.3"></line>
	<line stroke-width="1" x1="224" y1="0" x2="224" y2="448" stroke="#449FDB" opacity="1"></line>
	<line stroke-width="1" x1="240" y1="0" x2="240" y2="448" stroke="#449FDB" opacity="0.3"></line>
	<line stroke-width="1" x1="256" y1="0" x2="256" y2="448" stroke="#449FDB" opacity="1"></line>
	<line stroke-width="1" x1="272" y1="0" x2="272" y2="448" stroke="#449FDB" opacity="0.3"></line>
	<line stroke-width="1" x1="288" y1="0" x2="288" y2="448" stroke="#449FDB" opacity="1"></line>
	<line stroke-width="1" x1="304" y1="0" x2="304" y2="448" stroke="#449FDB" opacity="0.3"></line>
	<line stroke-width="1" x1="320" y1="0" x2="320" y2="448" stroke="#449FDB" opacity="1"></line>
	<line stroke-width="1" x1="336" y1="0" x2="336" y2="448" stroke="#449FDB" opacity="0.3"></line>
	<line stroke-width="1" x1="0" y1="16" x2="352" y2="16" stroke="#449FDB" opacity="0.3"></line>
	<line stroke-width="1" x1="0" y1="32" x2="352" y2="32" stroke="#449FDB" opacity="1"></line>
	<line stroke-width="1" x1="0" y1="48" x2="352" y2="48" stroke="#449FDB" opacity="0.3"></line>
	<line stroke-width="1" x1="0" y1="64" x2="352" y2="64" stroke="#449FDB" opacity="1"></line>
	<line stroke-width="1" x1="0" y1="80" x2="352" y2="80" stroke="#449FDB" opacity="0.3"></line>
	<line stroke-width="1" x1="0" y1="96" x2="352" y2="96" stroke="#449FDB" opacity="1"></line>
	<line stroke-width="1" x1="0" y1="112" x2="352" y2="112" stroke="#449FDB" opacity="0.3"></line>
	<line stroke-width="1" x1="0" y1="128" x2="352" y2="128" stroke="#449FDB" opacity="1"></line>
	<line stroke-width="1" x1="0" y1="144" x2="352" y2="144" stroke="#449FDB" opacity="0.3"></line>
	<line stroke-width="1" x1="0" y1="160" x2="352" y2="160" stroke="#449FDB" opacity="1"></line>
	<line stroke-width="1" x1="0" y1="176" x2="352" y2="176" stroke="#449FDB" opacity="0.3"></line>
	<line stroke-width="1" x1="0" y1="192" x2="352" y2="192" stroke="#449FDB" opacity="1"></line>
	<line stroke-width="1" x1="0" y1="208" x2="352" y2="208" stroke="#449FDB" opacity="0.3"></line>
	<line stroke-width="1" x1="0" y1="224" x2="352" y2="224" stroke="#449FDB" opacity="1"></line>
	<line stroke-width="1" x1="0" y1="240" x2="352" y2="240" stroke="#449FDB" opacity="0.3"></line>
	<line stroke-width="1" x1="0" y1="256" x2="352" y2="256" stroke="#449FDB" opacity="1"></line>
	<line stroke-width="1" x1="0" y1="272" x2="352" y2="272" stroke="#449FDB" opacity="0.3"></line>
	<line stroke-width="1" x1="0" y1="288" x2="352" y2="288" stroke="#449FDB" opacity="1"></line>
	<line stroke-width="1" x1="0" y1="304" x2="352" y2="304" stroke="#449FDB" opacity="0.3"></line>
	<line stroke-width="1" x1="0" y1="320" x2="352" y2="320" stroke="#449FDB" opacity="1"></line>
	<line stroke-width="1" x1="0" y1="336" x2="352" y2="336" stroke="#449FDB" opacity="0.3"></line>
	<line stroke-width="1" x1="0" y1="352" x2="352" y2="352" stroke="#449FDB" opacity="1"></line>
	<line stroke-width="1" x1="0" y1="368" x2="352" y2="368" stroke="#449FDB" opacity="0.3"></line>
	<line stroke-width="1" x1="0" y1="384" x2="352" y2="384" stroke="#449FDB" opacity="1"></line>
	<line stroke-width="1" x1="0" y1="400" x2="352" y2="400" stroke="#449FDB" opacity="0.3"></line>
	<line stroke-width="1" x1="0" y1="416" x2="352" y2="416" stroke="#449FDB" opacity="1"></line>
	<line stroke-width="1" x1="0" y1="432" x2="352" y2="432" stroke="#449FDB" opacity="0.3"></line>
</g>
	<path d="M25.143 25.089q0 2.143-1.304 3.384t-3.464 1.241h-15.607q-2.161 0-3.464-1.241t-1.304-3.384q0-0.946 0.063-1.848t0.25-1.946 0.473-1.938 0.768-1.741 1.107-1.446 1.527-0.955 1.991-0.357q0.161 0 0.75 0.384t1.33 0.857 1.929 0.857 2.384 0.384 2.384-0.384 1.929-0.857 1.33-0.857 0.75-0.384q1.089 0 1.991 0.357t1.527 0.955 1.107 1.446 0.768 1.741 0.473 1.938 0.25 1.946 0.063 1.848zM19.429 9.143q0 2.839-2.009 4.848t-4.848 2.009-4.848-2.009-2.009-4.848 2.009-4.848 4.848-2.009 4.848 2.009 2.009 4.848z" fill="#000000" />
</svg>
