<?xml version="1.0" encoding="utf-8"?>
<!-- Generated by IcoMoon.io -->
<!DOCTYPE svg PUBLIC "-//W3C//DTD SVG 1.1//EN" "http://www.w3.org/Graphics/SVG/1.1/DTD/svg11.dtd">
<svg version="1.1" xmlns="http://www.w3.org/2000/svg" xmlns:xlink="http://www.w3.org/1999/xlink" width="44" height="32" viewBox="0 0 44 32">
	<path d="M40.485 3.241h2.308v25.918h-11.184v-0.71h-1.42v2.929h-22.811l-0.621-0.71-5.858-5.858v-24.143h29.291v3.284h1.42v-0.71l8.876 0zM40.485 9.188v-3.639h-6.568v0.71h-6.036v-3.195h-24.675v20.77l5.148 5.148h19.527v-2.84h6.036v0.71h6.568v-3.639h-6.568v0.71h-6.036v-3.639h6.036v0.71h6.568v-3.639h-6.568v0.71h-6.036v-3.639h6.036v0.621h6.568v-3.639h-6.568v0.799h-6.036v-3.639h6.036v0.621l6.568-0zM11.726 9.010v1.864h2.929v11.006h2.84v-13.669l-5.769 0.799z" fill="#000000" />
</svg>
