<?xml version="1.0" encoding="utf-8"?>
<!-- Generator: Adobe Illustrator 16.0.0, SVG Export Plug-In . SVG Version: 6.00 Build 0)  -->
<!DOCTYPE svg PUBLIC "-//W3C//DTD SVG 1.1//EN" "http://www.w3.org/Graphics/SVG/1.1/DTD/svg11.dtd">
<svg version="1.1" id="Layer_1" xmlns="http://www.w3.org/2000/svg" xmlns:xlink="http://www.w3.org/1999/xlink" x="0px" y="0px"
	 width="1440px" height="1227px" viewBox="0 0 1440 1227" enable-background="new 0 0 1440 1227" xml:space="preserve">
<g transform="matrix(1 0 0 -1 0 800)">
	<path fill="#010101" d="M669.326,55.01v64.336l79.901-22.828V62.274c0-33.206-7.265-56.034-20.754-67.449
		c-14.528-11.415-40.47-17.641-77.826-17.641H287.46v39.432c0,16.604,2.075,30.093,8.302,38.394
		c7.263,12.452,21.791,25.942,45.658,40.47l298.852,184.708v56.035H394.341V246.98l-85.089,21.792v56.035
		c0,33.206,6.226,56.035,20.754,67.449c13.49,11.415,39.432,17.641,77.825,17.641h222.064c37.356,0,63.298-6.226,77.826-17.641
		c13.489-11.414,20.753-34.243,20.753-67.449v-26.979c0-23.867-4.15-41.508-12.452-53.96c-7.264-9.338-21.791-20.753-43.582-34.243
		L418.208,55.01H669.326z M1309.574,568.662h73.676v-74.712V382.917v-74.713V197.172v-74.713V10.39v-73.675v-115.183v-73.676
		h-73.676h-207.536h-73.675v20.755h-42.545v-16.604v-73.676h-74.713H292.648h-30.093l-21.791,21.792L76.811-135.923L55.02-114.132
		v31.131v371.489v287.438v73.675h73.676h782.41h74.713v-73.675v-30.093h42.545v22.829h73.675H1309.574z M1309.574,379.804v114.146
		h-207.536v-22.83H911.105v22.83v81.977h-782.41V288.488V-83.001l163.953-164.991h618.457v69.524v21.791h190.933v-21.791h207.536
		v115.183h-207.536v-22.829H911.105v22.829v71.6v20.754h190.933V8.314h207.536v114.145h-207.536V99.631H911.105v22.828v71.6v20.754
		h190.933v-20.754h207.536v114.145h-207.536v-22.829H911.105v22.829v71.6v20.754h190.933v-20.754H1309.574z"/>
</g>
</svg>
