<?xml version="1.0" encoding="utf-8"?>
<!-- Generator: Adobe Illustrator 16.0.0, SVG Export Plug-In . SVG Version: 6.00 Build 0)  -->
<!DOCTYPE svg PUBLIC "-//W3C//DTD SVG 1.1//EN" "http://www.w3.org/Graphics/SVG/1.1/DTD/svg11.dtd">
<svg version="1.1" id="Layer_1" xmlns="http://www.w3.org/2000/svg" xmlns:xlink="http://www.w3.org/1999/xlink" x="0px" y="0px"
	 width="588.993px" height="430.7px" viewBox="23.007 12.86 588.993 430.7" enable-background="new 23.007 12.86 588.993 430.7"
	 xml:space="preserve">
<g transform="matrix(1 0 0 -1 0 800)">
	<path d="M295.417,523.474v28.529l35.431-10.123v-15.185c0-14.725-3.221-24.848-9.202-29.91c-6.442-5.062-17.946-7.823-34.512-7.823
		H126.081v17.486c0,7.362,0.92,13.344,3.681,17.025c3.221,5.522,9.664,11.504,20.247,17.946l132.523,81.907v24.848H173.477v-39.573
		l-37.732,9.663v24.848c0,14.725,2.761,24.848,9.203,29.91c5.982,5.062,17.486,7.823,34.511,7.823h98.472
		c16.565,0,28.069-2.761,34.512-7.823c5.981-5.062,9.203-15.185,9.203-29.91v-11.964c0-10.583-1.841-18.406-5.522-23.928
		c-3.221-4.142-9.663-9.203-19.326-15.185L184.06,523.474H295.417z M579.329,751.248H612v-33.131v-49.236V635.75v-49.236v-33.131
		v-49.696v-32.67V419.94v-32.67h-32.671h-92.03h-32.67v9.203h-18.866v-7.363v-32.67h-33.131h-274.25h-13.344l-9.663,9.663
		l-72.704,72.704l-9.664,9.663v13.804v164.734v127.462v32.67h32.671h346.954h33.131v-32.67v-13.344h18.866v10.123h32.67H579.329z
		 M579.329,667.501v50.616h-92.03v-10.123h-84.667v10.123v36.352H55.678V627.007V462.273l72.704-73.164h274.25v30.831v9.663h84.667
		v-9.663h92.03v51.077h-92.03v-10.124h-84.667v10.124v31.75v9.203h84.667v-9.203h92.03v50.616h-92.03V543.26h-84.667v10.123v31.75
		v9.203h84.667v-9.203h92.03v50.617h-92.03v-10.124h-84.667v10.124v31.75v9.203h84.667v-9.203H579.329z"/>
</g>
</svg>
