<?xml version="1.0" encoding="utf-8"?>
<!-- Generated by IcoMoon.io -->
<!DOCTYPE svg PUBLIC "-//W3C//DTD SVG 1.1//EN" "http://www.w3.org/Graphics/SVG/1.1/DTD/svg11.dtd">
<svg version="1.1" xmlns="http://www.w3.org/2000/svg" xmlns:xlink="http://www.w3.org/1999/xlink" width="44" height="32" viewBox="0 0 44 32">
	<path d="M20.25 19.486v-2.042l2.486 0.71v1.065c0 1.065-0.178 1.775-0.621 2.131-0.444 0.355-1.243 0.533-2.486 0.533h-11.452v-1.243c0-0.444 0.089-0.888 0.266-1.154 0.266-0.444 0.71-0.799 1.42-1.332l9.499-5.77v-1.775h-7.812v2.752l-2.663-0.621v-1.775c0-1.065 0.178-1.775 0.621-2.131s1.243-0.533 2.486-0.533h7.013c1.154 0 1.953 0.178 2.486 0.533 0.355 0.355 0.621 1.065 0.621 2.131v0.799c0 0.799-0.089 1.332-0.355 1.775-0.266 0.266-0.71 0.621-1.42 1.065l-7.99 4.883h7.901zM40.49 3.241h2.308v25.922h-11.185v-0.621h-1.332v2.841h-22.903l-0.621-0.71-5.859-5.859v-24.146h29.384v3.285h1.332v-0.71h8.877zM40.49 9.189v-3.551h-6.569v0.71h-6.037v-3.285h-24.679v20.773l5.149 5.149h19.53v-2.841h6.037v0.71h6.569v-3.64h-6.569v0.71h-6.037v-3.64h6.037v0.621h6.569v-3.551h-6.569v0.71h-6.037v-3.64h6.037v0.621h6.569v-3.551h-6.569v0.71h-6.037v-3.64h6.037v0.621h6.569z" fill="#000000" />
</svg>
