<?xml version="1.0" encoding="utf-8"?>
<!-- Generator: Adobe Illustrator 16.0.0, SVG Export Plug-In . SVG Version: 6.00 Build 0)  -->
<!DOCTYPE svg PUBLIC "-//W3C//DTD SVG 1.1//EN" "http://www.w3.org/Graphics/SVG/1.1/DTD/svg11.dtd">
<svg version="1.1" id="Layer_1" xmlns="http://www.w3.org/2000/svg" xmlns:xlink="http://www.w3.org/1999/xlink" x="0px" y="0px"
	 width="1440px" height="1227px" viewBox="0 0 1440 1227" enable-background="new 0 0 1440 1227" xml:space="preserve">
<g>
	<path fill="none" d="M1102.038,328.88H911.105v-22.83v-81.977h-782.41v287.438v371.489l163.953,164.991h618.457v-69.524v-21.791
		h190.933v21.791h207.536V863.285h-207.536v22.829H911.105v-22.829v-71.6v-20.754h190.933v20.754h207.536V677.541h-207.536v22.828
		H911.105v-22.828v-71.6v-20.754h190.933v20.754h207.536V491.796h-207.536v22.829H911.105v-22.829v-71.6v-20.754h190.933v20.754
		h207.536V306.051h-207.536V328.88z M757.548,729.765c0,16.754-1.543,30.995-4.607,42.723c-3.074,11.729-8.664,21.362-16.754,28.901
		c-8.102,7.539-18.848,12.984-32.252,16.335c-13.402,3.351-30.445,5.026-51.1,5.026H401.524c-18.43,0-33.928-1.112-46.493-3.351
		c-12.565-2.226-22.762-6.558-30.576-12.984c-7.827-6.414-13.403-15.079-16.754-25.969c-3.351-10.891-5.026-24.987-5.026-42.305
		v-35.184l88.797-18.43v60.315h232.881c16.756,0,27.92-2.514,33.51-7.54c5.576-5.026,8.377-15.354,8.377-30.995v-31.832
		c0-15.629-2.801-26.101-8.377-31.414c-5.59-5.302-16.754-7.959-33.51-7.959h-145.76v-70.367h129.844
		c16.754,0,27.775-2.644,33.09-7.958c5.301-5.301,7.959-15.772,7.959-31.414v-21.78c0-15.628-2.658-26.1-7.959-31.414
		c-5.314-5.301-16.336-7.958-33.09-7.958H394.822v53.613l-85.445-15.917v-26.807c0-17.304,1.675-31.414,5.026-42.304
		c3.351-10.89,8.927-19.398,16.754-25.55c7.813-6.139,18.011-10.471,30.576-12.984s28.063-3.77,46.492-3.77h233.719
		c18.43,0,33.928,1.256,46.494,3.77c12.564,2.513,22.748,6.846,30.576,12.984c7.814,6.152,13.402,14.66,16.754,25.55
		c3.35,10.89,5.025,25,5.025,42.304v39.372c0,25.694-6.152,44.542-18.43,56.545c-12.289,12.016-34.07,20.524-65.34,25.55
		c34.621,3.351,60.025,12.016,76.23,25.969c16.191,13.967,24.293,34.634,24.293,61.99V729.765z"/>
	<path d="M733.255,622.538c-16.205-13.953-41.609-22.618-76.23-25.969c31.27-5.026,53.051-13.534,65.34-25.55
		c12.277-12.003,18.43-30.851,18.43-56.545v-39.372c0-17.304-1.676-31.414-5.025-42.304c-3.352-10.89-8.939-19.398-16.754-25.55
		c-7.828-6.139-18.012-10.471-30.576-12.984c-12.566-2.513-28.064-3.77-46.494-3.77H408.225c-18.43,0-33.927,1.256-46.492,3.77
		s-22.763,6.846-30.576,12.984c-7.827,6.152-13.403,14.66-16.754,25.55c-3.352,10.89-5.026,25-5.026,42.304v26.807l85.445,15.917
		v-53.613h213.615c16.754,0,27.775,2.657,33.09,7.958c5.301,5.314,7.959,15.785,7.959,31.414v21.78
		c0,15.642-2.658,26.113-7.959,31.414c-5.314,5.314-16.336,7.958-33.09,7.958H478.592v70.367h145.76
		c16.756,0,27.92,2.657,33.51,7.959c5.576,5.313,8.377,15.785,8.377,31.414v31.832c0,15.642-2.801,25.969-8.377,30.995
		c-5.59,5.026-16.754,7.54-33.51,7.54H391.471v-60.315l-88.797,18.43v35.184c0,17.317,1.676,31.414,5.026,42.305
		c3.351,10.89,8.927,19.555,16.754,25.969c7.814,6.427,18.011,10.759,30.576,12.984c12.565,2.238,28.063,3.351,46.493,3.351h251.311
		c20.654,0,37.697-1.676,51.1-5.026c13.404-3.351,24.15-8.796,32.252-16.335c8.09-7.539,13.68-17.173,16.754-28.901
		c3.064-11.728,4.607-25.969,4.607-42.723v-45.236C757.548,657.172,749.446,636.505,733.255,622.538z"/>
	<path fill="#010101" d="M1309.574,231.338h-207.536h-73.675v22.829h-42.545v-30.093v-73.675h-74.713h-782.41H55.02v73.675v287.438
		v371.489v31.131l21.792,21.791l163.954,163.953l21.791,21.792h30.093h618.457h74.713v-73.676v-16.604h42.545v20.755h73.675h207.536
		h73.676v-73.676V863.285V789.61V677.541v-74.713V491.796v-74.713V306.051v-74.712H1309.574z M1309.574,420.196h-207.536v-20.754
		H911.105v20.754v71.6v22.829h190.933v-22.829h207.536v114.145h-207.536v-20.754H911.105v20.754v71.6v22.828h190.933v-22.828
		h207.536v114.145h-207.536v-20.754H911.105v20.754v71.6v22.829h190.933v-22.829h207.536v115.183h-207.536v-21.791H911.105v21.791
		v69.524H292.648L128.695,883.001V511.512V224.074h782.41v81.977v22.83h190.933v-22.83h207.536V420.196z"/>
</g>
</svg>
