<?xml version="1.0" encoding="utf-8"?>
<!-- Generated by IcoMoon.io -->
<!DOCTYPE svg PUBLIC "-//W3C//DTD SVG 1.1//EN" "http://www.w3.org/Graphics/SVG/1.1/DTD/svg11.dtd">
<svg version="1.1" xmlns="http://www.w3.org/2000/svg" xmlns:xlink="http://www.w3.org/1999/xlink" width="44" height="32" viewBox="0 0 44 32">
	<path d="M22.289 15.579c-0.533-0.444-1.331-0.71-2.397-0.799 0.976-0.178 1.598-0.444 2.042-0.799 0.355-0.355 0.533-0.976 0.533-1.775v-1.243c0-0.533 0-0.976-0.089-1.331-0.178-0.355-0.355-0.621-0.533-0.799-0.266-0.266-0.621-0.355-0.976-0.444-0.444-0.089-0.888-0.089-1.509-0.089h-7.367c-0.533 0-1.065 0-1.42 0.089-0.444 0.089-0.71 0.178-0.976 0.444-0.266 0.178-0.444 0.444-0.533 0.799s-0.178 0.799-0.178 1.331v0.799l2.663 0.533v-1.687h6.746c0.533 0 0.888 0.089 1.065 0.266s0.266 0.444 0.266 0.976v0.71c0 0.444-0.089 0.799-0.266 0.976s-0.533 0.266-1.065 0.266h-4.083v2.219h4.616c0.533 0 0.888 0.089 1.065 0.266 0.178 0.089 0.266 0.444 0.266 0.976v0.976c0 0.533-0.089 0.799-0.266 0.976s-0.533 0.266-1.065 0.266h-7.367v-1.953l-2.752 0.621v1.065c0 0.533 0 0.976 0.089 1.331 0.178 0.355 0.355 0.621 0.533 0.888 0.266 0.178 0.621 0.266 0.976 0.355 0.444 0.089 0.888 0.089 1.509 0.089h7.9c0.621 0 1.243 0 1.598-0.089 0.444-0.178 0.799-0.355 1.065-0.533 0.266-0.266 0.444-0.533 0.533-0.888 0.089-0.444 0.089-0.888 0.089-1.42v-1.42c-0-0.799-0.266-1.509-0.71-1.953zM40.485 3.241h-8.876v0.71h-1.331v-3.284h-29.38v24.143l6.48 6.568h22.901v-2.84h1.331v0.621h11.184v-25.918h-2.308zM40.485 9.188h-6.568v-0.621h-6.036v3.639h6.036v-0.71h6.568v3.55h-6.568v-0.621h-6.036v3.639h6.036v-0.71h6.568v3.55h-6.568v-0.621h-6.036v3.639h6.036v-0.71h6.568v3.639h-6.568v-0.71h-6.036v2.84h-19.528l-5.148-5.148v-20.77h24.676v3.284h6.036v-0.71h6.568v3.55z" fill="#000000" />
</svg>
