<?xml version="1.0" encoding="utf-8"?>
<!-- Generator: Adobe Illustrator 16.0.0, SVG Export Plug-In . SVG Version: 6.00 Build 0)  -->
<!DOCTYPE svg PUBLIC "-//W3C//DTD SVG 1.1//EN" "http://www.w3.org/Graphics/SVG/1.1/DTD/svg11.dtd">
<svg version="1.1" id="Layer_1" xmlns="http://www.w3.org/2000/svg" xmlns:xlink="http://www.w3.org/1999/xlink" x="0px" y="0px"
	 width="588.993px" height="430.7px" viewBox="23.007 12.86 588.993 430.7" enable-background="new 23.007 12.86 588.993 430.7"
	 xml:space="preserve">
<g>
	<path d="M177.797,314.819c-17.292,0-29.114-2.604-35.465-7.818c-6.358-5.208-9.534-15.444-9.534-30.699v-16.017l40.423-8.39v27.458
		h106.015c8.134,0,13.348-1.27,15.636-3.814c2.288-2.538,3.432-7.114,3.432-13.729V247.32c0-7.877-1.525-12.835-4.576-14.873
		c-3.051-2.032-7.883-3.051-14.491-3.051h-66.354v-32.034h59.109c9.658,0,15.379-2.288,17.16-6.864
		c1.014-2.538,1.525-6.227,1.525-11.059v-9.915c0-6.608-1.084-11.25-3.241-13.919c-2.163-2.669-7.312-4.004-15.444-4.004h-97.245
		v24.406l-38.897-7.246v-12.203c0-15.254,3.176-25.485,9.534-30.699c6.352-5.208,18.174-7.818,35.465-7.818h106.397
		c17.286,0,29.107,2.61,35.466,7.818c6.352,5.214,9.533,15.445,9.533,30.699v17.923c0,11.697-2.801,20.277-8.39,25.741
		c-5.595,5.47-15.51,9.343-29.745,11.631c30.508,3.051,45.762,16.398,45.762,40.042v20.593c0,15.767-3.182,26.57-9.533,32.415
		c-6.864,6.614-19.58,9.915-38.136,9.915H177.797z"/>
</g>
<path d="M579.329,48.752H612v33.131v49.236v33.131v49.236v33.131v49.696v32.67v51.077v32.67h-32.671h-92.03h-32.67v-9.203h-18.866
	v7.363v32.67h-33.131h-274.25h-13.344l-9.663-9.663l-72.704-72.704l-9.664-9.663v-13.804V172.993V45.531V12.86h32.671h346.954
	h33.131v32.67v13.344h18.866V48.752h32.67H579.329z M579.329,132.499V81.883h-92.03v10.123h-84.667V81.883V45.531H55.678v127.462
	v164.734l72.704,73.164h274.25V380.06v-9.663h84.667v9.663h92.03v-51.077h-92.03v10.124h-84.667v-10.124v-31.75v-9.203h84.667v9.203
	h92.03v-50.616h-92.03v10.123h-84.667v-10.123v-31.75v-9.203h84.667v9.203h92.03V164.25h-92.03v10.124h-84.667V164.25v-31.75v-9.203
	h84.667v9.203H579.329z"/>
</svg>
