<?xml version="1.0" encoding="utf-8"?>
<!-- Generator: Adobe Illustrator 16.0.0, SVG Export Plug-In . SVG Version: 6.00 Build 0)  -->
<!DOCTYPE svg PUBLIC "-//W3C//DTD SVG 1.1//EN" "http://www.w3.org/Graphics/SVG/1.1/DTD/svg11.dtd">
<svg version="1.1" id="Layer_1" xmlns="http://www.w3.org/2000/svg" xmlns:xlink="http://www.w3.org/1999/xlink" x="0px" y="0px"
	 width="588.993px" height="430.7px" viewBox="23.007 12.86 588.993 430.7" enable-background="new 23.007 12.86 588.993 430.7"
	 xml:space="preserve">
<g>
	<path d="M270.847,317.107v-45.762H121.739v-32.796l147.583-122.795h43.093v122.795h47.669v32.796h-47.669v45.762H270.847z
		 M270.847,238.549v-88.092l-107.541,88.092H270.847z"/>
</g>
<path d="M579.329,48.752H612v33.131v49.236v33.131v49.236v33.131v49.696v32.67v51.077v32.67h-32.671h-92.03h-32.67v-9.203h-18.866
	v7.363v32.67h-33.131h-274.25h-13.344l-9.663-9.663l-72.704-72.704l-9.664-9.663v-13.804V172.993V45.531V12.86h32.671h346.954
	h33.131v32.67v13.344h18.866V48.752h32.67H579.329z M579.329,132.499V81.883h-92.03v10.123h-84.667V81.883V45.531H55.678v127.462
	v164.734l72.704,73.164h274.25V380.06v-9.663h84.667v9.663h92.03v-51.077h-92.03v10.124h-84.667v-10.124v-31.75v-9.203h84.667v9.203
	h92.03v-50.616h-92.03v10.123h-84.667v-10.123v-31.75v-9.203h84.667v9.203h92.03V164.25h-92.03v10.124h-84.667V164.25v-31.75v-9.203
	h84.667v9.203H579.329z"/>
</svg>
