<?xml version="1.0" encoding="utf-8"?>
<!-- Generated by IcoMoon.io -->
<!DOCTYPE svg PUBLIC "-//W3C//DTD SVG 1.1//EN" "http://www.w3.org/Graphics/SVG/1.1/DTD/svg11.dtd">
<svg version="1.1" xmlns="http://www.w3.org/2000/svg" xmlns:xlink="http://www.w3.org/1999/xlink" width="32" height="32" viewBox="0 0 32 32">
	<path d="M14.758 11.761l4.568-1.627v-7.447l-4.568 1.627v7.447zM6.123 20.147v-15.832l-2.816-1.564v18.398l2.816-1.001zM6.748 4.44h7.384v15.644h-7.384v-15.644zM14.383 3.814l4.506-1.627-2.566-1.502h-8.135l-4.443 1.627 2.753 1.502h7.885zM18.2 14.39h7.384v15.269h-7.384v-15.269zM19.639 10.635l-4.255 1.564h-0.25l2.816 1.564h7.885l4.568-1.627-2.566-1.502h-8.198zM26.21 14.327v15.206l4.631-1.627v-15.269l-4.631 1.69zM17.574 14.265l-2.816-1.502v7.447l2.816 1.627v-7.572zM14.445 12.2v0 0zM4.183 24.34l-2.816-1.564v6.821l2.816 1.564v-6.821zM4.808 24.465h7.384v6.884h-7.384v-6.884zM17.387 29.596v-6.884l-4.568 1.627v6.884l4.568-1.627zM4.558 23.839h7.885l4.506-1.627-2.503-1.502h-8.198l-4.443 1.627 2.753 1.502z" fill="#000000" />
</svg>
