<?xml version="1.0" encoding="utf-8"?>
<!-- Generated by IcoMoon.io -->
<!DOCTYPE svg PUBLIC "-//W3C//DTD SVG 1.1//EN" "http://www.w3.org/Graphics/SVG/1.1/DTD/svg11.dtd">
<svg version="1.1" xmlns="http://www.w3.org/2000/svg" xmlns:xlink="http://www.w3.org/1999/xlink" width="32" height="32" viewBox="0 0 32 32">
	<path d="M28.563 20c0-0.063 0-0.125-0.063-0.188-0.313-0.188-0.688-0.438-1.063-0.438-0.563-0.063-1.188-0.438-1.375-0.875-0.313-0.75-1.375-0.75-1.5-1.625 0 0-0.125-0.063-0.188-0.063-0.688-0.063-0.75-0.75-1.188-1.125 1.063-0.438 2.063-0.75 3.063-1.125 0.375-0.125 0.938-0.188 1.063-0.438 0.25-0.5 0.625-0.5 1-0.563 0.125 0 0.25-0.313 0.375-0.438-0.188-0.063-0.313-0.188-0.5-0.188-0.188-0.063-0.438-0.063-0.625-0.125 0 0 0-0.063 0-0.125-1.438 0.438-2.875 0.875-4.313 1.313-0.188 0.063-0.375 0.25-0.563 0.438-0.313 0.25-0.625 0.438-1 0.188-0.5-0.313-0.875-0.688-1.375-1-1-0.813-2.063-1.625-3.063-2.375-0.188-0.125-0.438-0.25-0.688-0.313-0.313-0.063-0.688 0-1-0.125-0.375-0.125-0.75-0.313-1.063-0.5-0.875-0.438-1.688-0.875-2.563-1.313-0.5-0.25-0.938-0.438-1.438-0.688-0.375-0.125-0.688-0.25-1 0.188-0.25-0.5-0.5-0.875-0.75-1.313-0.563-1-0.563-1-0.875-1 0.125 0.813 0.063 1.625 0.813 2.313-0.5 0-0.875 0-1.188 0-0.5 0.063-0.938 0.25-1.375 0.188-1.125-0.063-2.125 0.25-3.188 0.5-0.25 0-0.438 0.25-0.625 0.375 0 0.063 0 0.125 0.063 0.125-0.188 0.063-0.375 0.063-0.5 0.063 0 0.625 0.563 1.063 1 0.938 0.938-0.375 1.938-0.438 2.875-0.688 0.813-0.25 1.75 0 2.688 0.125 0.75 0.063 1.313 0.438 1.625 1.188 0.063 0.063 0.063 0.188 0.063 0.313-0.125 0-0.188 0.063-0.313 0.063-0.75-0.063-0.75-0.063-0.875 0.75 0.438 0.063 0.813 0.125 1.188 0.188 0 0.375 0 0.813 0 1.25 0.063 0 0.125 0 0.188 0.063 0.188-0.313 0.438-0.563 0.75-0.938 0.563 0.938 1.188 1.813 1.75 2.688 0.5 0.875 1 1.813 1.5 2.813-0.563-0.125-0.625 0.375-0.75 0.688-0.438 0.75-0.875 0.813-1.438 0.125-0.375-0.438-0.75-0.813-1.125-1.25-0.375-0.5-0.688-1-0.625-1.688 0-0.375-0.063-0.75-0.125-1.25-0.313 0.25-0.5 0.438-0.75 0.688-0.063 0.188-0.313 0.563-0.188 0.688 0.375 0.438 0 0.938 0.125 1.5-0.188-0.125-0.313-0.25-0.375-0.313-0.5-0.313-1-0.625-1.438-0.938-0.375-0.188-0.813-0.375-1.063-0.625-0.375-0.5-0.875-0.75-1.438-1-0.313-0.063-0.563-0.313-0.813-0.5-0.313-0.188-0.625-0.313-0.938-0.5-0.063 0.063-0.063 0.063-0.125 0.125 0.063 0.375 0.188 0.75 0.25 1.188 0.063-0.063 0.063-0.063 0.125-0.125 0.125 0.188 0.313 0.375 0.438 0.5 0.063 0.125 0.188 0.188 0.313 0.25 0.125 0.063 0.25 0.063 0.375 0.125 0.75 0.563 1.438 1.125 2.188 1.688 0.625 0.563 1.313 1.125 1.875 1.75 0.313 0.438 0.625 0.75 1.125 0.875 0.938 0.25 1.688 0.875 2.5 1.375 0.063 0.063 0.125 0.25 0.063 0.375-0.313 1.125-0.75 2.125-0.875 3.25 0 0.563-0.313 1.125-0.438 1.625-0.125 0.313-0.25 0.625-0.375 0.938-0.063 0.25-0.063 0.438-0.125 0.75 0.875-0.125 1.125-0.688 1.313-1.313 0.375-1.125 0.813-2.25 1.25-3.375 0.125-0.375 0.375-0.688 0.563-1.063 0.188-0.375 0.625-0.625 1-0.5 1.5 0.438 3 0.625 4.563 0.625 0.875 0 1.75-0.063 2.563-0.313 1.875-0.438 3.688-0.938 5.563-1.5 0.5-0.125 0.938-0.313 1.563-0.563-0.375-0.25-0.625-0.438-0.938-0.625 0.188-0.063 0.313-0.125 0.438-0.188zM11.25 11c0.813 0.063 1.688-0.063 2.313 0.75-0.688-0.5-1.688 0-2.313-0.75zM12.75 13.687c-0.063-0.125-0.125-0.25-0.188-0.313 1.5 0 2.688 0.75 3.938 1.313 0.125 0.063 0.313 0.125 0.438 0.125 0.688-0.125 1.063 0.313 1.438 0.688 0.125 0.188 0.313 0.438-0.125 0.563-0.875 0.375-1.813 0.75-2.688 1.063-0.188 0.063-0.5 0-0.563-0.125-0.75-1.125-1.5-2.188-2.25-3.313zM15.188 20.312c-0.563-0.125-0.625-0.313-0.313-0.813 0.125-0.188 0.125-0.438 0.188-0.625-0.063-0.063-0.125-0.063-0.188-0.125 0.313-0.125 0.625-0.313 1-0.375 1.125-0.125 2.188-0.5 3.125-1.25 0.25 0.313 0.563 0.563 0.75 0.875 0.375 0.625 0 1.438-0.75 1.813-1.188 0.625-2.5 0.625-3.813 0.5zM19.063 21.937c0.625-0.625 1.375-1.125 1.75-1.875s0.375-1.688 0.563-2.438c0.063 0.188 0.125 0.563 0.25 0.875 0.063 0 0.063 0 0.063 0 0.063-0.188 0.125-0.438 0.188-0.688 1.125 0.813 2.188 1.625 3.313 2.5-2.063 0.625-3.938 1.813-6.125 1.625zM3.313 13.625c1.875 0.188 3.75-0.125 5.625-0.438 0-0.063 0-0.125 0-0.188s-3.75 0.25-5.688 0.375c0.063 0.063 0.063 0.125 0.063 0.25zM32 10.937c-0.063-0.063-0.063-0.125-0.125-0.25-1.188 0.375-2.313 1-3.438 1.563 0 0.063 0.063 0.125 0.063 0.188 1.188-0.5 2.313-1 3.5-1.5zM8.313 12.5c-1 0-2 0-2.938 0 0.938 0.313 1.938 0.375 2.938 0.188 0-0.063 0-0.125 0-0.188zM2.125 10.812c-0.75 0.25-1.375 0.563-2.125 0.813 0.438 0.313 1.813-0.25 2.125-0.813zM29 12.437c0 0.125 0.063 0.188 0.063 0.313 0.563-0.188 1.125-0.375 1.688-0.5 0-0.125-0.063-0.188-0.063-0.25-0.563 0.125-1.125 0.313-1.688 0.438zM6.063 3.25c-0.063 0-0.063 0-0.125 0 0.188 0.5 0.375 0.938 0.625 1.5 0.25-0.563 0-1.188-0.5-1.5zM1.75 10.687c0-0.063 0-0.125 0-0.25-0.375 0.063-0.688 0.125-1 0.125 0 0.063 0 0.188 0 0.25 0.313 0 0.688-0.063 1-0.125zM1.813 13.687c0.125 0.125 0.25 0.25 0.375 0.375 0.063 0 0.188-0.125 0.313-0.25-0.188-0.125-0.313-0.25-0.5-0.375 0 0-0.188 0.188-0.188 0.25zM11.25 11c0.625 0.75 1.625 0.25 2.313 0.75-0.625-0.813-1.5-0.688-2.313-0.75z" fill="#000000" />
</svg>
