<?xml version="1.0" encoding="utf-8"?>
<!-- Generated by IcoMoon.io -->
<!DOCTYPE svg PUBLIC "-//W3C//DTD SVG 1.1//EN" "http://www.w3.org/Graphics/SVG/1.1/DTD/svg11.dtd">
<svg version="1.1" xmlns="http://www.w3.org/2000/svg" xmlns:xlink="http://www.w3.org/1999/xlink" width="33" height="32" viewBox="0 0 33 32">
	<path d="M20.348 1.796c8.079 0.076 12.957 6.661 10.747 14.759-2.21 8.099-10.671 14.759-18.826 14.759-2.668 0-4.954-0.681-6.784-1.892l-1.143 1.211 0.991-1.362c-3.735-2.498-5.412-7.266-3.963-12.716 2.21-8.099 10.594-14.684 18.674-14.759l0.457-1.135-0.152 1.135zM19.433 6.943l-0.991 5.904c1.448 0.53 2.21 1.968 1.753 3.709-0.61 2.119-2.82 3.936-5.030 3.936-0.305 0-0.686-0.076-0.991-0.151-0.076-0.076-0.152-0.076-0.229-0.076l-4.497 4.844c1.143 0.681 2.591 1.060 4.192 1.060 5.335 0 10.823-4.314 12.271-9.612 1.372-5.071-1.448-9.31-6.479-9.613l-0 0zM16.003 12.847l2.134-5.904c-5.107 0.303-10.213 4.541-11.585 9.613-0.915 3.406 0 6.358 2.287 8.099l3.887-5.298-0.152-0.303c-0.381-0.681-0.534-1.514-0.305-2.498 0.457-1.741 1.982-3.179 3.735-3.709l-0 0zM16.994 13.604c-1.601 0-3.277 1.287-3.735 2.952-0.457 1.589 0.534 2.952 2.134 2.952 1.677 0 3.354-1.362 3.811-2.952 0.457-1.665-0.534-2.952-2.21-2.952v0zM3.199 16.556c-1.296 4.693 0.152 8.78 3.354 11.051l1.448-1.817c-2.591-1.968-3.735-5.374-2.668-9.234 1.524-5.828 7.47-10.596 13.262-10.899l0.838-2.044c-7.088 0.151-14.329 5.904-16.235 12.943v-0zM12.726 29.498c7.165 0 14.558-5.828 16.54-12.943 1.829-7.039-2.287-12.791-9.223-12.943l-0.381 2.044c5.716 0.303 9.070 5.071 7.47 10.899-1.601 5.979-7.851 10.823-13.796 10.823-1.905 0-3.506-0.454-4.802-1.287l-1.601 1.741c1.601 1.060 3.582 1.665 5.793 1.665l-0 0zM15.775 18.297c-0.991 0-1.524-0.833-1.296-1.741 0.229-0.984 1.22-1.741 2.21-1.741 0.991 0 1.524 0.757 1.296 1.741-0.305 0.908-1.296 1.741-2.21 1.741v0z" fill="#000000" />
</svg>
