<?xml version="1.0" encoding="utf-8"?>
<!-- Generator: Adobe Illustrator 16.0.0, SVG Export Plug-In . SVG Version: 6.00 Build 0)  -->
<!DOCTYPE svg PUBLIC "-//W3C//DTD SVG 1.1//EN" "http://www.w3.org/Graphics/SVG/1.1/DTD/svg11.dtd">
<svg version="1.1" id="Layer_1" xmlns="http://www.w3.org/2000/svg" xmlns:xlink="http://www.w3.org/1999/xlink" x="0px" y="0px"
	 width="226.38px" height="255.432px" viewBox="0 0 226.38 255.432" enable-background="new 0 0 226.38 255.432"
	 xml:space="preserve">
<g>
	<path fill-rule="evenodd" clip-rule="evenodd" fill="none" d="M117.768,70.119c0,16.159-0.075,32.319,0.05,48.478
		c0.032,4.246-1.545,6.138-5.874,5.935c-3.989-0.186-7.995,0.042-11.992-0.037c-2.843-0.057-4.48,1.111-5.744,3.761
		c-6.922,14.506-18.939,21.912-34.618,22.134c-16.402,0.231-28.609-7.638-35.927-22.533c-0.978-1.99-2.165-3.363-4.471-3.317
		c-4.49,0.089-9.024-0.115-13.456,0.46c-5.525,0.716-6.835,3.208-4.886,8.384c2.677,7.112,7.112,13.142,12.029,18.845
		c3.7,4.291,2.19,9.424-3.279,11.079c-1.11,0.336-2.373,0.321-3.372,0.839c-1.565,0.812-3.701,1.43-3.708,3.607
		c-0.007,1.938,1.828,2.661,3.363,3.274c4.393,1.755,6.003,5.179,5.619,9.593c-0.188,2.163,1.028,2.99,2.543,2.777
		c4.16-0.588,7.535,0.256,10.129,3.79c0.505,0.687,1.76,1.073,2.705,1.149c9.915,0.794,13.114,5.96,13.534,16.57
		c0.418,10.582,5.708,17.294,13.011,23.51c10.645,9.061,22.851,15.531,35.489,21.178c8.405,3.756,17.348,6.74,26.616,5.583
		c24.752-3.09,44.979-15.593,63.007-32.051c3.955-3.61,7.108-8.12,6.602-13.985c-0.253-2.933,0.441-5.59,1.296-8.306
		c1.964-6.234,4.807-12.075,8.038-17.712c7.009-12.225,12.675-25.246,22.646-35.689c3.848-4.029,6.464-9.283,8.509-14.608
		c1.699-4.429,0.604-6.548-4.018-7.69c-3.229-0.798-6.492-1.542-9.784-1.975c-5.848-0.768-8.486-3.417-8.537-9.803
		c-0.036-4.5,0.76-5.929,5.221-5.875c6.445,0.079,6.768-0.494,6.196-6.977c-0.16-1.821-0.527-3.623-0.742-5.441
		c-0.179-1.507-0.396-3.297,1.122-4.087c6.229-3.241,4.273-7.185,1.268-11.412c-2.859-4.02-2.908-7.706,0.648-11.691
		c3.043-3.411,2.22-8.279,0.584-11.667c-1.57-3.251-5.671-1.281-8.652-0.447c-1.252,0.35-2.526,0.946-3.54,1.747
		c-1.201,0.949-2.184,2.293-3.831,1.016c-1.776-1.378-3.048-3.264-3.055-5.496c-0.006-1.885,1.896-1.972,3.333-2.376
		c1.118-0.314,3.692-0.785,2.546-1.812c-2.816-2.526,0.146-2.12,0.938-2.286c4.425-0.932,8.703-2.246,12.702-4.372
		c1.323-0.704,2.902-1.542,2.747-3.226c-0.162-1.749-2.035-1.339-3.232-1.68c-1.96-0.558-3.812-1.203-1.972-3.657
		c1.606-2.142,2.672-4.253,1.092-6.845c-1.752-2.875-4.342-1.659-6.748-1.386c-0.992,0.112-1.995,0.125-2.988,0.225
		c-2.788,0.28-6.175-0.004-6.023,4.181c0.123,3.407,0.662,6.88,5.717,5.042c0.723-0.263,1.789-0.075,1.963,0.978
		c0.175,1.062-0.755,1.443-1.56,1.556c-1.479,0.208-2.982,0.238-4.475,0.34c-2.09,0.143-3.969,1.157-3.542,3.294
		c1.211,6.065-2.312,9.649-6.108,13.312c-3.381,3.262-7.006,2.485-8.006-2.179c-0.727-3.38-1.668-4.983-5.228-2.945
		c-2.476,1.417-2.977-0.174-2.678-2.195c0.323-2.183,1.482-4.063,2.733-5.836c1.729-2.454,2.486-4.643-0.554-6.795
		c-2.55-1.806-4.808-3.879-7.63-0.38c-1.025,1.272-2.861,2.809-4.191,1.041c-2.4-3.186-6.711-4.786-7.023-9.843
		c-0.27-4.381-5.418-8.32-8.678-7.054c-3.059,1.188-5.717,1.286-8.629,0.055c-5.438-2.299-0.246-5.251-0.436-7.869
		c-0.197-2.745,0.721-5.879-3.953-4.292c-1.793,0.608-2.65-0.559-3.641-1.826c-4.504-5.765-7.167-5.59-11.332,0.509
		c-1.477,2.162-2.33,4.394-1.711,7.039c0.307,1.312,0.682,2.801-0.733,3.628c-3.733,2.183-3.427,5.767-3.428,9.267
		C117.77,39.799,117.773,54.959,117.768,70.119z M105.83,58.095c0-13.99,0.019-27.98-0.008-41.971
		c-0.012-6.302-1.113-7.342-7.424-6.286c-7.87,1.316-15.796,2.424-23.383,5.102c-1.826,0.645-3.74,1.494-5.735,0.198
		c-6.163-4.001-11.84-2.417-15.498,4.216c-0.797,1.446-1.563,3.016-2.723,4.137c-8.211,7.933-16.936,15.36-23.899,24.504
		c-1.188,1.561-2.526,2.762-4.578,2.432c-3.985-0.642-4.033,1.575-3.525,4.474c0.18,1.025,1.88,2.683-0.658,3.07
		c-4.649,0.711-3.764,3.852-2.954,6.774c0.501,1.811,0.805,3.408,0.193,5.312c-3.21,9.978-5.547,20.152-5.877,30.678
		c-0.084,2.691-0.837,6.285,3.348,6.573c3.914,0.269,8.605,1.813,10.516-3.858c1.297-3.85,3.827-6.984,6.161-10.227
		c2.015-2.798,4.531-3.624,7.83-2.381c8.403,3.166,16.886,6.124,25.255,9.373c11.67,4.53,23.291,8.799,36.238,7.417
		c6.15-0.656,6.705-0.68,6.717-7.093C105.852,86.389,105.833,72.242,105.83,58.095z M62.284,138.629
		c6.502-0.27,14.644-3.567,19.866-12.237c2.585-4.293,1.933-6.036-2.794-7.796c-11.358-4.229-22.755-8.354-34.11-12.593
		c-8.789-3.281-11.107-1.921-12.375,7.474c-0.387,2.866,0.083,5.621,1.068,8.319C37.815,132.421,47.069,138.625,62.284,138.629z"/>
	<path fill-rule="evenodd" clip-rule="evenodd" d="M117.77,70.119c0.004-15.16,0-30.32,0.007-45.479
		c0.001-3.5-0.306-7.084,3.428-9.267c1.415-0.827,1.04-2.316,0.733-3.628c-0.619-2.645,0.234-4.876,1.711-7.039
		c4.165-6.099,6.828-6.273,11.332-0.509c0.99,1.268,1.848,2.435,3.641,1.826c4.674-1.587,3.756,1.546,3.953,4.292
		c0.189,2.618-5.003,5.57,0.436,7.869c2.912,1.231,5.57,1.132,8.629-0.055c3.26-1.266,8.408,2.672,8.678,7.054
		c0.313,5.057,4.623,6.657,7.023,9.843c1.33,1.768,3.166,0.231,4.191-1.041c2.822-3.499,5.08-1.425,7.63,0.38
		c3.04,2.153,2.283,4.342,0.554,6.795c-1.251,1.773-2.41,3.653-2.733,5.836c-0.299,2.021,0.202,3.612,2.678,2.195
		c3.56-2.038,4.501-0.435,5.228,2.945c1,4.664,4.625,5.44,8.006,2.179c3.797-3.663,7.319-7.247,6.108-13.312
		c-0.427-2.137,1.452-3.152,3.542-3.294c1.492-0.102,2.996-0.132,4.475-0.34c0.805-0.113,1.734-0.494,1.56-1.556
		c-0.174-1.053-1.24-1.241-1.963-0.978c-5.055,1.838-5.594-1.634-5.717-5.042c-0.151-4.185,3.235-3.9,6.023-4.181
		c0.993-0.1,1.996-0.112,2.988-0.225c2.406-0.273,4.996-1.489,6.748,1.386c1.58,2.592,0.515,4.703-1.092,6.845
		c-1.84,2.454,0.012,3.099,1.972,3.657c1.197,0.341,3.07-0.069,3.232,1.68c0.155,1.684-1.424,2.522-2.747,3.226
		c-3.999,2.126-8.277,3.44-12.702,4.372c-0.792,0.167-3.754-0.24-0.938,2.286c1.146,1.027-1.428,1.498-2.546,1.812
		c-1.438,0.404-3.339,0.491-3.333,2.376c0.007,2.232,1.278,4.118,3.055,5.496c1.647,1.277,2.63-0.067,3.831-1.016
		c1.014-0.801,2.288-1.396,3.54-1.747c2.981-0.834,7.082-2.804,8.652,0.447c1.636,3.388,2.459,8.256-0.584,11.667
		c-3.557,3.985-3.508,7.671-0.648,11.691c3.006,4.227,4.962,8.171-1.268,11.412c-1.518,0.79-1.301,2.58-1.122,4.087
		c0.215,1.818,0.582,3.62,0.742,5.441c0.571,6.483,0.249,7.055-6.196,6.977c-4.461-0.054-5.257,1.375-5.221,5.875
		c0.051,6.386,2.689,9.036,8.537,9.803c3.292,0.433,6.556,1.177,9.784,1.975c4.622,1.142,5.717,3.262,4.018,7.69
		c-2.045,5.325-4.661,10.579-8.509,14.608c-9.971,10.443-15.637,23.465-22.646,35.689c-3.231,5.637-6.074,11.478-8.038,17.712
		c-0.854,2.716-1.549,5.373-1.296,8.306c0.507,5.865-2.646,10.375-6.602,13.985c-18.028,16.458-38.255,28.961-63.007,32.051
		c-9.268,1.157-18.21-1.827-26.616-5.583c-12.638-5.646-24.844-12.117-35.489-21.178c-7.303-6.216-12.592-12.928-13.011-23.51
		c-0.419-10.61-3.619-15.776-13.534-16.57c-0.945-0.076-2.2-0.463-2.705-1.149c-2.595-3.534-5.97-4.378-10.129-3.79
		c-1.515,0.213-2.731-0.614-2.543-2.777c0.384-4.414-1.226-7.838-5.619-9.593c-1.535-0.613-3.37-1.337-3.363-3.274
		c0.008-2.178,2.144-2.796,3.708-3.607c1-0.518,2.262-0.503,3.372-0.839c5.469-1.655,6.979-6.788,3.279-11.079
		c-4.917-5.703-9.353-11.732-12.029-18.845c-1.949-5.177-0.639-7.668,4.886-8.384c4.431-0.575,8.966-0.371,13.456-0.46
		c2.306-0.046,3.493,1.327,4.471,3.317c7.318,14.896,19.525,22.765,35.927,22.533c15.679-0.222,27.696-7.628,34.618-22.134
		c1.264-2.649,2.901-3.817,5.744-3.761c3.997,0.079,8.003-0.149,11.992,0.037c4.329,0.203,5.906-1.689,5.874-5.935
		C117.692,102.438,117.768,86.278,117.77,70.119z M115.703,229.535c0,3.829-0.049,7.658,0.012,11.485
		c0.085,5.327,0.896,6.148,5.867,4.785c18.947-5.195,35.679-14.492,50.015-27.933c3.321-3.114,5.477-6.917,5.195-11.935
		c-0.254-4.54,1.558-8.779,3.208-12.986c2.746-7.002,6.58-13.441,10.045-20.074c0.438-0.839,1.029-2.074,0.717-2.728
		c-0.621-1.301-2.102-0.661-3.129-0.392c-4.595,1.206-9.264,0.799-13.914,0.84c-7.729,0.067-9.479,2.398-6.568,9.451
		c1.852,4.486,2.249,8.689-0.596,12.801c-2.358,3.411-2.977,9.023-9.377,7.57c-0.493-0.111-1.393,0.854-1.868,1.493
		c-2.268,3.051-5.032,4.995-8.923,5.81c-3.766,0.787-7.275,2.174-10.42-1.314c-0.367-0.408-1.288-0.583-1.885-0.479
		c-5.974,1.045-11.539,3.381-16.458,6.759c-3.339,2.292-1.638,6.479-1.887,9.856C115.566,224.864,115.705,227.204,115.703,229.535z
		 M165.74,141.579c1.496,0,3,0.096,4.487-0.014c18.396-1.357,29.976-21.196,21.896-37.282c-1.871-3.727-3.863-5.104-8.217-3.467
		c-14.154,5.318-28.445,10.271-42.723,15.253c-4.279,1.493-5.171,4.105-3.633,8.135C141.758,135.227,152.148,141.71,165.74,141.579z
		 M130.836,159.011c0.941-9.675-8.602-22.553-14.203-27.713c-2.976-2.741-6.4-2.317-9.459,0.375
		c-4.327,3.81-7.114,8.784-10.132,13.56c-2.923,4.625-3.869,9.879-4.198,15.256c-0.217,3.56,0.915,5.045,4.692,3.381
		c3.117-1.373,5.646-3.465,8.259-5.533c4.879-3.859,7.489-3.75,12.409,0.08c2.096,1.632,4.205,3.328,6.539,4.558
		C130.468,165.99,131.145,165.479,130.836,159.011z M92.743,215.012c0.643,2.931-1.594,7.157,2.338,9.629
		c3.661,2.303,7.738,3.837,11.925,4.98c1.514,0.414,2.879,0.525,3.607-1.465c2.748-7.52-0.51-16.215-7.548-19.864
		C92.924,203.036,92.74,203.146,92.743,215.012z M73.816,202.05c-0.332,7.04-1.043,12.471,6.316,15.536
		c8.505,3.543,8.281,4.045,8.529-5.476c0.158-6.073,0.372-11.792-6.976-14.03c-2.659-0.811-4.808-5.125-7.014-3.703
		C72.095,196.038,74.153,200.241,73.816,202.05z M92.738,236.54c-0.657,3.822,1.241,6.407,5.517,7.418
		c1.609,0.379,3.152,1.027,4.753,1.451c7.068,1.868,8.748,0.299,7.735-6.925c-0.323-2.312-1.528-3.521-3.619-4.189
		c-2.68-0.856-5.364-1.716-7.994-2.713C93.15,229.314,92.713,229.588,92.738,236.54z M36.36,169.934
		c3.34,4.16,3.566,8.803,5.45,12.828c1.541,3.293,4.466,3.68,7.576,3.594c1.983-0.055,3.826-0.753,3.979-2.977
		c0.228-3.309,0.139-6.646,0.055-9.968c-0.039-1.503-1.005-2.518-2.522-2.625C46.326,170.463,41.747,170.242,36.36,169.934z
		 M50.435,190.818c-1.339,0.218-3.886-0.748-3.766,1.686c0.153,3.094,0.771,6.915,4.669,7.313c6.321,0.645,10.84,3.631,14.388,8.654
		c1.18,1.672,2.546,1.796,2.879-0.655c0.268-1.968,0.565-4.154-0.619-5.844C63.725,195.895,59.321,189.888,50.435,190.818z
		 M68.443,194.147c0.455-6.707,0.75-12.443-0.091-18.097c-0.545-3.667-7.272-6.392-9.541-4.285
		c-1.945,1.806-1.553,14.091,0.821,15.495C62.573,189,65.288,190.975,68.443,194.147z M73.689,226.602
		c0.204,1.991-0.728,4.74,1.566,6.227c3.199,2.072,6.643,3.788,10.072,5.473c2.178,1.07,2.898-0.282,3.23-2.281
		c1.193-7.18,0.066-8.976-8.654-13.346C73.791,219.611,73.679,219.676,73.689,226.602z M57.793,215.111
		c-1.384,5.626,3.188,8.211,7.168,11.212c2.79,2.102,3.22,0.974,3.873-1.955c1.575-7.066-4.208-9.745-7.586-13.877
		c-0.663-0.81-1.116-2.354-2.612-1.629c-1.01,0.49-0.777,1.719-0.83,2.678C57.751,212.527,57.793,213.52,57.793,215.111z"/>
	<path fill-rule="evenodd" clip-rule="evenodd" d="M105.832,58.095c0.001,14.147,0.02,28.294-0.006,42.442
		c-0.012,6.413-0.567,6.437-6.717,7.093c-12.947,1.382-24.568-2.887-36.238-7.417c-8.37-3.249-16.853-6.207-25.255-9.373
		c-3.299-1.243-5.815-0.417-7.83,2.381c-2.334,3.242-4.864,6.377-6.161,10.227c-1.91,5.671-6.602,4.127-10.516,3.858
		c-4.185-0.288-3.432-3.882-3.348-6.573c0.33-10.526,2.667-20.7,5.877-30.678c0.612-1.903,0.309-3.5-0.193-5.312
		c-0.81-2.922-1.695-6.063,2.954-6.774c2.538-0.388,0.837-2.045,0.658-3.07c-0.508-2.899-0.46-5.116,3.525-4.474
		c2.051,0.33,3.389-0.871,4.578-2.432c6.964-9.144,15.688-16.571,23.899-24.504c1.159-1.121,1.925-2.691,2.723-4.137
		c3.657-6.633,9.335-8.217,15.498-4.216c1.996,1.296,3.91,0.447,5.735-0.198c7.587-2.678,15.514-3.785,23.383-5.102
		c6.311-1.056,7.412-0.016,7.424,6.286C105.849,30.114,105.83,44.104,105.832,58.095z"/>
	<path fill-rule="evenodd" clip-rule="evenodd" d="M62.284,138.629c-15.215-0.004-24.469-6.208-28.346-16.833
		c-0.985-2.698-1.455-5.453-1.068-8.319c1.268-9.396,3.587-10.755,12.375-7.474c11.355,4.239,22.752,8.365,34.11,12.593
		c4.727,1.76,5.38,3.503,2.794,7.796C76.928,135.062,68.787,138.36,62.284,138.629z"/>
	<path fill-rule="evenodd" clip-rule="evenodd" fill="none" d="M115.703,229.535c0.002-2.331-0.137-4.671,0.034-6.989
		c0.249-3.377-1.452-7.564,1.887-9.856c4.919-3.378,10.484-5.714,16.458-6.759c0.597-0.104,1.518,0.07,1.885,0.479
		c3.145,3.488,6.654,2.102,10.42,1.314c3.891-0.814,6.655-2.759,8.923-5.81c0.476-0.64,1.375-1.604,1.868-1.493
		c6.4,1.453,7.019-4.159,9.377-7.57c2.845-4.111,2.447-8.314,0.596-12.801c-2.911-7.053-1.161-9.384,6.568-9.451
		c4.65-0.041,9.319,0.366,13.914-0.84c1.027-0.27,2.508-0.909,3.129,0.392c0.313,0.653-0.279,1.889-0.717,2.728
		c-3.465,6.633-7.299,13.072-10.045,20.074c-1.65,4.207-3.462,8.446-3.208,12.986c0.281,5.018-1.874,8.82-5.195,11.935
		c-14.336,13.44-31.067,22.737-50.015,27.933c-4.972,1.363-5.782,0.542-5.867-4.785
		C115.654,237.193,115.703,233.364,115.703,229.535z"/>
	<path fill-rule="evenodd" clip-rule="evenodd" fill="none" d="M165.74,141.579c-13.592,0.132-23.982-6.352-28.189-17.375
		c-1.538-4.03-0.646-6.643,3.633-8.135c14.277-4.982,28.568-9.935,42.723-15.253c4.354-1.636,6.346-0.259,8.217,3.467
		c8.08,16.086-3.5,35.925-21.896,37.282C168.74,141.674,167.236,141.579,165.74,141.579z"/>
	<path fill-rule="evenodd" clip-rule="evenodd" fill="none" d="M130.836,159.011c0.309,6.468-0.368,6.979-6.094,3.963
		c-2.334-1.229-4.443-2.926-6.539-4.558c-4.92-3.83-7.529-3.939-12.409-0.08c-2.613,2.068-5.142,4.16-8.259,5.533
		c-3.777,1.664-4.909,0.179-4.692-3.381c0.329-5.377,1.275-10.631,4.198-15.256c3.018-4.775,5.806-9.75,10.132-13.56
		c3.059-2.692,6.483-3.116,9.459-0.375C122.234,136.458,131.777,149.336,130.836,159.011z"/>
	<path fill-rule="evenodd" clip-rule="evenodd" fill="none" d="M92.743,215.012c-0.002-11.866,0.181-11.977,10.322-6.72
		c7.039,3.649,10.296,12.345,7.548,19.864c-0.729,1.99-2.094,1.879-3.607,1.465c-4.187-1.144-8.264-2.678-11.925-4.98
		C91.148,222.169,93.385,217.943,92.743,215.012z"/>
	<path fill-rule="evenodd" clip-rule="evenodd" fill="none" d="M73.816,202.05c0.337-1.81-1.721-6.013,0.856-7.673
		c2.206-1.422,4.355,2.893,7.014,3.703c7.347,2.238,7.134,7.957,6.976,14.03c-0.248,9.521-0.024,9.019-8.529,5.476
		C72.773,214.521,73.484,209.09,73.816,202.05z"/>
	<path fill-rule="evenodd" clip-rule="evenodd" fill="none" d="M92.738,236.54c-0.024-6.951,0.413-7.226,6.392-4.958
		c2.63,0.997,5.314,1.856,7.994,2.713c2.091,0.668,3.296,1.878,3.619,4.189c1.013,7.224-0.667,8.793-7.735,6.925
		c-1.601-0.424-3.144-1.072-4.753-1.451C93.979,242.947,92.081,240.362,92.738,236.54z"/>
	<path fill-rule="evenodd" clip-rule="evenodd" fill="none" d="M36.36,169.934c5.387,0.308,9.966,0.529,14.539,0.853
		c1.517,0.107,2.483,1.122,2.522,2.625c0.084,3.321,0.173,6.659-0.055,9.968c-0.153,2.224-1.996,2.922-3.979,2.977
		c-3.11,0.086-6.036-0.301-7.576-3.594C39.926,178.737,39.7,174.094,36.36,169.934z"/>
	<path fill-rule="evenodd" clip-rule="evenodd" fill="none" d="M50.435,190.818c8.886-0.93,13.291,5.077,17.552,11.154
		c1.184,1.689,0.886,3.876,0.619,5.844c-0.333,2.451-1.699,2.327-2.879,0.655c-3.547-5.023-8.067-8.01-14.388-8.654
		c-3.899-0.398-4.516-4.22-4.669-7.313C46.548,190.07,49.096,191.036,50.435,190.818z"/>
	<path fill-rule="evenodd" clip-rule="evenodd" fill="none" d="M68.443,194.147c-3.155-3.172-5.87-5.147-8.811-6.887
		c-2.374-1.404-2.767-13.689-0.821-15.495c2.269-2.106,8.995,0.618,9.541,4.285C69.193,181.704,68.898,187.44,68.443,194.147z"/>
	<path fill-rule="evenodd" clip-rule="evenodd" fill="none" d="M73.689,226.602c-0.01-6.926,0.102-6.991,6.215-3.928
		c8.72,4.37,9.848,6.166,8.654,13.346c-0.332,1.999-1.052,3.352-3.23,2.281c-3.429-1.685-6.874-3.4-10.072-5.473
		C72.961,231.342,73.893,228.593,73.689,226.602z"/>
	<path fill-rule="evenodd" clip-rule="evenodd" fill="none" d="M57.793,215.111c0-1.591-0.042-2.584,0.012-3.571
		c0.053-0.959-0.18-2.188,0.83-2.678c1.497-0.726,1.95,0.819,2.612,1.629c3.379,4.132,9.161,6.811,7.586,13.877
		c-0.653,2.929-1.083,4.057-3.873,1.955C60.98,223.322,56.409,220.737,57.793,215.111z"/>
</g>
</svg>
