<?xml version="1.0" encoding="utf-8"?>
<!-- Generated by IcoMoon.io -->
<!DOCTYPE svg PUBLIC "-//W3C//DTD SVG 1.1//EN" "http://www.w3.org/Graphics/SVG/1.1/DTD/svg11.dtd">
<svg version="1.1" xmlns="http://www.w3.org/2000/svg" xmlns:xlink="http://www.w3.org/1999/xlink" width="29" height="32" viewBox="0 0 29 32">
	<path d="M14.736 9.114c0-1.855 0-3.651 0-5.507 0-0.419-0.060-0.838 0.359-1.077 0.18-0.12 0.18-0.299 0.12-0.419-0.060-0.359 0-0.599 0.18-0.898 0.539-0.718 0.838-0.718 1.377-0.060 0.12 0.18 0.239 0.299 0.419 0.239 0.598-0.18 0.479 0.18 0.479 0.539 0.060 0.299-0.599 0.658 0.060 0.958 0.359 0.12 0.658 0.12 1.077-0.060 0.359-0.12 0.958 0.359 1.018 0.898 0.060 0.599 0.539 0.778 0.838 1.137 0.18 0.239 0.359 0.060 0.539-0.12 0.299-0.419 0.599-0.18 0.898 0.060 0.359 0.239 0.239 0.539 0.060 0.838-0.18 0.18-0.299 0.419-0.359 0.658 0 0.239 0.060 0.479 0.359 0.299 0.419-0.239 0.539-0.060 0.599 0.359 0.12 0.539 0.598 0.658 0.958 0.239 0.479-0.419 0.898-0.838 0.778-1.616-0.060-0.239 0.18-0.359 0.419-0.359 0.18 0 0.359-0.060 0.539-0.060 0.060 0 0.18-0.060 0.18-0.18s-0.18-0.18-0.239-0.12c-0.599 0.239-0.658-0.18-0.718-0.599 0-0.539 0.419-0.479 0.778-0.539 0.12 0 0.239 0 0.359 0 0.239-0.060 0.599-0.18 0.778 0.18 0.18 0.299 0.060 0.539-0.12 0.838-0.239 0.239 0 0.359 0.239 0.419 0.12 0.060 0.359 0 0.359 0.18 0.060 0.239-0.12 0.299-0.299 0.419-0.479 0.239-1.017 0.419-1.556 0.479-0.060 0.060-0.419 0-0.12 0.299 0.18 0.12-0.12 0.18-0.299 0.239-0.18 0.060-0.359 0.060-0.359 0.239 0 0.299 0.12 0.539 0.359 0.718 0.18 0.12 0.299-0.060 0.479-0.18 0.12-0.060 0.239-0.12 0.419-0.18 0.359-0.12 0.838-0.359 1.018 0.060s0.299 0.958-0.060 1.377c-0.419 0.479-0.419 0.958-0.060 1.436 0.359 0.479 0.539 0.958-0.18 1.377-0.18 0.060-0.18 0.299-0.12 0.479 0 0.239 0.060 0.419 0.060 0.658 0.060 0.778 0.060 0.838-0.718 0.838-0.539 0-0.658 0.18-0.658 0.718 0 0.718 0.359 1.077 1.018 1.137 0.419 0.060 0.838 0.18 1.197 0.239 0.539 0.18 0.718 0.419 0.479 0.958-0.239 0.599-0.539 1.257-1.018 1.736-1.197 1.257-1.855 2.813-2.693 4.309-0.419 0.658-0.778 1.377-1.017 2.095-0.060 0.359-0.18 0.658-0.12 1.018 0.060 0.718-0.299 1.257-0.778 1.676-2.215 1.975-4.609 3.472-7.601 3.831-1.137 0.18-2.155-0.18-3.172-0.658-1.556-0.658-2.993-1.436-4.309-2.514-0.838-0.778-1.496-1.556-1.556-2.873-0.060-1.257-0.419-1.855-1.616-1.975-0.12 0-0.239-0.060-0.299-0.12-0.359-0.419-0.718-0.539-1.257-0.479-0.18 0.060-0.299-0.060-0.299-0.299 0.060-0.539-0.12-0.958-0.658-1.197-0.18-0.060-0.419-0.12-0.419-0.359 0-0.299 0.239-0.359 0.479-0.419 0.12-0.060 0.239-0.060 0.359-0.12 0.658-0.18 0.838-0.838 0.419-1.317-0.599-0.718-1.137-1.436-1.436-2.274-0.239-0.658-0.060-0.958 0.599-1.018 0.539-0.060 1.077-0.060 1.616-0.060 0.239 0 0.419 0.18 0.539 0.419 0.838 1.796 2.334 2.693 4.309 2.693 1.855 0 3.292-0.898 4.13-2.634 0.18-0.359 0.359-0.479 0.718-0.479 0.479 0 0.958 0 1.436 0 0.539 0 0.718-0.18 0.718-0.718-0.060-1.915 0-3.89 0-5.806zM14.437 28.267c0 0.479 0 0.898 0 1.377 0.060 0.658 0.12 0.718 0.718 0.599 2.274-0.658 4.309-1.796 6.045-3.412 0.359-0.359 0.658-0.778 0.599-1.436 0-0.539 0.18-1.018 0.419-1.556 0.299-0.838 0.778-1.616 1.197-2.394 0.060-0.12 0.12-0.239 0.060-0.299-0.060-0.18-0.239-0.12-0.359-0.060-0.539 0.12-1.137 0.060-1.676 0.12-0.958 0-1.137 0.239-0.778 1.137 0.18 0.539 0.239 1.018-0.060 1.496-0.299 0.419-0.359 1.077-1.137 0.898-0.060 0-0.18 0.12-0.239 0.18-0.299 0.419-0.599 0.599-1.077 0.718s-0.898 0.239-1.257-0.18c-0.060 0-0.12-0.060-0.239-0.060-0.718 0.18-1.377 0.419-1.975 0.838-0.359 0.299-0.18 0.778-0.239 1.197 0 0.239 0 0.539 0 0.838zM20.482 17.673c0.18 0 0.359 0 0.539 0 2.215-0.12 3.591-2.514 2.634-4.489-0.239-0.419-0.479-0.599-1.018-0.419-1.676 0.658-3.412 1.257-5.088 1.855-0.539 0.18-0.658 0.479-0.479 0.958 0.539 1.377 1.796 2.155 3.412 2.095zM16.292 19.768c0.12-1.137-1.017-2.693-1.736-3.292-0.359-0.359-0.778-0.299-1.137 0-0.479 0.479-0.838 1.077-1.197 1.676-0.359 0.539-0.479 1.137-0.479 1.796-0.060 0.419 0.060 0.599 0.539 0.419 0.359-0.18 0.658-0.419 1.018-0.658 0.539-0.479 0.898-0.479 1.436 0 0.299 0.18 0.539 0.419 0.838 0.539 0.658 0.359 0.718 0.299 0.718-0.479zM11.684 26.531c0.12 0.359-0.18 0.838 0.299 1.137 0.419 0.299 0.958 0.479 1.436 0.599 0.18 0.060 0.359 0.060 0.419-0.18 0.359-0.898-0.060-1.915-0.898-2.394-1.197-0.599-1.257-0.599-1.257 0.838zM9.409 24.975c0 0.838-0.12 1.496 0.778 1.855 1.018 0.419 1.018 0.479 1.018-0.658 0-0.718 0.060-1.436-0.838-1.676-0.299-0.12-0.599-0.658-0.838-0.479-0.299 0.239-0.060 0.718-0.12 0.958zM11.684 29.105c-0.060 0.479 0.18 0.778 0.658 0.898 0.239 0.060 0.419 0.12 0.599 0.18 0.838 0.18 1.077 0 0.898-0.838 0-0.299-0.18-0.419-0.419-0.539-0.299-0.060-0.658-0.18-0.958-0.299-0.718-0.299-0.778-0.239-0.778 0.599zM4.92 21.084c0.419 0.539 0.419 1.077 0.658 1.556 0.18 0.419 0.539 0.419 0.898 0.419 0.239 0 0.479-0.060 0.479-0.359 0.060-0.359 0.060-0.778 0-1.197 0-0.18-0.12-0.299-0.299-0.299-0.539-0.060-1.077-0.060-1.736-0.12zM6.596 23.598c-0.12 0.060-0.419-0.060-0.419 0.239 0 0.359 0.060 0.778 0.539 0.838 0.778 0.060 1.317 0.419 1.736 1.077 0.12 0.18 0.299 0.18 0.359-0.12 0-0.239 0.060-0.479-0.060-0.658-0.539-0.778-1.077-1.496-2.155-1.377zM8.811 24.017c0-0.838 0.060-1.496-0.060-2.215-0.060-0.419-0.838-0.718-1.137-0.479-0.239 0.239-0.18 1.676 0.12 1.855 0.359 0.18 0.658 0.419 1.077 0.838zM9.409 27.908c0 0.239-0.060 0.599 0.18 0.718 0.419 0.299 0.838 0.479 1.197 0.658 0.299 0.18 0.359 0 0.419-0.239 0.12-0.898 0-1.077-1.018-1.616-0.778-0.359-0.778-0.359-0.778 0.479zM7.494 26.531c-0.18 0.658 0.419 0.958 0.898 1.317 0.299 0.299 0.359 0.12 0.419-0.239 0.18-0.838-0.479-1.137-0.898-1.616-0.060-0.12-0.12-0.299-0.299-0.239-0.12 0.060-0.12 0.239-0.12 0.359s0 0.239 0 0.419zM13.3 7.677c0 1.676 0 3.352 0 5.088 0 0.778-0.12 0.778-0.838 0.838-1.556 0.18-2.933-0.359-4.369-0.898-0.958-0.359-1.975-0.718-2.993-1.137-0.419-0.12-0.718 0-0.958 0.299-0.299 0.419-0.599 0.778-0.718 1.257-0.239 0.658-0.838 0.479-1.317 0.419-0.479 0-0.359-0.419-0.359-0.778 0-1.257 0.299-2.454 0.718-3.651 0.060-0.239 0-0.419-0.060-0.658-0.060-0.359-0.18-0.718 0.359-0.838 0.299 0 0.12-0.239 0.060-0.359-0.060-0.359-0.060-0.599 0.419-0.539 0.299 0.060 0.419-0.12 0.599-0.299 0.838-1.077 1.855-1.975 2.873-2.933 0.12-0.12 0.18-0.299 0.299-0.479 0.419-0.778 1.137-1.018 1.855-0.539 0.239 0.18 0.479 0.060 0.718 0 0.898-0.299 1.855-0.479 2.813-0.599 0.718-0.12 0.898 0 0.898 0.718 0 1.676 0 3.412 0 5.088zM8.033 17.314c-1.796 0-2.933-0.718-3.412-1.975-0.12-0.359-0.18-0.658-0.12-1.018 0.18-1.137 0.419-1.317 1.496-0.898 1.377 0.479 2.753 1.018 4.070 1.496 0.599 0.239 0.658 0.419 0.359 0.958-0.598 1.018-1.616 1.436-2.394 1.436z" fill="#000000" />
</svg>
