<?xml version="1.0" encoding="utf-8"?>
<!-- Generator: Adobe Illustrator 18.1.1, SVG Export Plug-In . SVG Version: 6.00 Build 0)  -->
<svg version="1.1" id="Layer_1" xmlns="http://www.w3.org/2000/svg" xmlns:xlink="http://www.w3.org/1999/xlink" x="0px" y="0px"
	 viewBox="0 0 15.5 18" enable-background="new 0 0 15.5 18" xml:space="preserve">
<path fill="#010101" d="M5,15.3C5,16.8,6.2,18,7.8,18c1.5,0,2.7-1.2,2.7-2.7c0-1.5-1.2-2.7-2.7-2.7C6.2,12.6,5,13.8,5,15.3"/>
<path fill="#010101" d="M7.8,9.4c-2.6,0-4.8,1.8-5.3,4.2c-0.1-0.4-0.1-0.8-0.1-1.2c0-3,2.4-5.5,5.5-5.5c3,0,5.5,2.4,5.5,5.5
	c0,0.4,0,0.8-0.1,1.2C12.5,11.2,10.3,9.4,7.8,9.4"/>
<path fill="#010101" d="M7.8,3.4C4.1,3.4,1,6,0.2,9.5C0.1,8.9,0,8.3,0,7.7C0,3.5,3.5,0,7.8,0s7.8,3.5,7.8,7.7c0,0.6-0.1,1.2-0.2,1.7
	C14.5,6,11.4,3.4,7.8,3.4"/>
</svg>
