<?xml version="1.0" encoding="utf-8"?>
<!-- Generator: Adobe Illustrator 18.1.1, SVG Export Plug-In . SVG Version: 6.00 Build 0)  -->
<svg version="1.1" id="Layer_1" xmlns="http://www.w3.org/2000/svg" xmlns:xlink="http://www.w3.org/1999/xlink" x="0px" y="0px"
	 viewBox="-24 13 563 768" enable-background="new -24 13 563 768" xml:space="preserve">
<g id="icomoon-ignore">
</g>
<path d="M383.2,401.3c-2.3-1.4-4.7-2.8-7-4.1c24.4-15,46.6-34.8,65.5-59c48.9-62.5,74.7-150.2,74.7-253.6c0-22.2-18-31.3-40.3-31.3
	s-40.3,9-40.3,31.3c0,49.8-6.9,94.6-20,132.8L87.9,67.2c-6.5-13.5-20.3-13.9-36.3-13.9c-22.2,0-40.3,9-40.3,31.3
	c0,103.1,26,190.8,75.1,253.4c16.7,21.3,35.9,39.2,56.9,53.4c-6,3.1-11.9,6.4-17.7,10C33,459.5-12.3,573.2,1.4,713.3
	c2,20.8,19.6,22,40,22c1.3,0,2.6-0.1,4-0.2c22.1-2.2,38.3-7.5,36.2-29.7c-4.2-42.4-1.8-81.3,6.5-115.5l348.7,133.6
	c5.3,14,18.2,10.4,34.1,11.8c22.2,1.9,41.7-0.3,43.6-22.4C526.8,573.5,478.9,459.9,383.2,401.3L383.2,401.3z M423.4,581.7
	L164.3,472.6c1.4-0.9,2.7-2,4.1-2.9c52.5-32.9,118.7-32.8,172.7,0.3C380.6,494.1,408.5,532.8,423.4,581.7L423.4,581.7z M264.4,349.2
	c-57.1,0-117.2-39.1-149.2-122.5l226.7,96.9C318.3,340.3,291.9,349.2,264.4,349.2L264.4,349.2z M378.3,288.5
	c-4.7,6.1-9.8,11.7-15,16.9L105.1,195c-7.6-28.5-12.2-61.2-13-98.2l314.5,144.1C398.7,258.5,389.3,274.5,378.3,288.5L378.3,288.5z
	 M142.1,490.5l288.7,121.6c4.7,25.8,6.1,54,4.2,83.8L95.2,565.8C105.7,535.8,121.5,510.3,142.1,490.5L142.1,490.5z"/>
</svg>
