<?xml version="1.0" encoding="utf-8"?>
<!-- Generator: Adobe Illustrator 16.0.0, SVG Export Plug-In . SVG Version: 6.00 Build 0)  -->
<!DOCTYPE svg PUBLIC "-//W3C//DTD SVG 1.1//EN" "http://www.w3.org/Graphics/SVG/1.1/DTD/svg11.dtd">
<svg version="1.1" xmlns="http://www.w3.org/2000/svg" xmlns:xlink="http://www.w3.org/1999/xlink" x="0px" y="0px" width="29.33px"
	 height="29.331px" viewBox="1 1.306 29.33 29.331" enable-background="new 1 1.306 29.33 29.331" xml:space="preserve">
<g id="Layer_1">
	<path d="M17.723,14.852L17.723,14.852L17.723,14.852z"/>
	<path d="M15.694,1.306C7.601,1.306,1,7.907,1,16s6.601,14.637,14.694,14.637c8.093,0,14.636-6.544,14.636-14.637
		S23.787,1.306,15.694,1.306z M13.168,28.398 M6.508,26.048c-2.755-2.468-4.477-6.084-4.477-10.045
		c0-7.519,6.142-13.661,13.661-13.661s13.603,6.142,13.603,13.661c0,7.519-6.084,13.604-13.603,13.604l0.002-0.004
		c-2.353,0-4.592-0.573-6.544-1.664l-1.384-0.861L6.508,26.048z M15.923,24.896c-0.517,0-0.746-0.344-0.459-0.804
		c0.459-0.688,0.917-1.491,1.491-2.124c1.32-1.435,0.805-1.435,2.699-0.804c0.459,0.172,0.918,0.287,1.318-0.058
		c0.346-0.287,0.689-0.746,1.205-0.344c0.115,0.057,0.174-0.057,0.287-0.057c0.172-0.115,0.459-0.172,0.518-0.287
		c0.287-0.287,0.977-0.23,0.861-0.918c-0.057-0.115,0.172-0.23,0.287-0.23c0.344,0,0.689-0.057,0.918,0.287
		c0.115,0.115,0.23,0.287,0.459,0.172c0.057-0.229-0.287-0.344-0.115-0.573c0.23-0.345-0.057-0.287-0.23-0.287
		c-0.459,0-0.918,0.172-1.434,0.229c-0.287,0.058-0.689-0.172-0.689,0.459c0,0.115-0.23,0.23-0.459,0.287
		c-1.205,0.287-2.412,0.518-3.674,0.518c-0.287,0-0.459-0.115-0.574-0.344c0.344-0.23,0.689-0.23,1.033-0.287
		c0.631,0,1.205-0.23,1.492-0.861c0.113-0.172,0.287-0.344,0.516-0.287c0.861,0.057,1.723-0.115,2.584-0.23
		c0.746-0.114,1.377-0.688,2.123-0.918c0,0,0.057-0.115,0.057-0.172c0.115-0.688,0.689-0.574,1.092-0.631
		c0.23-0.057,0.344-0.057,0.344-0.287c0-0.172,0.172-0.459-0.23-0.459c-0.344-0.057-0.631-0.115-0.746-0.517
		c-0.057-0.287-0.285-0.517-0.459-0.804c-0.285,0.344-0.744-0.057-0.975,0.172c-0.518,0.517-1.148,0.918-1.148,1.722
		c0,0.115-0.172,0.115-0.057,0.229c0.402,0.805,0.172,0.918-0.518,1.148c-1.033,0.287-2.123,0.057-3.213,0.172
		c-0.174,0-0.346,0.057-0.459-0.057c0.057-0.23,0.172-0.402,0.285-0.574c0.174-0.287,0.518-0.518,0.861-0.402
		c0.518,0.172,0.977,0.058,1.436-0.057c0.861-0.287,1.264-1.378,0.746-2.066c-0.115-0.057-0.172-0.115-0.057-0.23
		s0.172-0.172,0.287-0.057c0.115,0.172,0.287,0.172,0.344,0c0.115-0.402,0.518-0.459,0.861-0.689
		c0.172-0.057,0.344-0.287,0.172-0.402c-0.402-0.172-0.344-0.574-0.689-0.804c-0.287-0.172-0.057-0.459,0.057-0.689
		c0-0.057,0.057-0.287,0.115-0.172c0.518,0.344,1.033-0.057,1.551,0.057c0.172,0,0.4,0.057,0.4-0.172
		c0.059-0.172-0.229-0.172-0.344-0.23c-0.344-0.23-0.574-0.344-0.172-0.746c0.574-0.574,0.518-0.688-0.115-1.378
		c-0.344,0.402-0.459,0.459-0.459,0.23c-0.113-0.459-0.574-0.517-0.859-0.804c-0.059-0.057-0.174-0.057-0.346,0.057
		c-0.516,0.344-0.803,0.23-1.09-0.344c-0.115-0.23-0.23-0.287-0.402-0.115c-0.344,0.287-0.518,0.746-1.033,0.517
		c-0.057,0-0.115,0.057-0.115,0.115c0.057,0.287-0.402,0.517-0.115,0.918c0.059,0.057,0.115,0.402-0.172,0.517
		c-0.229,0.057-0.287-0.115-0.402-0.23c-0.172-0.172-0.229-0.344,0.059-0.517c0.229-0.172,0.344-0.459,0.229-0.746
		c-0.057-0.172,0-0.23,0.172-0.23c0.574-0.057,0.977-0.402,1.092-0.918c0.057-0.23,0.172-0.344,0.344-0.287
		c0.402,0.23,0.861,0.057,1.264,0.402c0.287,0.23,0.746,0.172,1.148,0.23c0.344,0.057,0.859-0.517,0.688-0.689
		c-0.459-0.344-0.746-0.861-1.377-1.033c-0.344-0.115-0.689-0.287-0.805-0.689c-0.115-0.23-0.23-0.344-0.459-0.344
		c-0.287,0-0.574-0.172-0.861-0.287c-0.344-0.229-0.688-0.229-1.033-0.057c-0.344,0.115-0.572,0.115-0.918-0.057
		c-0.285-0.172-0.572-0.172-0.918-0.057c-0.344,0.115-0.631,0.517-0.975,0.459c-0.287-0.115-0.574-0.115-0.861-0.115
		c-0.631,0-1.32,0.115-1.894-0.057c-0.517-0.115-0.689,0-0.918,0.287c-0.344,0.287-0.459,0.689-0.746,0.976
		c-0.172,0.287-0.459,0.459-0.804,0.287c-0.631-0.402-1.263-0.861-2.124-0.517c-0.057,0.057-0.115,0.057-0.172,0
		c-0.574-0.057-1.148,0-1.779,0.23C8.46,6.646,8.345,6.876,8.345,7.163c-0.057,0.287-0.172,0.23-0.287,0.23
		C7.369,7.278,6.738,7.45,6.049,7.508C5.762,7.565,5.303,7.795,5.418,8.082C5.475,8.484,5.533,8.828,5.59,9.23
		c0.115,0.402,0.459,0.861-0.115,1.205c-0.115,0.057-0.115,0.115-0.057,0.23c0.115,0.115-0.057,0.459,0.115,0.459
		c0.23,0.057,0.574,0.23,0.804,0.115c0.402-0.172,0.861,0,1.263-0.172c0.115-0.057,0.287-0.23,0.459-0.057
		c0.402,0.402,1.033,0.402,1.378,0.918c0,0.057,0.115,0,0.172,0c1.091-0.057,2.181,0,2.985,0.861
		c0.402,0.459,0.861,0.631,1.435,0.746c0.631,0.172,1.263,0.287,1.837,0.746c0.115,0.057,0.287,0.229,0.23,0.402
		c-0.115,0.172-0.287,0-0.402,0c-0.918-0.23-1.779-0.23-2.583,0.23c-0.172,0.115-0.344,0.172-0.517,0.172
		c-0.689,0.115-1.091-0.459-0.804-1.033c0.115-0.229,0-0.344-0.057-0.459c-0.23-0.23-0.402-0.459-0.689-0.689
		c-0.344-0.287-0.861-0.172-0.861,0.23c0,0.402-0.115,0.746-0.574,0.861c-0.172,0.057-0.172,0.172,0.057,0.344
		c0.23,0.23,0.804-0.115,0.746,0.459c0,0,0.057,0.057,0.115,0c0.517-0.287,0.746,0.172,1.033,0.459
		c0.574,0.517,0.804,0.517,1.435,0.172c0.172-0.057,0.344-0.172,0.517-0.287c0.402-0.23,0.746-0.115,1.033,0.172
		c0.23,0.172,0.459,0.402,0.631,0.631c0.23,0.402,0.574,0.631,1.034,0.689c0.917,0.115,1.32,0.574,1.376,1.55
		c0.059,0.518-0.287,0.805-0.459,1.148c-0.229,0.459-0.63,0.631-1.147,0.518c-0.861-0.115-1.55-0.632-2.239-1.205
		c-0.23-0.23-0.287-0.402-0.115-0.689c0.172-0.402,0.23-0.746-0.172-1.033c-0.344,0.287,0.057,0.631-0.115,0.977
		c-0.23-0.172-0.402-0.287-0.574-0.402c-0.517-0.287-1.091-0.518-1.033-1.263c0.057-0.172-0.172-0.344-0.344-0.23
		c-0.402,0.172-0.746-0.057-1.148-0.115c-0.402-0.172-0.631,0-0.631,0.402c0,0.229-0.057,0.401-0.23,0.574
		c-0.344,0.229,0.057,0.459,0.057,0.688c0.057,0.172,0.287,0.057,0.459,0c0.517-0.287,1.263-0.172,1.665,0.23
		c0.115,0.115,0.23,0.23,0.115,0.402c-0.172,0.172-0.287,0.344,0.115,0.401c0.23,0,0.057,0.459,0.402,0.345
		c0.861-0.23,1.32,0.344,1.722,0.918c0.23,0.344,0.402,0.631,0.689,0.86c0.861,0.517,0.804,0.918,0,1.492
		c-0.804,0.573-1.492,1.378-1.779,2.411c-0.057,0.229-0.172,0.287-0.402,0.344c-0.861,0-1.722,0.057-2.583,0.23 M14.661,19.961
		c0.459,0.057,0.804,0.057,1.033,0.631C15.292,20.42,15.005,20.305,14.661,19.961z M17.703,9.801
		c-0.23-0.057-0.459-0.344-0.287-0.517c0.344-0.344,0.516-0.804,0.689-1.263c0.057-0.057,0.113-0.172,0.287-0.115
		c0.057,0.229,0.113,0.517,0.229,0.804C18.852,8.997,18.047,9.858,17.703,9.801L17.703,9.801z M19.252,8.768L19.252,8.768
		c0.402,0.574,0.402,1.378,0,1.779c-0.172,0.172-0.344,0.344-0.574,0.459c-0.229,0.172-0.516,0.459-0.746,0.057
		c-0.285-0.344-0.057-0.804,0.287-0.976C18.793,9.8,19.137,9.456,19.252,8.768L19.252,8.768z M17.416,13.302
		c0.115-0.229,0.23-0.517,0.287-0.746c0.172-0.517,0.344-0.574,0.746-0.23c0.115,0.115,0.172,0.23,0.344,0.459
		c0.057-0.746,0.172-0.804,0.689-0.574c0.287,0.115,0.516,0.057,0.803,0.057c-0.057-0.057-0.057-0.115-0.057-0.115
		c-0.23-0.115-0.631-0.057-0.518-0.402c0.059-0.344,0.287-0.631,0.631-0.689c0.23-0.057,0.287,0.057,0.402,0.172
		c0.23,0.23-0.057,0.23-0.115,0.287c-0.115,0.057-0.115,0.115,0,0.287c0.172,0.402-0.115,0.918-0.631,0.804
		c-0.516-0.057-0.975,0-1.377,0.344c0.057,0.23,0.402,0,0.516,0.287c-0.172,0.172-0.344,0.402-0.688,0.402
		c-0.115,0-0.23,0.057-0.23,0.172c0,0.115,0.057,0.115,0.172,0.172c0.23,0.057,0.115,0.229,0.115,0.344
		c-0.057,0.23-0.115,0.459-0.172,0.631c-0.115,0.459,0.115,0.746,0.574,0.918c0.229,0.115,0.402,0.402,0.516,0.632
		c0.059,0.229-0.172,0.229-0.344,0.344c-0.287,0.115-0.402-0.058-0.574-0.287c-0.344-0.574-0.803-1.091-1.09-1.722
		c-0.287-0.517-0.287-1.033,0-1.55V13.302z M20.342,18.698L20.342,18.698c-0.287,0.517-0.746,0.517-1.146,0.517
		c-0.115,0-0.23-0.057-0.287-0.172c0-0.115,0.115-0.23,0.229-0.287C19.482,18.584,19.883,18.641,20.342,18.698L20.342,18.698z
		 M16.67,11.465c-0.171,0-0.402,0.057-0.631,0.115c-0.287,0.057-0.574,0.172-0.631,0.517c0,0.344-0.23,0.402-0.517,0.287
		c-0.287-0.115-0.689-0.23-1.033-0.287c-0.402,0-0.574-0.172-0.459-0.517c0.057-0.402-0.057-0.631-0.287-0.861
		c-0.23-0.172-0.287-0.402-0.402-0.688c-0.057-0.344-0.115-0.631,0.287-0.861c0.402-0.287,0.631,0.115,0.746,0.344
		c0.172,0.23,0.287,0.574,0.574,0.574c0.344,0,0.746-0.115,1.091-0.287c0.287-0.172,0.459-0.115,0.631,0.115
		c0.172,0.287,0.459,0.517,0.803,0.689c0.172,0.057,0.287,0.23,0.23,0.459l0,0C17.072,11.293,16.9,11.407,16.67,11.465L16.67,11.465
		z M16.67,16.172c-0.746,0-1.091-0.517-1.435-1.091C15.866,15.311,16.268,15.712,16.67,16.172z M15.464,13.532
		c0,0.115-0.115,0.115-0.172,0.057c-0.804-0.344-1.779-0.402-2.468-1.205c0.976,0,1.722,0.459,2.468,0.861
		C15.407,13.302,15.522,13.417,15.464,13.532z M15.981,9.227c0.23-0.172,0.402-0.344,0.459-0.689l0,0
		c0.287,0.23,0.287,0.459,0.115,0.689C16.44,9.399,16.211,9.457,15.981,9.227z"/>
	<ellipse cx="14.438" cy="26.383" rx="6.938" ry="1.613"/>
</g>
<g id="Layer_2">
	
		<image display="none" overflow="visible" width="270" height="187" xlink:href="1CB57CC4.jpg"  transform="matrix(0.1916 0 0 0.1916 -10.333 -1.1665)">
	</image>
	<path d="M15.666,29.178C8.399,29.178,2.488,23.267,2.488,16c0-7.267,5.912-13.179,13.178-13.179S28.843,8.734,28.843,16
		C28.843,23.267,22.932,29.178,15.666,29.178z M15.666,3.322C8.675,3.322,2.988,9.009,2.988,16c0,6.991,5.687,12.677,12.678,12.677
		S28.343,22.991,28.343,16C28.343,9.009,22.656,3.322,15.666,3.322z"/>
</g>
</svg>
