<?xml version="1.0" encoding="utf-8"?>
<!-- Generator: Adobe Illustrator 16.0.0, SVG Export Plug-In . SVG Version: 6.00 Build 0)  -->
<!DOCTYPE svg PUBLIC "-//W3C//DTD SVG 1.1//EN" "http://www.w3.org/Graphics/SVG/1.1/DTD/svg11.dtd">
<svg version="1.1" xmlns="http://www.w3.org/2000/svg" xmlns:xlink="http://www.w3.org/1999/xlink" x="0px" y="0px" width="29.33px"
	 height="29.331px" viewBox="1 1.306 29.33 29.331" enable-background="new 1 1.306 29.33 29.331" xml:space="preserve">
<g id="Layer_1">
</g>
<g id="Layer_2">
	<g>
		<path fill="none" d="M15.235,15.081c0.344,0.574,0.689,1.091,1.435,1.091C16.268,15.712,15.866,15.311,15.235,15.081z"/>
		<path fill="none" d="M16.555,9.227c0.172-0.23,0.172-0.459-0.115-0.689c-0.057,0.345-0.229,0.517-0.459,0.689
			C16.211,9.457,16.44,9.399,16.555,9.227z"/>
		<path fill="none" d="M17.932,11.063c0.23,0.402,0.518,0.115,0.746-0.057c0.23-0.115,0.402-0.287,0.574-0.459
			c0.402-0.401,0.402-1.205,0-1.779V8.767c-0.115,0.689-0.459,1.033-1.033,1.32C17.875,10.259,17.646,10.719,17.932,11.063z"/>
		<path fill="none" d="M15.292,13.245c-0.746-0.402-1.492-0.861-2.468-0.861c0.689,0.803,1.664,0.861,2.468,1.205
			c0.057,0.058,0.172,0.058,0.172-0.057C15.522,13.417,15.407,13.302,15.292,13.245z"/>
		<path fill="none" d="M17.703,9.801c0.344,0.057,1.148-0.804,0.918-1.091c-0.115-0.287-0.172-0.574-0.229-0.804
			c-0.174-0.057-0.23,0.058-0.287,0.115C17.932,8.48,17.76,8.94,17.416,9.284C17.244,9.457,17.473,9.744,17.703,9.801z"/>
		<path fill="none" d="M23.747,6.24c-0.061-0.05-0.126-0.094-0.187-0.143C23.617,6.151,23.679,6.2,23.747,6.24z"/>
		<path fill="none" d="M8.058,7.393c0.115,0,0.23,0.057,0.287-0.23c0-0.287,0.115-0.517,0.517-0.689
			c0.631-0.23,1.205-0.287,1.779-0.23c0.057,0.057,0.115,0.057,0.172,0c0.861-0.344,1.493,0.115,2.124,0.517
			c0.345,0.172,0.632,0,0.804-0.287c0.287-0.287,0.402-0.689,0.746-0.976c0.229-0.287,0.401-0.402,0.918-0.287
			c0.574,0.172,1.263,0.057,1.894,0.057c0.287,0,0.574,0,0.861,0.115c0.344,0.058,0.631-0.344,0.975-0.459
			c0.346-0.115,0.633-0.115,0.918,0.057c0.346,0.172,0.574,0.172,0.918,0.057c0.346-0.173,0.689-0.173,1.033,0.057
			c0.11,0.044,0.221,0.096,0.331,0.144c-1.94-1.207-4.221-1.917-6.669-1.917c-3.708,0-7.039,1.61-9.359,4.156
			C6.896,7.408,7.456,7.292,8.058,7.393z"/>
		<path fill="none" d="M19.137,18.756c-0.113,0.057-0.229,0.172-0.229,0.287c0.057,0.115,0.172,0.172,0.287,0.172
			c0.4,0,0.858,0,1.146-0.516C19.883,18.641,19.482,18.584,19.137,18.756z"/>
		<path fill="none" d="M14.603,22.202c0.804-0.574,0.861-0.976,0-1.492c-0.287-0.229-0.459-0.517-0.689-0.86
			c-0.402-0.574-0.861-1.148-1.722-0.918c-0.345,0.114-0.172-0.345-0.402-0.345c-0.402-0.058-0.287-0.229-0.115-0.401
			c0.115-0.172,0-0.287-0.115-0.402c-0.402-0.402-1.148-0.518-1.665-0.23c-0.172,0.057-0.402,0.172-0.459,0
			c0-0.229-0.401-0.459-0.057-0.688c0.173-0.173,0.23-0.345,0.23-0.574c0-0.402,0.229-0.574,0.631-0.402
			c0.402,0.058,0.746,0.287,1.148,0.115c0.172-0.114,0.401,0.058,0.344,0.23c-0.058,0.746,0.516,0.976,1.033,1.263
			c0.172,0.115,0.344,0.23,0.574,0.402c0.172-0.346-0.229-0.689,0.115-0.977c0.402,0.287,0.344,0.631,0.172,1.033
			c-0.172,0.287-0.115,0.459,0.115,0.689c0.689,0.573,1.378,1.09,2.239,1.205c0.517,0.113,0.918-0.059,1.147-0.518
			c0.172-0.344,0.518-0.631,0.459-1.148c-0.057-0.976-0.459-1.435-1.376-1.55c-0.459-0.058-0.804-0.287-1.034-0.689
			c-0.172-0.229-0.401-0.459-0.631-0.631c-0.287-0.287-0.631-0.402-1.033-0.172c-0.173,0.115-0.345,0.23-0.517,0.287
			c-0.631,0.345-0.861,0.345-1.435-0.172c-0.287-0.287-0.516-0.746-1.033-0.459c-0.058,0.057-0.115,0-0.115,0
			c0.058-0.574-0.516-0.229-0.746-0.459c-0.229-0.172-0.229-0.287-0.057-0.344c0.459-0.115,0.574-0.459,0.574-0.861
			c0-0.402,0.517-0.517,0.861-0.23c0.287,0.23,0.459,0.459,0.689,0.689c0.057,0.115,0.172,0.229,0.057,0.459
			c-0.287,0.574,0.115,1.148,0.804,1.033c0.173,0,0.345-0.057,0.517-0.172c0.804-0.46,1.665-0.46,2.583-0.23
			c0.115,0,0.287,0.172,0.402,0c0.057-0.172-0.115-0.345-0.23-0.402c-0.574-0.459-1.206-0.574-1.837-0.746
			c-0.574-0.115-1.033-0.287-1.435-0.746c-0.804-0.861-1.894-0.918-2.985-0.861c-0.057,0-0.172,0.057-0.172,0
			c-0.345-0.516-0.976-0.516-1.378-0.918c-0.172-0.173-0.344,0-0.459,0.057c-0.402,0.172-0.861,0-1.263,0.172
			c-0.23,0.115-0.574-0.058-0.804-0.115c-0.172,0,0-0.344-0.115-0.459c-0.058-0.115-0.058-0.173,0.057-0.23
			c0.574-0.344,0.23-0.803,0.115-1.205C5.553,8.969,5.516,8.729,5.479,8.485C3.921,10.591,2.988,13.186,2.988,16
			c0,4.016,1.883,7.595,4.806,9.919c0.693-0.537,2.564-0.956,4.917-1.096c0.05-0.049,0.089-0.112,0.113-0.211
			C13.111,23.58,13.799,22.775,14.603,22.202z"/>
		<path fill="none" d="M15.692,2.342c-7.519,0-13.661,6.142-13.661,13.661c0,3.961,1.722,7.577,4.477,10.045l1.258,1.03l1.384,0.861
			c1.952,1.091,4.191,1.664,6.544,1.664l-0.002,0.004c7.519,0,13.603-6.086,13.603-13.604C29.295,8.484,23.211,2.342,15.692,2.342z
			 M15.666,29.178c-2.387,0-4.621-0.647-6.553-1.762C8.106,27.137,7.5,26.776,7.5,26.383c0-0.018,0.009-0.034,0.011-0.051
			C4.457,23.916,2.488,20.188,2.488,16c0-7.267,5.912-13.179,13.178-13.179S28.843,8.734,28.843,16
			C28.843,23.267,22.932,29.178,15.666,29.178z"/>
		<path fill="none" d="M25.371,7.859c-0.151,0.166-0.374,0.307-0.553,0.278c-0.402-0.058-0.861,0-1.148-0.23
			c-0.402-0.345-0.861-0.172-1.264-0.402c-0.172-0.057-0.287,0.057-0.344,0.287c-0.115,0.516-0.518,0.861-1.092,0.918
			c-0.172,0-0.229,0.058-0.172,0.23c0.115,0.287,0,0.574-0.229,0.746c-0.287,0.173-0.23,0.345-0.059,0.517
			c0.115,0.115,0.174,0.287,0.402,0.23c0.287-0.115,0.23-0.46,0.172-0.517c-0.287-0.401,0.172-0.631,0.115-0.918
			c0-0.058,0.059-0.115,0.115-0.115c0.516,0.229,0.689-0.23,1.033-0.517c0.172-0.172,0.287-0.115,0.402,0.115
			c0.287,0.574,0.574,0.688,1.09,0.344c0.172-0.114,0.287-0.114,0.346-0.057c0.285,0.287,0.746,0.345,0.859,0.804
			c0,0.229,0.115,0.172,0.459-0.23c0.633,0.689,0.689,0.804,0.115,1.378c-0.402,0.402-0.172,0.516,0.172,0.746
			c0.115,0.058,0.402,0.058,0.344,0.23c0,0.229-0.229,0.172-0.4,0.172c-0.518-0.114-1.033,0.287-1.551-0.057
			c-0.059-0.115-0.115,0.115-0.115,0.172c-0.113,0.23-0.344,0.517-0.057,0.689c0.346,0.23,0.287,0.632,0.689,0.804
			c0.172,0.115,0,0.345-0.172,0.402c-0.344,0.23-0.746,0.287-0.861,0.689c-0.057,0.172-0.229,0.172-0.344,0
			c-0.115-0.115-0.172-0.058-0.287,0.057s-0.059,0.173,0.057,0.23c0.518,0.688,0.115,1.779-0.746,2.066
			c-0.459,0.114-0.918,0.229-1.436,0.057c-0.344-0.115-0.688,0.115-0.861,0.402c-0.113,0.172-0.229,0.344-0.285,0.574
			c0.113,0.113,0.285,0.057,0.459,0.057c1.09-0.115,2.18,0.115,3.213-0.172c0.689-0.23,0.92-0.344,0.518-1.148
			c-0.115-0.114,0.057-0.114,0.057-0.229c0-0.804,0.631-1.205,1.148-1.722c0.23-0.229,0.689,0.172,0.975-0.172
			c0.174,0.287,0.402,0.517,0.459,0.804c0.115,0.402,0.402,0.46,0.746,0.517c0.402,0,0.23,0.287,0.23,0.459
			c0,0.23-0.113,0.23-0.344,0.287c-0.402,0.057-0.977-0.058-1.092,0.631c0,0.057-0.057,0.172-0.057,0.172
			c-0.746,0.229-1.377,0.804-2.123,0.918c-0.861,0.115-1.723,0.287-2.584,0.23c-0.229-0.057-0.402,0.115-0.516,0.287
			c-0.287,0.631-0.861,0.861-1.492,0.861c-0.344,0.057-0.689,0.057-1.033,0.287c0.115,0.229,0.287,0.344,0.574,0.344
			c1.262,0,2.469-0.23,3.674-0.518c0.229-0.057,0.459-0.172,0.459-0.287c0-0.631,0.402-0.401,0.689-0.459
			c0.516-0.058,0.975-0.229,1.434-0.229c0.174,0,0.461-0.058,0.23,0.287c-0.172,0.229,0.172,0.344,0.115,0.573
			c-0.229,0.115-0.344-0.057-0.459-0.172c-0.229-0.344-0.574-0.287-0.918-0.287c-0.115,0-0.344,0.115-0.287,0.23
			c0.115,0.688-0.574,0.631-0.861,0.918c-0.059,0.115-0.346,0.172-0.518,0.287c-0.113,0-0.172,0.113-0.287,0.057
			c-0.516-0.402-0.859,0.057-1.205,0.344c-0.4,0.345-0.859,0.229-1.318,0.058c-1.895-0.631-1.379-0.631-2.699,0.804
			c-0.574,0.633-1.032,1.436-1.491,2.124c-0.198,0.316-0.138,0.568,0.079,0.701c3.304,0.123,5.832,0.787,5.832,1.589
			c0,0.892-3.107,1.613-6.938,1.613c-1.241,0-2.403-0.076-3.411-0.209c1.438,0.568,3,0.891,4.639,0.891
			c6.991,0,12.677-5.687,12.677-12.677C28.343,12.902,27.223,10.064,25.371,7.859z"/>
		<path fill="none" d="M14.661,19.961c0.344,0.344,0.631,0.459,1.033,0.631C15.465,20.018,15.12,20.018,14.661,19.961z"/>
		<path fill="none" d="M19.08,16.857c0.172-0.114,0.402-0.114,0.344-0.344c-0.113-0.229-0.287-0.517-0.516-0.632
			c-0.459-0.172-0.689-0.459-0.574-0.918c0.057-0.172,0.115-0.401,0.172-0.631c0-0.114,0.115-0.287-0.115-0.344
			c-0.115-0.057-0.172-0.057-0.172-0.172c0-0.115,0.115-0.172,0.23-0.172c0.344,0,0.516-0.23,0.688-0.402
			c-0.113-0.287-0.459-0.057-0.516-0.287c0.402-0.344,0.861-0.401,1.377-0.344c0.516,0.114,0.803-0.402,0.631-0.804
			c-0.115-0.172-0.115-0.23,0-0.287c0.059-0.057,0.346-0.057,0.115-0.287c-0.115-0.115-0.172-0.229-0.402-0.172
			c-0.344,0.058-0.572,0.345-0.631,0.689c-0.113,0.345,0.287,0.287,0.518,0.402c0,0,0,0.058,0.057,0.115
			c-0.287,0-0.516,0.058-0.803-0.057c-0.518-0.23-0.633-0.172-0.689,0.574c-0.172-0.229-0.229-0.344-0.344-0.459
			c-0.402-0.344-0.574-0.287-0.746,0.23c-0.057,0.229-0.172,0.516-0.287,0.746v-0.004c-0.287,0.517-0.287,1.033,0,1.55
			c0.287,0.631,0.746,1.148,1.09,1.722C18.678,16.8,18.793,16.973,19.08,16.857z"/>
		<path fill="none" d="M16.842,10.604c-0.343-0.172-0.63-0.402-0.803-0.689c-0.172-0.23-0.344-0.287-0.631-0.115
			c-0.345,0.172-0.747,0.287-1.091,0.287c-0.287,0-0.402-0.344-0.574-0.574c-0.115-0.229-0.344-0.631-0.746-0.344
			c-0.402,0.23-0.344,0.517-0.287,0.861c0.115,0.287,0.172,0.517,0.402,0.688c0.23,0.23,0.344,0.459,0.287,0.861
			c-0.115,0.345,0.057,0.517,0.459,0.517c0.344,0.057,0.746,0.172,1.033,0.287c0.287,0.115,0.517,0.057,0.517-0.287
			c0.057-0.345,0.344-0.46,0.631-0.517c0.229-0.058,0.459-0.115,0.631-0.115c0.23-0.058,0.402-0.172,0.402-0.402
			C17.129,10.834,17.014,10.661,16.842,10.604z"/>
		<path d="M15.464,24.093c0.459-0.688,0.917-1.491,1.491-2.124c1.32-1.435,0.805-1.435,2.699-0.804
			c0.459,0.172,0.918,0.287,1.318-0.058c0.346-0.287,0.689-0.746,1.205-0.344c0.115,0.057,0.174-0.057,0.287-0.057
			c0.172-0.115,0.459-0.172,0.518-0.287c0.287-0.287,0.977-0.23,0.861-0.918c-0.057-0.115,0.172-0.23,0.287-0.23
			c0.344,0,0.689-0.057,0.918,0.287c0.115,0.115,0.23,0.287,0.459,0.172c0.057-0.229-0.287-0.344-0.115-0.573
			c0.23-0.345-0.057-0.287-0.23-0.287c-0.459,0-0.918,0.172-1.434,0.229c-0.287,0.058-0.689-0.172-0.689,0.459
			c0,0.115-0.23,0.23-0.459,0.287c-1.205,0.287-2.412,0.518-3.674,0.518c-0.287,0-0.459-0.115-0.574-0.344
			c0.344-0.23,0.689-0.23,1.033-0.287c0.631,0,1.205-0.23,1.492-0.861c0.113-0.172,0.287-0.344,0.516-0.287
			c0.861,0.057,1.723-0.115,2.584-0.23c0.746-0.114,1.377-0.688,2.123-0.918c0,0,0.057-0.115,0.057-0.172
			c0.115-0.688,0.689-0.574,1.092-0.631c0.23-0.057,0.344-0.057,0.344-0.287c0-0.172,0.172-0.459-0.23-0.459
			c-0.344-0.057-0.631-0.115-0.746-0.517c-0.057-0.287-0.285-0.517-0.459-0.804c-0.285,0.344-0.744-0.057-0.975,0.172
			c-0.518,0.517-1.148,0.918-1.148,1.722c0,0.115-0.172,0.115-0.057,0.229c0.402,0.805,0.172,0.918-0.518,1.148
			c-1.033,0.287-2.123,0.057-3.213,0.172c-0.174,0-0.346,0.057-0.459-0.057c0.057-0.23,0.172-0.402,0.285-0.574
			c0.174-0.287,0.518-0.518,0.861-0.402c0.518,0.172,0.977,0.058,1.436-0.057c0.861-0.287,1.264-1.378,0.746-2.066
			c-0.115-0.057-0.172-0.115-0.057-0.23s0.172-0.172,0.287-0.057c0.115,0.172,0.287,0.172,0.344,0
			c0.115-0.402,0.518-0.459,0.861-0.689c0.172-0.057,0.344-0.287,0.172-0.402c-0.402-0.172-0.344-0.574-0.689-0.804
			c-0.287-0.172-0.057-0.459,0.057-0.689c0-0.057,0.057-0.287,0.115-0.172c0.518,0.344,1.033-0.057,1.551,0.057
			c0.172,0,0.4,0.057,0.4-0.172c0.059-0.172-0.229-0.172-0.344-0.23c-0.344-0.23-0.574-0.344-0.172-0.746
			c0.574-0.574,0.518-0.688-0.115-1.378c-0.344,0.402-0.459,0.459-0.459,0.23c-0.113-0.459-0.574-0.517-0.859-0.804
			c-0.059-0.057-0.174-0.057-0.346,0.057c-0.516,0.344-0.803,0.23-1.09-0.344c-0.115-0.23-0.23-0.287-0.402-0.115
			c-0.344,0.287-0.518,0.746-1.033,0.517c-0.057,0-0.115,0.057-0.115,0.115c0.057,0.287-0.402,0.517-0.115,0.918
			c0.059,0.057,0.115,0.402-0.172,0.517c-0.229,0.057-0.287-0.115-0.402-0.23c-0.172-0.172-0.229-0.344,0.059-0.517
			c0.229-0.172,0.344-0.459,0.229-0.746c-0.057-0.172,0-0.23,0.172-0.23c0.574-0.057,0.977-0.402,1.092-0.918
			c0.057-0.23,0.172-0.344,0.344-0.287c0.402,0.23,0.861,0.057,1.264,0.402c0.287,0.23,0.746,0.172,1.148,0.23
			c0.179,0.029,0.401-0.112,0.553-0.278c-0.493-0.586-1.035-1.13-1.624-1.619c-0.068-0.041-0.13-0.089-0.187-0.143
			c-0.39-0.311-0.801-0.594-1.226-0.859c-0.11-0.048-0.221-0.099-0.331-0.144c-0.344-0.229-0.688-0.229-1.033-0.057
			c-0.344,0.115-0.572,0.115-0.918-0.057c-0.285-0.172-0.572-0.172-0.918-0.057c-0.344,0.115-0.631,0.517-0.975,0.459
			c-0.287-0.115-0.574-0.115-0.861-0.115c-0.631,0-1.32,0.115-1.894-0.057c-0.517-0.115-0.689,0-0.918,0.287
			c-0.344,0.287-0.459,0.689-0.746,0.976c-0.172,0.287-0.459,0.459-0.804,0.287c-0.631-0.402-1.263-0.861-2.124-0.517
			c-0.057,0.057-0.115,0.057-0.172,0c-0.574-0.057-1.148,0-1.779,0.23C8.46,6.646,8.345,6.876,8.345,7.163
			c-0.057,0.287-0.172,0.23-0.287,0.23C7.456,7.292,6.896,7.408,6.307,7.478C6.014,7.8,5.737,8.135,5.479,8.485
			C5.516,8.729,5.553,8.969,5.59,9.23c0.115,0.402,0.459,0.861-0.115,1.205c-0.115,0.057-0.115,0.115-0.057,0.23
			c0.115,0.115-0.057,0.459,0.115,0.459c0.23,0.057,0.574,0.23,0.804,0.115c0.402-0.172,0.861,0,1.263-0.172
			c0.115-0.057,0.287-0.23,0.459-0.057c0.402,0.402,1.033,0.402,1.378,0.918c0,0.057,0.115,0,0.172,0
			c1.091-0.057,2.181,0,2.985,0.861c0.402,0.459,0.861,0.631,1.435,0.746c0.631,0.172,1.263,0.287,1.837,0.746
			c0.115,0.057,0.287,0.229,0.23,0.402c-0.115,0.172-0.287,0-0.402,0c-0.918-0.23-1.779-0.23-2.583,0.23
			c-0.172,0.115-0.344,0.172-0.517,0.172c-0.689,0.115-1.091-0.459-0.804-1.033c0.115-0.229,0-0.344-0.057-0.459
			c-0.23-0.23-0.402-0.459-0.689-0.689c-0.344-0.287-0.861-0.172-0.861,0.23c0,0.402-0.115,0.746-0.574,0.861
			c-0.172,0.057-0.172,0.172,0.057,0.344c0.23,0.23,0.804-0.115,0.746,0.459c0,0,0.057,0.057,0.115,0
			c0.517-0.287,0.746,0.172,1.033,0.459c0.574,0.517,0.804,0.517,1.435,0.172c0.172-0.057,0.344-0.172,0.517-0.287
			c0.402-0.23,0.746-0.115,1.033,0.172c0.23,0.172,0.459,0.402,0.631,0.631c0.23,0.402,0.574,0.631,1.034,0.689
			c0.917,0.115,1.32,0.574,1.376,1.55c0.059,0.518-0.287,0.805-0.459,1.148c-0.229,0.459-0.63,0.631-1.147,0.518
			c-0.861-0.115-1.55-0.632-2.239-1.205c-0.23-0.23-0.287-0.402-0.115-0.689c0.172-0.402,0.23-0.746-0.172-1.033
			c-0.344,0.287,0.057,0.631-0.115,0.977c-0.23-0.172-0.402-0.287-0.574-0.402c-0.517-0.287-1.091-0.518-1.033-1.263
			c0.057-0.172-0.172-0.344-0.344-0.23c-0.402,0.172-0.746-0.057-1.148-0.115c-0.402-0.172-0.631,0-0.631,0.402
			c0,0.229-0.057,0.401-0.23,0.574c-0.344,0.229,0.057,0.459,0.057,0.688c0.057,0.172,0.287,0.057,0.459,0
			c0.517-0.287,1.263-0.172,1.665,0.23c0.115,0.115,0.23,0.23,0.115,0.402c-0.172,0.172-0.287,0.344,0.115,0.401
			c0.23,0,0.057,0.459,0.402,0.345c0.861-0.23,1.32,0.344,1.722,0.918c0.23,0.344,0.402,0.631,0.689,0.86
			c0.861,0.517,0.804,0.918,0,1.492c-0.804,0.573-1.492,1.378-1.779,2.411c-0.024,0.099-0.063,0.162-0.113,0.211
			c0.553-0.033,1.129-0.053,1.727-0.053c0.377,0,0.745,0.009,1.105,0.022C15.326,24.661,15.266,24.409,15.464,24.093z
			 M20.341,18.699c-0.287,0.516-0.745,0.516-1.146,0.516c-0.115,0-0.23-0.057-0.287-0.172c0-0.115,0.115-0.23,0.229-0.287
			C19.482,18.584,19.883,18.641,20.341,18.699z M19.252,8.767L19.252,8.767c0.402,0.575,0.402,1.379,0,1.78
			c-0.172,0.172-0.344,0.344-0.574,0.459c-0.229,0.172-0.516,0.459-0.746,0.057c-0.285-0.344-0.057-0.804,0.287-0.976
			C18.793,9.8,19.137,9.456,19.252,8.767z M17.416,9.284c0.344-0.344,0.516-0.804,0.689-1.263c0.057-0.057,0.113-0.172,0.287-0.115
			c0.057,0.229,0.113,0.517,0.229,0.804c0.23,0.287-0.574,1.148-0.918,1.091C17.473,9.744,17.244,9.457,17.416,9.284z M16.44,8.538
			c0.287,0.23,0.287,0.459,0.115,0.689c-0.115,0.172-0.343,0.23-0.574,0C16.211,9.055,16.383,8.883,16.44,8.538z M15.464,13.532
			c0,0.115-0.115,0.115-0.172,0.057c-0.804-0.344-1.779-0.402-2.468-1.205c0.976,0,1.722,0.459,2.468,0.861
			C15.407,13.302,15.522,13.417,15.464,13.532z M15.235,15.081c0.631,0.23,1.033,0.631,1.435,1.091
			C15.924,16.172,15.579,15.655,15.235,15.081z M17.072,11.063c0,0.23-0.172,0.344-0.402,0.402c-0.171,0-0.402,0.057-0.631,0.115
			c-0.287,0.057-0.574,0.172-0.631,0.517c0,0.344-0.23,0.402-0.517,0.287c-0.287-0.115-0.689-0.23-1.033-0.287
			c-0.402,0-0.574-0.172-0.459-0.517c0.057-0.402-0.057-0.631-0.287-0.861c-0.23-0.172-0.287-0.402-0.402-0.688
			c-0.057-0.344-0.115-0.631,0.287-0.861c0.402-0.287,0.631,0.115,0.746,0.344c0.172,0.23,0.287,0.574,0.574,0.574
			c0.344,0,0.746-0.115,1.091-0.287c0.287-0.172,0.459-0.115,0.631,0.115c0.172,0.287,0.459,0.517,0.803,0.689
			C17.014,10.661,17.129,10.834,17.072,11.063z M17.416,14.848c-0.287-0.517-0.287-1.033,0-1.55v0.004
			c0.115-0.229,0.23-0.517,0.287-0.746c0.172-0.517,0.344-0.574,0.746-0.23c0.115,0.115,0.172,0.23,0.344,0.459
			c0.057-0.746,0.172-0.804,0.689-0.574c0.287,0.115,0.516,0.057,0.803,0.057c-0.057-0.057-0.057-0.115-0.057-0.115
			c-0.23-0.115-0.631-0.057-0.518-0.402c0.059-0.344,0.287-0.631,0.631-0.689c0.23-0.057,0.287,0.057,0.402,0.172
			c0.23,0.23-0.057,0.23-0.115,0.287c-0.115,0.057-0.115,0.115,0,0.287c0.172,0.402-0.115,0.918-0.631,0.804
			c-0.516-0.057-0.975,0-1.377,0.344c0.057,0.23,0.402,0,0.516,0.287c-0.172,0.172-0.344,0.402-0.688,0.402
			c-0.115,0-0.23,0.057-0.23,0.172c0,0.115,0.057,0.115,0.172,0.172c0.23,0.057,0.115,0.229,0.115,0.344
			c-0.057,0.23-0.115,0.459-0.172,0.631c-0.115,0.459,0.115,0.746,0.574,0.918c0.229,0.115,0.402,0.402,0.516,0.632
			c0.059,0.229-0.172,0.229-0.344,0.344c-0.287,0.115-0.402-0.058-0.574-0.287C18.162,15.996,17.703,15.479,17.416,14.848z
			 M14.661,19.961c0.459,0.057,0.804,0.057,1.033,0.631C15.292,20.42,15.005,20.305,14.661,19.961z"/>
		<path d="M15.694,1.306C7.601,1.306,1,7.907,1,16s6.601,14.637,14.694,14.637c8.093,0,14.636-6.544,14.636-14.637
			S23.787,1.306,15.694,1.306z M15.692,29.607l0.002-0.004c-2.353,0-4.592-0.573-6.544-1.664l-1.384-0.861l-1.258-1.03
			c-2.755-2.468-4.477-6.084-4.477-10.045c0-7.519,6.142-13.661,13.661-13.661s13.603,6.142,13.603,13.661
			C29.295,23.521,23.211,29.607,15.692,29.607z"/>
		<path d="M15.666,2.822C8.399,2.822,2.488,8.734,2.488,16c0,4.187,1.969,7.916,5.023,10.332C7.509,26.349,7.5,26.365,7.5,26.383
			c0,0.394,0.606,0.754,1.612,1.033c1.933,1.114,4.167,1.762,6.553,1.762c7.266,0,13.177-5.911,13.177-13.177
			C28.843,8.734,22.932,2.822,15.666,2.822z M15.666,28.678c-1.638,0-3.2-0.322-4.639-0.891c1.008,0.133,2.17,0.209,3.411,0.209
			c3.83,0,6.938-0.722,6.938-1.613c0-0.802-2.528-1.466-5.832-1.589c-0.361-0.014-0.729-0.278-1.105-0.278
			c-0.598,0-1.174,0.275-1.727,0.309c-2.353,0.14-4.223,0.559-4.917,1.096C4.871,23.596,2.988,20.017,2.988,16
			c0-2.814,0.933-5.409,2.491-7.515C5.737,8.135,6.014,7.8,6.307,7.478c2.32-2.546,5.651-4.156,9.359-4.156
			c2.449,0,4.729,0.709,6.669,1.917c0.425,0.265,0.836,0.548,1.226,0.859c0.061,0.049,0.126,0.093,0.187,0.143
			c0.589,0.489,1.131,1.033,1.624,1.619c1.852,2.205,2.972,5.043,2.972,8.141C28.343,22.991,22.656,28.678,15.666,28.678z"/>
	</g>
</g>
</svg>
