<?xml version="1.0" encoding="utf-8"?>
<!-- Generated by IcoMoon.io -->
<!DOCTYPE svg PUBLIC "-//W3C//DTD SVG 1.1//EN" "http://www.w3.org/Graphics/SVG/1.1/DTD/svg11.dtd">
<svg version="1.1" xmlns="http://www.w3.org/2000/svg" xmlns:xlink="http://www.w3.org/1999/xlink" width="32" height="32" viewBox="0 0 32 32">
	<path d="M17.722 14.852v0l0 0z" fill="#000000" />
	<path d="M16 1.306c-8.093 0-14.694 6.601-14.694 14.694s6.601 14.637 14.694 14.637 14.637-6.544 14.637-14.637-6.544-14.694-14.637-14.694zM16 29.604c-2.353 0-4.592-0.574-6.544-1.665-0.804-0.115-1.665-0.287-2.411-0.689-0.287-0.115-0.631-0.287-0.574-0.631 0-0.233 0.076-0.391 0.227-0.503-0.152 0.112-0.227 0.27-0.227 0.503-0.057 0.344 0.287 0.517 0.574 0.631 0.746 0.402 1.607 0.574 2.411 0.689 0.23 0.057 0.402 0.057 0.574 0.115 1.148 0.115 2.296 0.23 3.444 0.344l-0 0c0.861 0 1.722 0 2.583 0 1.091-0.115 2.181-0.23 3.329-0.344 1.091-0.115 2.181-0.287 3.157-0.861 0.631-0.344 0.631-0.804 0-1.148-0.23-0.172-0.459-0.23-0.689-0.344-1.837-0.574-3.731-0.746-5.625-0.804-0.517 0-0.746-0.344-0.459-0.804 0.459-0.689 0.918-1.492 1.492-2.124 1.32-1.435 0.804-1.435 2.698-0.804 0.459 0.172 0.918 0.287 1.32-0.057 0.344-0.287 0.689-0.746 1.205-0.344 0.115 0.057 0.172-0.057 0.287-0.057 0.172-0.115 0.459-0.172 0.517-0.287 0.287-0.287 0.976-0.23 0.861-0.918-0.057-0.115 0.172-0.23 0.287-0.23 0.344 0 0.689-0.057 0.918 0.287 0.115 0.115 0.23 0.287 0.459 0.172 0.057-0.23-0.287-0.344-0.115-0.574 0.23-0.344-0.057-0.287-0.23-0.287-0.459 0-0.918 0.172-1.435 0.23-0.287 0.057-0.689-0.172-0.689 0.459 0 0.115-0.23 0.23-0.459 0.287-1.205 0.287-2.411 0.517-3.674 0.517-0.287 0-0.459-0.115-0.574-0.344 0.344-0.23 0.689-0.23 1.033-0.287 0.631 0 1.205-0.23 1.492-0.861 0.115-0.172 0.287-0.344 0.517-0.287 0.861 0.057 1.722-0.115 2.583-0.23 0.746-0.115 1.378-0.689 2.124-0.918 0 0 0.057-0.115 0.057-0.172 0.115-0.689 0.689-0.574 1.091-0.631 0.23-0.057 0.344-0.057 0.344-0.287 0-0.172 0.172-0.459-0.23-0.459-0.344-0.057-0.631-0.115-0.746-0.517-0.057-0.287-0.287-0.517-0.459-0.804-0.287 0.344-0.746-0.057-0.976 0.172-0.517 0.517-1.148 0.918-1.148 1.722 0 0.115-0.172 0.115-0.057 0.23 0.402 0.804 0.172 0.918-0.517 1.148-1.033 0.287-2.124 0.057-3.214 0.172-0.172 0-0.344 0.057-0.459-0.057 0.057-0.23 0.172-0.402 0.287-0.574 0.172-0.287 0.517-0.517 0.861-0.402 0.517 0.172 0.976 0.057 1.435-0.057 0.861-0.287 1.263-1.378 0.746-2.066-0.115-0.057-0.172-0.115-0.057-0.23 0.115-0.115 0.172-0.172 0.287-0.057 0.115 0.172 0.287 0.172 0.344 0 0.115-0.402 0.517-0.459 0.861-0.689 0.172-0.057 0.344-0.287 0.172-0.402-0.402-0.172-0.344-0.574-0.689-0.804-0.287-0.172-0.057-0.459 0.057-0.689 0-0.057 0.057-0.287 0.115-0.172 0.517 0.344 1.033-0.057 1.55 0.057 0.172 0 0.402 0.057 0.402-0.172 0.057-0.172-0.23-0.172-0.344-0.23-0.344-0.23-0.574-0.344-0.172-0.746 0.574-0.574 0.517-0.689-0.115-1.378-0.344 0.402-0.459 0.459-0.459 0.23-0.115-0.459-0.574-0.517-0.861-0.804-0.057-0.057-0.172-0.057-0.344 0.057-0.517 0.344-0.804 0.23-1.091-0.344-0.115-0.23-0.23-0.287-0.402-0.115-0.344 0.287-0.517 0.746-1.033 0.517-0.057 0-0.115 0.057-0.115 0.115 0.057 0.287-0.402 0.517-0.115 0.918 0.057 0.057 0.115 0.402-0.172 0.517-0.23 0.057-0.287-0.115-0.402-0.23-0.172-0.172-0.23-0.344 0.057-0.517 0.23-0.172 0.344-0.459 0.23-0.746-0.057-0.172 0-0.23 0.172-0.23 0.574-0.057 0.976-0.402 1.091-0.918 0.057-0.23 0.172-0.344 0.344-0.287 0.402 0.23 0.861 0.057 1.263 0.402 0.287 0.23 0.746 0.172 1.148 0.23 0.344 0.057 0.861-0.517 0.689-0.689-0.459-0.344-0.746-0.861-1.378-1.033-0.344-0.115-0.689-0.287-0.804-0.689-0.115-0.23-0.23-0.344-0.459-0.344-0.287 0-0.574-0.172-0.861-0.287-0.344-0.23-0.689-0.23-1.033-0.057-0.344 0.115-0.574 0.115-0.918-0.057-0.287-0.172-0.574-0.172-0.918-0.057s-0.631 0.517-0.976 0.459c-0.287-0.115-0.574-0.115-0.861-0.115-0.631 0-1.32 0.115-1.894-0.057-0.517-0.115-0.689 0-0.918 0.287-0.344 0.287-0.459 0.689-0.746 0.976-0.172 0.287-0.459 0.459-0.804 0.287-0.631-0.402-1.263-0.861-2.124-0.517-0.057 0.057-0.115 0.057-0.172 0-0.574-0.057-1.148 0-1.779 0.23-0.402 0.172-0.517 0.402-0.517 0.689-0.057 0.287-0.172 0.23-0.287 0.23-0.689-0.115-1.32 0.057-2.009 0.115-0.287 0.057-0.746 0.287-0.631 0.574 0.057 0.402 0.115 0.746 0.172 1.148 0.115 0.402 0.459 0.861-0.115 1.205-0.115 0.057-0.115 0.115-0.057 0.23 0.115 0.115-0.057 0.459 0.115 0.459 0.23 0.057 0.574 0.23 0.804 0.115 0.402-0.172 0.861 0 1.263-0.172 0.115-0.057 0.287-0.23 0.459-0.057 0.402 0.402 1.033 0.402 1.378 0.918 0 0.057 0.115 0 0.172 0 1.091-0.057 2.181 0 2.985 0.861 0.402 0.459 0.861 0.631 1.435 0.746 0.631 0.172 1.263 0.287 1.837 0.746 0.115 0.057 0.287 0.23 0.23 0.402-0.115 0.172-0.287 0-0.402 0-0.918-0.23-1.779-0.23-2.583 0.23-0.172 0.115-0.344 0.172-0.517 0.172-0.689 0.115-1.091-0.459-0.804-1.033 0.115-0.23 0-0.344-0.057-0.459-0.23-0.23-0.402-0.459-0.689-0.689-0.344-0.287-0.861-0.172-0.861 0.23s-0.115 0.746-0.574 0.861c-0.172 0.057-0.172 0.172 0.057 0.344 0.23 0.23 0.804-0.115 0.746 0.459 0 0 0.057 0.057 0.115 0 0.517-0.287 0.746 0.172 1.033 0.459 0.574 0.517 0.804 0.517 1.435 0.172 0.172-0.057 0.344-0.172 0.517-0.287 0.402-0.23 0.746-0.115 1.033 0.172 0.23 0.172 0.459 0.402 0.631 0.631 0.23 0.402 0.574 0.631 1.033 0.689 0.918 0.115 1.32 0.574 1.378 1.55 0.057 0.517-0.287 0.804-0.459 1.148-0.23 0.459-0.631 0.631-1.148 0.517-0.861-0.115-1.55-0.631-2.239-1.205-0.23-0.23-0.287-0.402-0.115-0.689 0.172-0.402 0.23-0.746-0.172-1.033-0.344 0.287 0.057 0.631-0.115 0.976-0.23-0.172-0.402-0.287-0.574-0.402-0.517-0.287-1.091-0.517-1.033-1.263 0.057-0.172-0.172-0.344-0.344-0.23-0.402 0.172-0.746-0.057-1.148-0.115-0.402-0.172-0.631 0-0.631 0.402 0 0.23-0.057 0.402-0.23 0.574-0.344 0.23 0.057 0.459 0.057 0.689 0.057 0.172 0.287 0.057 0.459 0 0.517-0.287 1.263-0.172 1.665 0.23 0.115 0.115 0.23 0.23 0.115 0.402-0.172 0.172-0.287 0.344 0.115 0.402 0.23 0 0.057 0.459 0.402 0.344 0.861-0.23 1.32 0.344 1.722 0.918 0.23 0.344 0.402 0.631 0.689 0.861 0.861 0.517 0.804 0.918 0 1.492-0.804 0.574-1.492 1.378-1.779 2.411-0.057 0.23-0.172 0.287-0.402 0.344-0.861 0-1.722 0.057-2.583 0.23-1.091 0.115-2.124 0.287-3.1 0.746-0.057 0.057-0.172 0.115-0.23 0.115-0.005 0.003-0.010 0.005-0.015 0.008 0.005-0.003 0.010-0.005 0.014-0.008-2.755-2.468-4.477-6.084-4.477-10.045 0-7.519 6.142-13.661 13.661-13.661 7.519 0 13.604 6.142 13.604 13.661 0 7.519-6.084 13.604-13.604 13.604zM14.967 19.961c0.459 0.057 0.804 0.057 1.033 0.631-0.402-0.172-0.689-0.287-1.033-0.631zM18.009 9.801c-0.23-0.057-0.459-0.344-0.287-0.517 0.344-0.344 0.517-0.804 0.689-1.263 0.057-0.057 0.115-0.172 0.287-0.115 0.057 0.23 0.115 0.517 0.23 0.804 0.23 0.287-0.574 1.148-0.918 1.091zM19.559 8.768v0c0.402 0.574 0.402 1.378 0 1.779-0.172 0.172-0.344 0.344-0.574 0.459-0.23 0.172-0.517 0.459-0.746 0.057-0.287-0.344-0.057-0.804 0.287-0.976 0.574-0.287 0.918-0.631 1.033-1.32zM17.722 13.302c0.115-0.23 0.23-0.517 0.287-0.746 0.172-0.517 0.344-0.574 0.746-0.23 0.115 0.115 0.172 0.23 0.344 0.459 0.057-0.746 0.172-0.804 0.689-0.574 0.287 0.115 0.517 0.057 0.804 0.057-0.057-0.057-0.057-0.115-0.057-0.115-0.23-0.115-0.631-0.057-0.517-0.402 0.057-0.344 0.287-0.631 0.631-0.689 0.23-0.057 0.287 0.057 0.402 0.172 0.23 0.23-0.057 0.23-0.115 0.287-0.115 0.057-0.115 0.115 0 0.287 0.172 0.402-0.115 0.918-0.631 0.804-0.517-0.057-0.976 0-1.378 0.344 0.057 0.23 0.402 0 0.517 0.287-0.172 0.172-0.344 0.402-0.689 0.402-0.115 0-0.23 0.057-0.23 0.172s0.057 0.115 0.172 0.172c0.23 0.057 0.115 0.23 0.115 0.344-0.057 0.23-0.115 0.459-0.172 0.631-0.115 0.459 0.115 0.746 0.574 0.918 0.23 0.115 0.402 0.402 0.517 0.631 0.057 0.23-0.172 0.23-0.344 0.344-0.287 0.115-0.402-0.057-0.574-0.287-0.344-0.574-0.804-1.091-1.091-1.722-0.287-0.517-0.287-1.033 0-1.55zM20.649 18.698v0c-0.287 0.517-0.746 0.517-1.148 0.517-0.115 0-0.23-0.057-0.287-0.172 0-0.115 0.115-0.23 0.23-0.287 0.344-0.172 0.746-0.115 1.205-0.057zM16.976 11.465c-0.172 0-0.402 0.057-0.631 0.115-0.287 0.057-0.574 0.172-0.631 0.517 0 0.344-0.23 0.402-0.517 0.287s-0.689-0.23-1.033-0.287c-0.402 0-0.574-0.172-0.459-0.517 0.057-0.402-0.057-0.631-0.287-0.861-0.23-0.172-0.287-0.402-0.402-0.689-0.057-0.344-0.115-0.631 0.287-0.861 0.402-0.287 0.631 0.115 0.746 0.344 0.172 0.23 0.287 0.574 0.574 0.574 0.344 0 0.746-0.115 1.091-0.287 0.287-0.172 0.459-0.115 0.631 0.115 0.172 0.287 0.459 0.517 0.804 0.689 0.172 0.057 0.287 0.23 0.23 0.459h-0c0 0.23-0.172 0.344-0.402 0.402zM16.976 16.172c-0.746 0-1.091-0.517-1.435-1.091 0.631 0.23 1.033 0.631 1.435 1.091zM15.77 13.532c0 0.115-0.115 0.115-0.172 0.057-0.804-0.344-1.779-0.402-2.468-1.205 0.976 0 1.722 0.459 2.468 0.861 0.115 0.057 0.23 0.172 0.172 0.287zM16.287 9.227c0.23-0.172 0.402-0.344 0.459-0.689h0c0.287 0.23 0.287 0.459 0.115 0.689-0.115 0.172-0.344 0.23-0.574 0zM6.714 26.105c0.007-0.005 0.014-0.010 0.021-0.015-0.007 0.005-0.014 0.010-0.021 0.015zM6.767 26.072c0.003-0.002 0.005-0.003 0.008-0.005-0.003 0.001-0.005 0.003-0.008 0.005z" fill="#000000" />
</svg>
