<?xml version="1.0" encoding="utf-8"?>
<!-- Generator: Adobe Illustrator 16.0.0, SVG Export Plug-In . SVG Version: 6.00 Build 0)  -->
<!DOCTYPE svg PUBLIC "-//W3C//DTD SVG 1.1//EN" "http://www.w3.org/Graphics/SVG/1.1/DTD/svg11.dtd">
<svg version="1.1" id="Layer_1" xmlns="http://www.w3.org/2000/svg" xmlns:xlink="http://www.w3.org/1999/xlink" x="0px" y="0px"
	 width="262.726px" height="262.726px" viewBox="0 0 262.726 262.726" enable-background="new 0 0 262.726 262.726"
	 xml:space="preserve">
<g>
	<path d="M131.364,0C58.93,0,0,58.929,0,131.361c0,72.435,58.93,131.364,131.364,131.364s131.362-58.93,131.362-131.364
		C262.726,58.929,203.797,0,131.364,0z M131.364,253.405c-21.13,0-41.005-5.372-58.336-14.821c-7.472-1.131-14.852-2.765-21.73-6.21
		c-2.546-1.274-5.342-2.646-5.253-6.006c0.061-2.313,1.453-3.711,3.159-4.762C24.7,199.285,9.32,167.119,9.32,131.361
		C9.32,63.962,63.961,9.32,131.364,9.32c67.402,0,122.042,54.642,122.042,122.041C253.406,198.764,198.766,253.405,131.364,253.405z
		"/>
	<path fill="#010101" d="M108.913,242.403c7.666,0,15.332,0,22.999,0c9.908-1.009,19.844-1.82,29.722-3.078
		c9.72-1.239,19.462-2.752,28.231-7.519c5.668-3.08,5.711-7.239,0.275-10.524c-1.97-1.191-4.152-2.136-6.349-2.836
		c-16.312-5.199-33.149-6.762-50.157-7.117c-4.527-0.096-6.663-3.436-4.242-7.168c4.24-6.537,8.238-13.399,13.462-19.094
		c11.84-12.906,7.381-12.971,24.233-7.1c3.922,1.365,8.015,2.469,11.864-0.607c3.123-2.496,5.763-6.897,10.783-3.052
		c0.608,0.466,1.432-0.476,2.156-0.815c1.672-0.783,4.182-1.642,4.869-2.412c2.438-2.725,8.899-1.846,7.557-8.123
		c-0.297-1.389,1.694-2.19,2.914-2.196c2.894-0.015,6.032-0.613,8.149,2.438c0.886,1.278,2.008,2.817,4.095,1.799
		c0.473-2.06-2.793-3.244-1.313-5.394c2.04-2.962-0.49-2.386-1.876-2.422c-4.383-0.112-8.475,1.603-12.746,2.16
		c-2.702,0.351-6.453-1.755-6.166,3.813c0.064,1.248-2.411,2.142-4.018,2.58c-10.904,2.979-21.953,5.036-33.321,4.668
		c-2.128-0.069-4.108-0.764-5.093-3.131c3.145-1.746,6.244-2.091,9.403-2.162c5.886-0.135,10.718-2.039,13.476-7.709
		c0.918-1.888,2.398-3.056,4.757-2.918c7.702,0.445,15.259-0.976,22.823-2.065c6.981-1.007,12.188-6.267,18.826-8.194
		c0.426-0.123,0.793-1.074,0.871-1.68c0.771-5.965,6.092-4.801,9.594-5.449c2.017-0.374,3.117-0.395,3.095-2.377
		c-0.021-1.677,1.329-4.071-2.2-4.402c-2.867-0.27-5.574-0.99-6.563-4.719c-0.644-2.427-2.72-4.477-4.154-6.696
		c-2.652,2.642-6.652-0.717-8.838,1.456c-4.391,4.372-10.301,7.981-10.159,15.438c0.013,0.655-1.328,0.788-0.652,1.996
		c3.958,7.067,2.005,8.196-4.504,10.051c-9.321,2.657-19.096,0.642-28.634,1.548c-1.354,0.129-2.903,0.459-4.277-0.591
		c0.913-1.761,1.581-3.468,2.602-4.931c1.906-2.728,4.832-4.855,7.933-3.715c4.58,1.685,8.558,0.801,12.862-0.533
		c7.664-2.379,11.197-12.136,6.345-18.169c-0.644-0.8-1.44-1.39-0.384-2.461c0.945-0.96,1.747-1.515,2.79-0.117
		c0.915,1.227,2.442,1.199,2.792-0.044c1.117-3.974,4.804-4.51,7.617-6.157c1.615-0.947,3.385-2.819,1.711-3.579
		c-3.401-1.547-3.049-5.473-5.986-7.258c-2.73-1.658-0.465-4.347,0.204-6.501c0.164-0.526,0.491-2.112,1.271-1.544
		c4.553,3.317,9.262-0.266,13.842,0.517c1.416,0.242,3.55,0.574,3.832-1.247c0.291-1.884-2.119-1.677-3.32-2.37
		c-3.018-1.739-5.202-2.79-1.415-6.669c4.76-4.878,4.244-5.69-1.162-12.241c-3.03,3.942-3.914,4.195-4.272,2.372
		c-0.851-4.327-5.078-4.687-7.463-7.14c-0.742-0.764-1.795-0.665-3.041,0.186c-4.566,3.114-7.488,2.354-9.738-2.749
		c-1.082-2.458-2.411-2.832-3.996-1.333c-2.645,2.503-4.285,6.603-9.168,4.683c-0.086-0.034-0.7,0.71-0.686,1.076
		c0.109,2.686-3.746,4.671-1.154,7.992c0.656,0.84,0.863,3.778-1.607,4.576c-1.824,0.589-2.691-0.888-3.645-2.005
		c-1.353-1.587-1.742-2.922,0.391-4.457c2.145-1.543,3.09-3.857,2.234-6.615c-0.465-1.494,0.162-2.07,1.695-2.181
		c5.219-0.379,8.364-3.46,9.859-8.227c0.539-1.721,1.429-3.169,2.988-2.3c3.422,1.91,7.547,0.463,10.944,3.168
		c2.812,2.238,6.986,1.815,10.57,2.304c2.97,0.406,7.623-4.696,6.051-6.024c-3.915-3.307-6.709-8.065-12.046-9.604
		c-3.359-0.97-6.425-2.411-7.622-6.083c-0.604-1.858-2.069-2.813-3.724-2.778c-3.023,0.061-5.348-1.662-7.711-2.893
		c-3.231-1.682-6.332-1.861-9.404-0.549c-2.904,1.239-5.318,1.01-8.016-0.468c-2.692-1.475-5.349-1.267-8.502-0.233
		c-3.108,1.019-5.605,4.46-8.521,3.727c-2.667-0.671-5.188-0.634-7.751-0.717c-5.794-0.187-11.963,1.102-17.283-0.508
		c-4.264-1.291-5.821,0.123-8.184,2.451c-2.651,2.613-3.933,6.126-6.269,8.908c-1.867,2.223-4.239,4.194-7.2,2.429
		c-5.944-3.541-11.632-7.595-19.098-4.483c-0.436,0.182-0.998,0.172-1.483,0.108c-5.548-0.73-10.631-0.291-16.145,1.906
		c-3.747,1.493-4.688,3.285-4.825,6.222c-0.104,2.22-1.32,2.115-2.56,1.906c-5.979-1.011-11.806,0.5-17.615,1.279
		c-2.556,0.343-6.811,2.218-6.032,5.074c0.901,3.299,1.171,6.654,1.998,9.916c0.996,3.927,3.916,8.051-1.46,11.159
		c-0.571,0.33-0.762,0.991-0.266,1.708c0.984,1.423-0.749,4.315,0.851,4.471c2.45,0.239,5.245,1.691,7.128,0.949
		c3.82-1.504,7.794-0.111,11.529-1.553c1.075-0.415,2.398-2.091,4.013-0.509c3.519,3.446,9.241,3.599,12.167,8.035
		c0.213,0.324,1.215,0.201,1.843,0.165c9.847-0.561,19.439,0.091,26.771,7.772c3.534,3.702,7.674,5.518,12.519,6.578
		c5.826,1.275,11.73,2.571,16.599,6.379c1.151,0.901,2.71,2.066,1.892,3.67c-0.842,1.649-2.405,0.247-3.541-0.047
		c-8.022-2.076-15.763-2.032-23.146,2.351c-1.389,0.825-3.089,1.339-4.702,1.531c-5.885,0.702-9.669-4.305-6.844-9.435
		c1.092-1.983,0.041-2.912-0.656-3.804c-1.797-2.297-3.79-4.515-6.03-6.374c-3.259-2.704-7.535-1.747-7.697,1.813
		c-0.181,3.986-0.886,6.732-5.141,8.024c-1.559,0.474-1.447,1.417,0.342,2.971c2.136,1.855,7.123-0.981,6.834,4.242
		c0,0.012,0.666,0.194,0.892,0.067c4.8-2.704,6.793,1.429,9.448,3.877c4.855,4.474,7.02,4.786,12.925,1.695
		c1.472-0.771,2.921-1.592,4.341-2.454c3.485-2.116,6.743-1.216,9.525,1.145c2.001,1.697,3.727,3.831,5.18,6.032
		c2.261,3.429,5.376,5.686,9.263,6.137c8.203,0.951,12.118,4.881,12.661,13.455c0.301,4.762-2.656,7.289-4.234,10.727
		c-1.887,4.113-5.444,5.271-10.006,4.584c-8.186-1.233-14.267-5.965-20.167-11.176c-1.987-1.754-2.597-3.512-1.182-6.104
		c1.767-3.234,2.017-6.538-1.463-9.041c-3.28,2.476,0.355,5.691-1.073,8.523c-1.838-1.258-3.373-2.488-5.068-3.431
		c-4.616-2.563-9.951-4.362-9.088-11.448c0.157-1.284-1.889-2.773-3.402-2.122c-3.607,1.555-6.755-0.107-9.918-1.054
		c-3.993-1.194-5.679,0.431-5.953,4.084c-0.143,1.897-0.345,3.393-2.075,4.691c-2.922,2.193,0.389,4.296,0.763,6.34
		c0.283,1.548,2.577,0.467,3.898-0.159c4.888-2.313,11.465-1.317,14.948,2.375c0.904,0.96,1.947,2.106,0.877,3.501
		c-1.297,1.689-2.461,3.191,0.957,3.418c2.029,0.135,0.665,4.008,3.962,3.078c7.632-2.152,11.55,3.324,15.169,8.463
		c1.925,2.732,3.574,5.434,6.471,7.378c7.578,5.087,7.156,8.191-0.08,13.507c-7.405,5.44-13.505,12.313-15.913,21.567
		c-0.6,2.306-1.653,2.89-3.766,2.935c-7.822,0.164-15.604,0.916-23.34,2.049c-9.377,1.371-18.756,2.838-27.423,6.975
		c-0.752,0.358-1.523,0.739-2.239,1.18c-1.707,1.051-3.098,2.449-3.159,4.762c-0.089,3.36,2.707,4.731,5.253,6.006
		c6.878,3.445,14.258,5.079,21.73,6.21c1.715,0.26,3.436,0.492,5.156,0.715C88.389,240.618,98.667,241.391,108.913,242.403z
		 M137.939,64.902c2.637,1.74,2.631,4.003,1.377,5.888c-1.232,1.852-3.279,1.93-5.369-0.043
		C136.121,69.176,137.63,67.633,137.939,64.902z M129.629,109.554c-0.255,0.671-1.05,0.836-1.692,0.541
		c-7.311-3.362-16.028-3.992-22.271-11.182c8.872,0.324,15.607,4.237,22.417,7.889C129.043,107.317,130.17,108.13,129.629,109.554z
		 M127.207,123.152c5.858,2.283,9.414,5.565,13.275,9.964C133.477,132.834,130.542,128.631,127.207,123.152z M143.89,87.511
		c-0.244,1.99-1.775,2.717-3.426,3.155c-1.914,0.508-3.859,0.908-5.811,1.258c-2.811,0.503-5.011,1.536-5.506,4.787
		c-0.442,2.898-2.321,3.557-4.728,2.238c-2.877-1.576-6.079-1.818-9.148-2.166c-3.648-0.414-5.17-1.755-4.274-4.961
		c0.363-3.285-0.411-5.708-2.687-7.547c-1.92-1.551-2.75-3.734-3.36-5.991c-0.838-3.098-1.223-6.026,2.178-8.156
		c3.993-2.501,5.776,1.156,7.07,3.114c1.477,2.235,2.595,5.424,5.101,5.479c3.184,0.07,6.67-1.104,9.531-2.654
		c2.486-1.347,4.144-1.121,5.563,0.814c1.926,2.627,4.342,4.55,7.133,6.09C143.33,83.966,144.14,85.479,143.89,87.511z
		 M172.968,155.53c-2.675,4.674-6.361,4.981-10.238,4.852c-1.088-0.037-2.08-0.555-2.309-1.525c-0.313-1.322,0.777-2.043,1.84-2.586
		C165.523,154.604,168.914,155.323,172.968,155.53z M163.351,66.992c3.678,4.81,3.471,11.879-0.02,15.643
		c-1.447,1.559-3.139,2.953-4.91,4.135c-2.208,1.475-4.75,4.076-7.143,0.603c-2.088-3.033-0.508-7.426,2.938-8.959
		C159.019,76.278,162.503,73.116,163.351,66.992z M146.845,71.594c3.337-3.233,4.682-7.261,6.393-11.242
		c0.256-0.593,0.689-1.599,2.183-1.233c0.718,2.211,1.087,4.702,2.442,7.003c1.67,2.833-5.072,10.65-8.297,9.854
		C147.492,75.465,145.56,72.84,146.845,71.594z M146.787,121.23c-2.25-4.812-2.323-9.13,0.123-13.752
		c1.156-2.182,2.037-4.549,2.746-6.921c1.41-4.716,2.896-5.226,6.637-1.899c0.854,0.759,1.408,1.854,2.945,3.943
		c0.414-6.405,1.588-7.136,6.095-4.99c2.397,1.143,4.706,0.746,7.185,0.536c-0.195-0.584-0.207-1.034-0.406-1.142
		c-1.851-1.014-5.434-0.385-4.879-3.711c0.498-2.993,2.73-5.211,5.926-6.118c1.854-0.526,2.639,0.681,3.672,1.791
		c1.738,1.869-0.516,1.773-1.131,2.277c-1.141,0.934-0.959,1.377-0.258,2.72c1.955,3.752-1.011,8.312-5.223,7.462
		c-4.77-0.963-8.684-0.446-12.352,2.835c0.588,2.161,3.488,0.252,4.568,2.632c-1.658,1.563-3.187,3.547-6.09,3.566
		c-1.092,0.006-2.033,0.418-2.267,1.544c-0.233,1.123,0.692,1.241,1.53,1.421c2.084,0.445,1.289,2.018,1.065,3.185
		c-0.375,1.954-0.987,3.861-1.474,5.794c-1.053,4.183,1.062,6.69,5.229,8.171c1.895,0.672,3.535,3.249,4.387,5.331
		c0.842,2.068-1.615,2.493-3.057,3.132c-2.513,1.117-3.719-0.155-5.084-2.295C153.376,131.58,149.431,126.886,146.787,121.23z
		 M122.397,167.067c4.114,0.627,7.298,0.615,9.191,5.379C127.888,170.972,125.199,170.021,122.397,167.067z"/>
</g>
</svg>
