<?xml version="1.0" encoding="utf-8"?>
<!-- Generator: Adobe Illustrator 18.1.1, SVG Export Plug-In . SVG Version: 6.00 Build 0)  -->
<svg version="1.1" id="Layer_1" xmlns="http://www.w3.org/2000/svg" xmlns:xlink="http://www.w3.org/1999/xlink" x="0px" y="0px"
	 viewBox="0 0 18.9 18.9" enable-background="new 0 0 18.9 18.9" xml:space="preserve">
<path fill-rule="evenodd" clip-rule="evenodd" fill="#010101" d="M9.5,0c5.1-0.1,9.7,4.3,9.5,9.8c-0.2,4.8-4.3,9.3-9.8,9.1
	C4.3,18.7-0.2,14.6,0,9.1C0.2,4.1,4.4-0.1,9.5,0 M7.4,10.5H0.8c-0.2,0-0.2,0-0.2,0.2c0.1,0.4,0.2,0.9,0.3,1.3c0,0.1,0.1,0.2,0.2,0.2
	c4.2,0,8.4,0,12.6,0c0,0,0.1,0,0.1,0c0.1,0,0.1,0,0.1-0.1c0.1-0.5,0.2-0.9,0.2-1.4c0-0.2,0.1-0.2-0.2-0.2
	C11.8,10.5,9.6,10.5,7.4,10.5 M7.4,8.7h4.3c0.8,0,1.6,0,2.4,0c0.1,0,0.2,0,0.1-0.1c-0.1-0.5-0.1-0.9-0.2-1.4c0-0.1-0.1-0.1-0.2-0.1
	c-0.8,0-1.6,0-2.4,0c-3.5,0-7,0-10.5,0c-0.1,0-0.2,0-0.2,0.2C0.8,7.7,0.7,8.1,0.6,8.5c0,0.2,0,0.2,0.2,0.2H7.4z M7.5,5.3h5.8
	c0.2,0,0.2,0,0.1-0.2c-0.2-0.5-0.5-0.9-0.7-1.4c0-0.1-0.1-0.1-0.2-0.1c-3.2,0-6.4,0-9.6,0c-0.1,0-0.2,0-0.2,0.1
	C2.3,4.1,2,4.6,1.7,5.1C1.6,5.2,1.6,5.3,1.8,5.3H7.5 M7.6,14c-1.9,0-3.7,0-5.6,0c0,0-0.1,0-0.1,0c0,0,0,0.1,0.1,0.1
	c0.3,0.5,0.7,0.9,1.1,1.4c0,0.1,0.2,0.1,0.2,0.1c3.1,0,6.1,0,9.2,0c0.1,0,0.2,0,0.2-0.1c0.2-0.5,0.5-0.9,0.7-1.4
	c0.1-0.2,0.1-0.2-0.1-0.2C11.3,14,9.5,14,7.6,14 M5,1.8C5,1.8,5.1,1.8,5,1.8c2,0,4,0,5.9,0c0,0,0.1,0,0.1,0c0,0,0-0.1-0.1-0.1
	c-0.5-0.4-1.1-0.8-1.7-1.1c-0.1,0-0.1,0-0.2,0c-0.6,0-1.2,0.1-1.8,0.3C6.4,1,5.7,1.3,5,1.8 M5.7,17.5C5.7,17.5,5.7,17.5,5.7,17.5
	c0,0.1,0.1,0.1,0.1,0.1c1,0.5,2.2,0.7,3.3,0.8c0.2,0,0.4,0,0.6-0.1c0.2-0.2,0.5-0.3,0.7-0.5c0.1-0.1,0.2-0.1,0.3-0.2
	c0,0,0,0,0.1-0.1c0,0-0.1,0-0.1,0c0,0,0,0-0.1,0H5.8H5.7z"/>
</svg>
