<?xml version="1.0" encoding="utf-8"?>
<!-- Generated by IcoMoon.io -->
<!DOCTYPE svg PUBLIC "-//W3C//DTD SVG 1.1//EN" "http://www.w3.org/Graphics/SVG/1.1/DTD/svg11.dtd">
<svg version="1.1" xmlns="http://www.w3.org/2000/svg" xmlns:xlink="http://www.w3.org/1999/xlink" width="32" height="32" viewBox="0 0 32 32">
	<path d="M29.188 12.187l-1.125 3.688-2.5-3.688h-2.188l-2.188 7.188h2.75l1.125-3.625 2.438 3.625h2.25l2.125-7.188zM7.938 12.187l-1.125 3.688-2.438-3.688h-2.188l-2.188 7.188h2.75l1.125-3.625 2.438 3.625h2.188l2.188-7.188zM5 21h-1.25c1.563 4.5 5.313 7.875 9.875 8.813v-1.25c-3.938-0.875-7.125-3.75-8.625-7.563zM28.313 21h-1.25c-1.5 3.813-4.688 6.688-8.563 7.563v1.25c4.5-0.938 8.25-4.313 9.813-8.813zM16 3.375c5 0 9.25 3.25 11.063 7.813h1.25c-1.875-5.313-6.625-9.063-12.313-9.063-5.625 0-10.375 3.75-12.25 9.063h1.25c1.75-4.563 6.063-7.813 11-7.813zM6.313 11.187h1.375c1.438-2.875 4.188-4.875 7.375-5.188v-1.313c-3.875 0.375-7.125 2.938-8.75 6.5zM24.375 11.187h1.375c-1.625-3.563-4.875-6.125-8.75-6.5v1.313c3.188 0.313 5.938 2.313 7.375 5.188zM7.688 21h-1.375c1.375 3.063 4.063 5.438 7.313 6.188v-1.313c-2.563-0.688-4.688-2.5-5.938-4.875zM25.75 21h-1.375c-1.25 2.375-3.313 4.188-5.875 4.875v1.313c3.188-0.813 5.875-3.125 7.25-6.188zM22.813 21h-1.5c-0.75 0.875-1.75 1.625-2.813 2.063v1.313c1.75-0.563 3.313-1.813 4.313-3.375zM10.75 21h-1.5c1 1.625 2.563 2.813 4.375 3.438v-1.375c-1.125-0.438-2.125-1.188-2.875-2.063zM15.063 8.75v-1.313c-2.438 0.313-4.5 1.688-5.813 3.75h1.5c1.125-1.313 2.625-2.188 4.313-2.438zM17 7.437v1.313c1.688 0.25 3.188 1.125 4.313 2.438h1.5c-1.313-2.063-3.438-3.438-5.813-3.75zM20.438 15.5c0 0-0.063 0-0.063 0 0.125-0.125 0.188-0.188 0.313-0.25 0.438-0.5 0.688-1.125 0.688-1.875 0-0.313-0.063-0.625-0.188-0.938-0.125-0.25-0.313-0.563-0.5-0.75-0.25-0.25-0.5-0.438-0.75-0.563-0.313-0.188-0.625-0.25-1-0.375-0.25-0.063-0.5-0.063-0.75-0.063-0.188-0.063-0.438-0.063-0.75-0.063h-5.063l-2.188 9.875h5.188c0.375 0 0.75-0.063 1-0.063 0.125 0 0.188 0 0.313 0 0.5-0.063 0.813-0.063 1.063-0.125 0.5-0.063 0.938-0.25 1.375-0.438 0.375-0.188 0.75-0.438 1-0.688 0.313-0.313 0.563-0.625 0.688-1 0.188-0.375 0.25-0.75 0.25-1.125 0-0.313-0.063-0.563-0.188-0.875-0.125-0.25-0.25-0.5-0.438-0.688zM14.188 12.687h3.25c0.188 0 0.375 0 0.5 0 0.125 0.063 0.188 0.063 0.313 0.063v0c0.25 0.063 0.438 0.188 0.5 0.25 0.125 0.125 0.188 0.25 0.188 0.438 0 0.188-0.063 0.375-0.125 0.5-0.063 0.125-0.188 0.25-0.313 0.375-0.188 0.125-0.375 0.188-0.563 0.25-0.25 0-0.5 0.063-0.75 0.063h-3.438zM13.5 16.312h3.875c0.313 0 0.563 0 0.688 0.063 0.25 0.063 0.375 0.125 0.5 0.25 0.063 0.125 0.125 0.25 0.125 0.438 0 0.125 0 0.25-0.063 0.375-0.063 0.125-0.125 0.25-0.25 0.313-0.063 0.125-0.25 0.25-0.375 0.313-0.188 0.125-0.438 0.188-0.75 0.25-0.063 0-0.5 0.063-0.688 0.063-0.125 0-0.188 0-0.25 0-0.188 0.063-0.438 0.063-0.75 0.063h-2.563z" fill="#000000" />
</svg>
