<?xml version="1.0" encoding="utf-8"?>
<!-- Generator: Adobe Illustrator 18.1.1, SVG Export Plug-In . SVG Version: 6.00 Build 0)  -->
<svg version="1.1" id="Layer_1" xmlns="http://www.w3.org/2000/svg" xmlns:xlink="http://www.w3.org/1999/xlink" x="0px" y="0px"
	 viewBox="0 0 29.8 16.1" enable-background="new 0 0 29.8 16.1" xml:space="preserve">
<path fill-rule="evenodd" clip-rule="evenodd" fill="#010101" d="M29.1,2.5C29,2.4,29,2.4,29,2.3c0-0.1-0.1-0.1-0.1-0.2
	c0.1-0.1,0.2,0,0.3,0c0.1,0,0.3,0,0.4,0.1c0,0,0.1,0,0.1,0c0,0,0-0.1-0.1-0.1c0,0-0.1-0.1-0.2-0.1c0.1,0,0.1,0,0.1,0
	c0.2,0,0.2,0,0.2-0.2c0-0.1,0-0.1,0.1-0.3c-0.2,0-0.4-0.1-0.5-0.1c0,0,0,0,0,0c0.1,0.1,0.3,0.1,0.3,0.2c-0.2,0-0.5-0.1-0.7-0.3
	c0.1,0,0.2-0.1,0.3-0.1c-0.3-0.3-0.7-0.3-1.1-0.4c0,0,0,0,0,0c0,0,0.1,0.1,0.1,0.1c0.2,0.1,0.3,0.1,0.5,0.2c0,0,0.1,0.1,0.1,0.1
	c0,0,0,0,0,0c-0.1-0.1-0.3-0.1-0.4-0.2c-0.3-0.1-0.5-0.3-0.8-0.4c-0.1-0.1-0.3-0.1-0.4-0.1c-0.2,0-0.3-0.1-0.5-0.1
	c-0.2,0-0.4-0.1-0.6-0.1c-0.2,0.1-0.3,0.1-0.5,0.1c-0.4,0-0.7-0.1-1.1-0.1c-0.1,0-0.1,0-0.2,0c0.1,0,0.2,0,0.3-0.1
	c0,0,0.1-0.1,0.1-0.1c0,0-0.1-0.1-0.1-0.1c-0.3,0-0.7,0-1,0.1c-0.2,0.1-0.5,0-0.7,0c-0.1,0-0.3,0-0.4,0c0,0,0,0,0,0c0,0,0,0,0,0
	c-0.4,0-0.8,0.1-1.2,0c-0.1,0-0.2,0-0.3,0c-0.3,0.1-0.5,0.2-0.8,0.2c-0.5,0.1-0.9,0.1-1.4,0.4c-0.2,0.1-0.4,0.1-0.6,0.2
	c-0.2,0.1-0.4,0.2-0.6,0.3c0,0,0,0.1-0.1,0.1c0,0,0,0.1-0.1,0.1c-0.7,0.4-1.4,0.7-2.1,0.9c-0.1,0-0.2,0.1-0.4,0.1
	c0,0.1,0,0.1,0.1,0.2c-0.1,0.1-0.2,0.1-0.4,0.1c0,0-0.1,0-0.1-0.1c-0.1-0.1-0.1-0.1-0.2-0.1c-0.1,0-0.2,0-0.3,0.1c0,0-0.2,0-0.2,0
	c-0.2,0.1-0.4,0.2-0.5,0.3c-0.2,0.1-0.4,0.2-0.6,0.3c-0.1,0.1-0.1,0.1,0,0.2c-0.1,0.1-0.2,0.1-0.3,0.2c0,0.2-0.2,0.3-0.4,0.4
	c-0.3,0.1-0.5,0.3-0.8,0.4c-0.3,0.2-0.7,0.5-1,0.7C9.8,5.4,9.6,5.6,9.4,5.7C9.2,5.8,9.1,5.9,8.9,6C8.6,6.2,8.4,6.4,8.1,6.7
	C7.9,6.8,7.8,6.9,7.7,7.1C7.6,7.1,7.5,7.2,7.5,7.2C7.3,7.4,7.1,7.5,6.9,7.6C6.6,7.9,6.3,8.1,6,8.4C5.8,8.6,5.6,8.9,5.5,9.1
	C5.4,9.2,5.4,9.3,5.4,9.4c0,0,0,0,0,0c0-0.1-0.1-0.2-0.1-0.2c-0.1,0-0.2,0-0.3,0.1C4.7,9.3,4.6,9.4,4.6,9.6c0,0.2-0.1,0.4-0.3,0.5
	c0-0.2-0.1-0.1-0.1-0.1c-0.1,0-0.3,0.1-0.4,0.2c0,0,0,0.1-0.1,0.1c0,0,0.1,0,0.1,0c0.1,0,0.1,0,0.2,0c0,0,0,0,0,0l-0.3,0.3
	c0,0,0,0,0,0c0.1-0.1,0.1-0.1,0.2-0.2c-0.1-0.1-0.2-0.1-0.3,0c-0.2,0.2-0.4,0.3-0.6,0.5c0,0-0.1,0.1-0.1,0.1c0,0,0,0,0,0
	C3,11.1,3.2,11,3.4,10.8c0,0.1,0,0.2-0.1,0.3c-0.1,0.1-0.3,0.2-0.4,0.3c0,0,0-0.1,0.1-0.1c0,0,0,0,0,0c-0.1,0.1-0.3,0.1-0.4,0.2
	c-0.1,0-0.1,0.1-0.1,0.2c0,0,0,0.1-0.1,0.1C2.1,11.9,2,12,1.8,12.1c0,0,0,0,0,0.1c0,0,0.1,0,0.1,0c0,0,0.1,0,0.2,0
	c-0.1,0.1-0.3,0.2-0.4,0.2c0.1-0.2,0.1-0.3,0.2-0.5c-0.2,0-0.3,0.1-0.4,0.1c-0.3,0.1-0.5,0.3-0.8,0.5c0,0-0.1,0-0.1,0.1
	c0,0,0,0.1,0,0.1c0,0,0.1,0,0.1,0c0.2,0,0.3,0,0.5,0C1,12.9,0.8,13,0.7,13c-0.2,0.1-0.4,0.3-0.6,0.4C0,13.5,0,13.6,0,13.7
	c0.7,0.2,1.3,0.4,2,0.6c0.2,0.1,0.4,0.1,0.6,0.1c0.4,0.1,0.9,0.2,1.3,0.3c0.6,0.2,1.2,0.4,1.8,0.6c0.3,0.1,0.5,0.1,0.8,0.2
	c0.3,0.1,0.6,0.2,0.9,0.3C7.6,15.9,8,15.9,8.4,16c0.4,0.1,0.9,0.1,1.3,0.1c0.4,0,0.8,0,1.3,0c0.3,0,0.7,0,1,0c0.3,0,0.7,0,1-0.1
	c0.3,0,0.6-0.1,1-0.2c0.3-0.1,0.5-0.1,0.8-0.2c0,0,0.1,0,0.1,0c0.2-0.1,0.4-0.2,0.6-0.2c0.1,0,0.2,0,0.2-0.1
	c0.6-0.2,1.3-0.4,1.9-0.6c0.2-0.1,0.4-0.1,0.5-0.1c0.3-0.1,0.5-0.2,0.7-0.4c0.1-0.1,0.2-0.2,0.3-0.2c0.4-0.2,0.8-0.4,1.2-0.5
	c0.1,0,0.2-0.1,0.3-0.2c0,0,0.1,0,0.1,0c0.1,0.1,0.2,0,0.3-0.1c0.1,0,0.2,0,0.3-0.1c0.1-0.1,0.2-0.1,0.3-0.2
	c0.1-0.1,0.3-0.2,0.4-0.3c0.1-0.1,0.1-0.1,0-0.2c0,0,0,0,0,0c0.1-0.1,0.2-0.2,0.2-0.3c0.1-0.1,0.3-0.2,0.4-0.3
	c0.1-0.1,0.3-0.3,0.4-0.4c0.1-0.1,0.1-0.1,0.2-0.2c0.1-0.1,0.2-0.2,0.3-0.3c0.2-0.3,0.6-0.4,0.8-0.6c0.2-0.1,0.4-0.3,0.6-0.5
	c0.2-0.1,0.4-0.3,0.5-0.4c0.2-0.2,0.5-0.3,0.7-0.5c0.2-0.2,0.3-0.4,0.5-0.5c0.1-0.1,0.1-0.2,0.1-0.3c0,0,0,0,0,0
	c0.1,0.2,0.3,0.3,0.5,0.1c0,0,0.1-0.1,0.1-0.1c0,0,0-0.1,0-0.1c0-0.2,0-0.3,0.3-0.5c0,0,0,0.1,0,0.1c0,0,0.1,0,0.1,0
	c0.1,0,0.1,0,0.2,0C28,7.6,28,7.6,28,7.5c-0.1,0-0.2,0-0.3-0.1c0.1-0.1,0.2-0.2,0.3-0.2c0.2,0,0.2,0,0.2-0.2c0-0.1-0.1-0.1-0.2-0.1
	c-0.1,0-0.2,0.1-0.3,0.1c0,0-0.1,0-0.1,0c0.2-0.2,0.4-0.3,0.6-0.5c0.1-0.1,0.2-0.1,0.1-0.2c0,0-0.2,0-0.3,0c-0.3,0-0.5,0.2-0.8,0.4
	c-0.1,0-0.2,0.1-0.2,0.2C27,6.9,26.9,7,26.8,7c-0.3,0.2-0.6,0.3-1,0.5c-0.2,0.1-0.4,0.1-0.6,0.2c-0.2,0.1-0.4,0.4-0.6,0.6
	c-0.1,0.1-0.3,0.3-0.4,0.4c0,0-0.1,0-0.2,0c-0.2,0.1-0.4,0.2-0.6,0.3c-0.1,0.1-0.2,0.1-0.3,0.1c-0.1,0-0.1,0.1-0.2,0.1
	c-0.1,0-0.1,0.1-0.2,0.2c0-0.1,0-0.2,0.1-0.2c0,0-0.1-0.1-0.1-0.1c0,0,0,0.1-0.1,0.2c-0.1,0.2-0.4,0.4-0.6,0.6
	c-0.1,0.1-0.3,0.3-0.4,0.4c-0.1,0.1-0.2,0.2-0.3,0.3c-0.2,0.1-0.4,0.3-0.6,0.4c0-0.1,0-0.2,0-0.3c0-0.1,0-0.2,0-0.3
	c0,0,0.1,0.1,0.1,0.1c0.1,0,0.1,0,0.2,0c0.1-0.1,0.2-0.2,0.3-0.4c0-0.1,0-0.2-0.1-0.3c-0.2-0.2-0.1-0.4-0.1-0.7c0,0,0.1,0.1,0.1,0.1
	c0,0,0.1,0,0.1-0.1c0.1-0.1,0.2-0.3,0.1-0.5c0,0,0-0.1-0.1-0.1c0,0-0.1,0-0.1,0.1c0,0.1-0.1,0.1-0.1,0.2c0,0,0,0,0,0
	c0-0.1,0-0.3,0-0.4c0-0.1,0-0.1,0.1-0.2c0-0.1-0.1-0.3-0.2-0.3c0,0-0.1,0.1-0.1,0.1C21,8.1,21,8.2,21,8.4c0,0,0,0.1-0.1,0.1
	c0-0.1,0-0.2,0-0.4c0-0.3-0.1-0.6-0.3-0.9c0,0,0-0.1,0-0.2c0-0.2,0-0.3,0-0.5c0,0,0-0.1,0-0.1c0-0.2,0-0.3,0-0.5c0,0,0.1,0,0.1,0.1
	c-0.1-0.3-0.2-0.7-0.2-1c0.2,0,0.4,0,0.6,0c0,0,0,0,0,0c-0.1,0-0.2,0-0.2-0.1c-0.1,0-0.1,0-0.1-0.1c-0.1-0.1-0.2-0.1-0.3-0.2
	c-0.1,0-0.1,0-0.2-0.1c0,0,0,0,0,0c0.1,0,0.2-0.1,0.2-0.1c0.2,0,0.4,0,0.6-0.1c0.3,0,0.6,0,0.9-0.1c0.1,0,0.1,0,0.2-0.1c0,0,0,0,0,0
	c0,0-0.1-0.1-0.1-0.1c-0.2,0-0.5-0.1-0.7-0.1c0.2,0,0.3-0.1,0.5-0.1c0,0,0.1,0,0.1-0.1c0,0,0-0.1-0.1-0.1c-0.1-0.1-0.1-0.1-0.2-0.2
	c0.1-0.1,0.1-0.1,0.2-0.2c-0.5,0-0.9,0-1.4,0c0.1-0.1,0.1-0.3,0.2-0.4c0.2-0.3,0.3-0.7,0.5-1c0-0.1,0.1-0.1,0.2-0.1
	c0.1,0,0.1,0,0.2,0c-0.1,0.2-0.3,0.4-0.4,0.7c0,0,0.1,0,0.1,0c0.2-0.2,0.4-0.3,0.5-0.6c0-0.1,0-0.1,0.1-0.1c0.4-0.1,0.9-0.2,1.3-0.2
	c0.3,0,0.6-0.1,1-0.1c0.3,0,0.5-0.1,0.8-0.1c0.2,0,0.4,0,0.6,0.1c0.1,0,0.2,0.1,0.4,0.1c0.1,0,0.1,0,0.1,0.1c0,0.1,0,0.2,0.1,0.2
	c0.3,0.1,0.6,0.1,0.9,0c0.3,0,0.5,0.1,0.7,0.2c0.1-0.1,0.2-0.1,0.3,0c0.2,0.1,0.4,0.1,0.6,0.2c0,0,0,0,0.1,0
	C28.8,2.5,28.9,2.5,29.1,2.5 M10.9,7.4C10.9,7.4,10.9,7.4,10.9,7.4c0-0.2,0.1-0.4,0.2-0.5c0.1-0.1,0.2-0.3,0.3-0.4
	c0.7-0.9,1.5-1.7,2.2-2.6c0.1-0.1,0.1-0.1,0.2-0.1c0.2,0,0.4,0,0.6,0.2c0.1,0.1,0.3,0.2,0.4,0.3c0.9,0.5,1.7,1,2.6,1.5
	c0.1,0.1,0.2,0.2,0.3,0.3c0.1,0.4,0.1,0.8,0.2,1.2c0.1,0.9,0.3,1.8,0.4,2.7c0.1,0.5,0.2,1,0.1,1.5c0,0.1,0,0.1-0.1,0.2
	c-0.4,0.4-0.7,0.8-1.1,1.2c-0.5,0.6-1.1,1.2-1.6,1.9c-0.1,0.1-0.1,0.1-0.2,0.1c-0.2,0-0.4,0-0.6-0.2c-0.1-0.1-0.2-0.1-0.3-0.2
	c-0.9-0.5-1.8-1-2.7-1.6c-0.1-0.1-0.2-0.2-0.3-0.3c-0.1-0.4-0.1-0.8-0.2-1.2c-0.1-0.9-0.2-1.8-0.4-2.7C11,8.2,10.9,7.8,10.9,7.4
	 M8.5,9.6c0,0.2-0.1,0.3,0,0.4c0,0,0,0,0,0c0,0.2,0,0.3,0,0.5c-0.1,0.4,0,0.9,0.1,1.3c0.1,0.5,0.3,1,0.7,1.4
	c0.1,0.1,0.1,0.2,0.2,0.2c0-0.1,0-0.1,0.1-0.2c0.2,0.1,0.3,0.3,0.4,0.4C9.9,13.9,9.9,14,10,14.1c0.1,0.1,0.2,0.1,0.3,0.2
	c0.1,0,0.1,0.1,0.2,0.1c0.1,0.1,0.2,0.2,0.3,0.2c0.3,0.1,0.5,0.2,0.8,0.2c-0.2,0-0.3,0.1-0.5,0c0,0,0,0.1-0.1,0.1
	c-0.1,0-0.2,0-0.3,0c-0.3,0-0.5-0.1-0.8-0.1c-0.4-0.1-0.8-0.1-1.1-0.1c-0.3,0-0.6-0.1-0.9-0.2c-0.2,0-0.3-0.1-0.5-0.2
	c-0.3-0.1-0.7-0.2-1-0.3c0,0,0,0,0,0H7c-0.1,0-0.1-0.1-0.2-0.1c0.1,0,0.1,0,0.2,0c-0.2,0-0.3,0-0.5-0.1c-0.5-0.1-1-0.3-1.5-0.5
	c-0.3-0.1-0.6-0.3-0.9-0.2c-0.1,0-0.1,0-0.2,0c1.4-1,2.8-2.1,4.2-3.1c-0.1,0.3-0.3,0.6-0.2,1c0,0.1,0.1,0.2,0.1,0.3
	c0,0,0.1,0,0.1,0.1c0-0.2,0-0.4,0-0.5c0-0.2,0.1-0.4,0.1-0.5c0-0.1,0.1-0.1,0-0.2c0-0.1-0.1-0.1-0.1-0.2C8.3,9.8,8.4,9.7,8.5,9.6
	 M18.3,2.8c0,0.1,0.1,0.1,0.2,0.1c0.2-0.1,0.4-0.2,0.6-0.3c0.1,0,0.1-0.1,0.2-0.1c0,0,0,0,0,0c0,0-0.1,0.1-0.1,0.2c0,0,0.1,0,0.1,0
	c0,0,0,0.1-0.1,0.1c0.2-0.1,0.3-0.2,0.4-0.3c0,0,0,0,0,0c-0.1,0.2-0.2,0.4-0.4,0.7c0,0-0.1,0-0.1,0c-0.2,0-0.4,0-0.6,0
	c-0.4,0-0.8,0.1-1.1,0.2c-0.2,0-0.4,0.1-0.6,0.2c0,0,0,0,0,0c0.1,0,0.2,0,0.2,0c0.2,0,0.4,0,0.5,0c0.4-0.1,0.9-0.1,1.3-0.1
	c0,0,0.1,0,0.1,0c0,0,0,0,0,0c-0.9,0.1-1.9,0.1-2.8,0.2c0.1,0,0.2-0.1,0.4-0.2c0.2-0.2,0.5-0.3,0.7-0.5c0.1-0.1,0.3-0.2,0.4-0.2
	C17.9,2.9,18.1,2.9,18.3,2.8 M21.4,3.7L21.4,3.7c-0.4,0.1-0.7,0.1-1.1,0.1c0,0,0-0.1,0.1-0.1C20.7,3.6,21.1,3.7,21.4,3.7"/>
<path fill-rule="evenodd" clip-rule="evenodd" fill="#010101" d="M15.3,13.8c0.2-0.2,0.4-0.5,0.6-0.7c0.5-0.6,1.1-1.2,1.6-1.9
	c0,0,0.1-0.1,0.1-0.2c0-0.3-0.2-1-0.2-1l-1.7,1.6l-0.4-3.4c0,0,0.9-0.8,1.7-1.7c0,0,0-0.1-0.1-0.1C16,6,15,5.4,14,4.8
	c-0.1,0.2-0.3,0.3-0.4,0.5C13,6,12.4,6.7,11.8,7.4c-0.1,0.1-0.1,0.1-0.1,0.2c0.2,1.1,0.3,2.2,0.5,3.3c0.1,0.4,0.1,0.7,0.2,1.1
	c0,0,0,0.1,0.1,0.1C13.4,12.7,14.3,13.2,15.3,13.8C15.3,13.8,15.3,13.8,15.3,13.8"/>
</svg>
