<?xml version="1.0" encoding="utf-8"?>
<!-- Generator: Adobe Illustrator 16.0.0, SVG Export Plug-In . SVG Version: 6.00 Build 0)  -->
<!DOCTYPE svg PUBLIC "-//W3C//DTD SVG 1.1//EN" "http://www.w3.org/Graphics/SVG/1.1/DTD/svg11.dtd">
<svg version="1.1" id="Layer_1" xmlns="http://www.w3.org/2000/svg" xmlns:xlink="http://www.w3.org/1999/xlink" x="0px" y="0px"
	 width="1000px" height="1227px" viewBox="0 0 1000 1227" enable-background="new 0 0 1000 1227" xml:space="preserve">
<g transform="matrix(1 0 0 -1 0 800)">
	<path fill="#010101" d="M533.158,472.948l217.593-192.727V-78.292L533.158-274.128L318.673-78.294V280.22L533.158,472.948z
		 M697.907-54.462v309.814L533.16,403.523L374.626,259.496L533.16,107.179V-56.534L370.482,99.927V-54.462L533.16-203.669
		L697.907-54.462z M732.103,509.214c-109.836,61.133-220.704,75.639-338.826,42.481c-86.004-22.796-155.424-66.313-213.45-134.701
		l-14.507-14.506l111.905-78.747L32.691,252.244L-9.792,521.648l109.833-75.639l11.397,13.47
		c68.388,81.857,154.389,138.847,261.112,166.822c138.846,39.375,273.548,22.796,396.851-48.701
		c120.195-67.35,201.016-168.895,240.391-299.452l-75.64-20.722C899.96,368.296,832.609,451.187,732.103,509.214z"/>
</g>
</svg>
