<?xml version="1.0" encoding="utf-8"?>
<!-- Generated by IcoMoon.io -->
<!DOCTYPE svg PUBLIC "-//W3C//DTD SVG 1.1//EN" "http://www.w3.org/Graphics/SVG/1.1/DTD/svg11.dtd">
<svg version="1.1" xmlns="http://www.w3.org/2000/svg" xmlns:xlink="http://www.w3.org/1999/xlink" width="33" height="32" viewBox="0 0 33 32">
	<path d="M17.293 7.264l6.657 5.926v10.901l-6.657 5.999-6.584-5.999v-10.901l6.584-5.926zM22.341 23.432v-9.511l-5.048-4.536-4.828 4.463 4.828 4.609v4.975l-4.975-4.755v4.755l4.975 4.536 5.048-4.536zM23.365 6.167c-3.365-1.829-6.731-2.268-10.388-1.244-2.561 0.658-4.682 1.975-6.511 4.097l-0.439 0.439 3.438 2.414-7.462 2.195-1.317-8.267 3.365 2.341 0.366-0.439c2.048-2.487 4.682-4.243 7.974-5.121 4.243-1.171 8.34-0.658 12.071 1.536 3.731 2.048 6.145 5.121 7.389 9.145l-2.341 0.585c-1.024-3.365-3.073-5.853-6.145-7.682v0z" fill="#000000" />
</svg>
