<?xml version="1.0" encoding="utf-8"?>
<!-- Generated by IcoMoon.io -->
<!DOCTYPE svg PUBLIC "-//W3C//DTD SVG 1.1//EN" "http://www.w3.org/Graphics/SVG/1.1/DTD/svg11.dtd">
<svg version="1.1" xmlns="http://www.w3.org/2000/svg" xmlns:xlink="http://www.w3.org/1999/xlink" width="32" height="32" viewBox="0 0 32 32">
	<path d="M19.474 7.734h-6.828l-4.792 4.792v6.828l4.792 4.792h6.828l4.792-4.792v-6.828zM6.536 24.326v-4.432l-1.857-1.797-1.318-1.318h-2.516l3.833 3.893v5.451zM25.643 7.555v4.432l3.115 3.115h2.576l-3.893-3.893v-5.451zM22.589 25.463h-2.576l-1.797 1.857-1.378 1.318 0.060 2.576 3.893-3.893h5.451l-1.857-1.857zM9.531 6.417h2.576l3.115-3.115v-2.576l-3.833 3.833h-5.57l1.857 1.857zM4.68 13.784l1.857-1.797v-4.372l-1.857-1.797v5.391l-3.833 3.893h2.576zM28.758 16.779l-3.115 3.115v4.492l1.797 1.797v-5.51l3.893-3.893zM13.065 23.187l-4.253-4.253v-5.99l4.253-4.253h5.99l4.253 4.253v5.99l-4.253 4.253zM18.695 25.463l0.958-0.898h4.013l-1.378-1.378h-1.258l2.276-2.276v1.198l0.060 0.060 1.318 1.258v-3.893l2.755-2.755v-0.060h-1.917l-0.839 0.839v-3.234l0.898 0.898h1.977l-2.875-2.875v-3.893l-1.378 1.378v1.138l-2.276-2.276h1.318l1.258-1.318 0.060-0.060h-4.013l-2.815-2.815v1.977l0.839 0.839h-3.234l0.898-0.898v-1.917l-0.12 0.060-1.797 1.857-0.898 0.898h-3.953l1.378 1.378h1.198l-2.336 2.276v-1.258l-1.318-1.258-0.060-0.060v3.953l-0.898 0.958-1.857 1.797-0.060 0.12h1.917l0.898-0.898v3.234l-0.779-0.839h-1.977l2.755 2.815v4.013l1.378-1.378v-1.258l2.336 2.276h-1.198l-0.060 0.060-1.258 1.318h3.893l0.898 0.898 1.797 1.857 0.12 0.060v-1.917l-0.898-0.898h3.234l-0.839 0.839v1.977l0.060-0.060zM12.107 25.463h-4.432l-1.797 1.857h5.51l3.833 3.833v-2.576l-1.258-1.258zM20.013 6.417h4.432l1.797-1.857h-5.451l-3.893-3.893v2.576l1.318 1.318z" fill="#000000" />
</svg>
