<?xml version="1.0" encoding="utf-8"?>
<!-- Generator: Adobe Illustrator 16.0.0, SVG Export Plug-In . SVG Version: 6.00 Build 0)  -->
<!DOCTYPE svg PUBLIC "-//W3C//DTD SVG 1.1//EN" "http://www.w3.org/Graphics/SVG/1.1/DTD/svg11.dtd">
<svg version="1.1" id="Layer_1" xmlns="http://www.w3.org/2000/svg" xmlns:xlink="http://www.w3.org/1999/xlink" x="0px" y="0px"
	 width="271.613px" height="269.656px" viewBox="0 0 271.613 269.656" enable-background="new 0 0 271.613 269.656"
	 xml:space="preserve">
<path fill-rule="evenodd" clip-rule="evenodd" d="M62.512,196.747c-2.941,0.018-4.646-1.876-6.426-3.655
	c-16.613-16.609-33.11-33.339-49.902-49.765c-7.931-7.759-8.637-6.75,0.238-15.693c26.992-27.194,54.302-54.077,81.103-81.458
	c13.857-14.159,27.711-28.322,41.68-42.372c5.003-5.033,5.434-5.089,10.224-0.064c15.501,16.261,30.812,32.706,46.427,48.856
	c9.834,10.172,19.754,20.258,29.494,30.522c3.443,3.627,4.277,6.433,0.513,10.067c-1.304,1.259-2.277,2.862-3.396,4.312
	c-3.782,4.905-4.652,4.867-9.345,0.525c-21.621-20.005-43.332-39.914-64.901-59.975c-2.856-2.657-4.75-2.481-7.533,0.097
	C111.03,56.356,91.275,74.461,71.835,92.913c-14.963,14.204-30.429,27.877-45.595,41.868c-5.173,4.771-4.961,5.437-0.127,10.224
	c14.676,14.535,29.271,29.151,43.861,43.772c2.9,2.906,2.512,4.764-1.253,6.195C66.717,195.733,64.586,196.166,62.512,196.747z"/>
<path fill-rule="evenodd" clip-rule="evenodd" d="M91.229,178.423c-7.164-0.006-14.328,0.084-21.489-0.03
	c-7.558-0.12-9.704-3.532-6.009-10.26c6.327-11.519,13.052-22.818,19.6-34.216c12.187-21.216,24.359-42.44,36.553-63.653
	c2.901-5.048,5.782-10.11,8.809-15.083c3.226-5.303,7.754-5.346,11.275,0.055c2.994,4.594,5.618,9.434,8.346,14.199
	c17.107,29.895,34.191,59.803,51.301,89.698c1.982,3.465,4.249,6.779,6.058,10.329c2.362,4.638,0.738,8.379-4.275,8.635
	c-9.302,0.475-18.645,0.343-27.964,0.141c-3.229-0.07-3.435-2.008-1.427-4.339c3.632-4.216,7.678-7.027,13.761-6.55
	c5.12,0.403,5.762-0.904,3.188-5.399c-12.654-22.095-25.396-44.14-38.117-66.195c-4.574-7.93-9.189-15.837-13.766-23.767
	c-0.65-1.128-0.873-2.778-2.441-2.885c-1.879-0.129-2.279,1.717-2.988,2.946c-9.324,16.141-18.596,32.312-27.91,48.458
	c-8.063,13.979-16.16,27.936-24.248,41.899c-0.725,1.251-2.247,2.386-1.344,3.984c0.877,1.55,2.676,1.062,4.113,1.065
	c11.994,0.037,23.987-0.012,35.98,0.051c2.068,0.012,4.805-0.818,5.867,1.578c1.045,2.36-1.377,3.805-2.68,5.463
	c-2.359,3.006-5.406,4.043-9.205,3.937C105.225,178.29,98.225,178.429,91.229,178.423z"/>
<path fill-rule="evenodd" clip-rule="evenodd" d="M97.696,218.772c2.616-0.16,3.939,0.817,5.056,2.119
	c8.355,9.742,18.073,18.149,26.872,27.445c3.438,3.631,5.793,3.248,9.034-0.025c15.698-15.855,31.526-31.584,47.312-47.354
	c18.731-18.711,37.395-37.491,56.267-56.058c3.404-3.349,3.736-5.634,0.051-8.828c-3.767-3.264-7.07-7.054-10.694-10.489
	c-2.864-2.715-3.086-5.179-0.16-8.047c10.547-10.337,7.963-9.986,17.731-0.507c4.887,4.743,9.967,9.286,14.851,14.032
	c5.116,4.971,5.08,5.824,0.059,10.841c-27.563,27.54-55.092,55.114-82.723,82.587c-14.496,14.413-29.203,28.615-43.749,42.979
	c-2.37,2.341-4.188,3.282-7.019,0.387c-12.334-12.622-24.896-25.021-37.256-37.621c-1.844-1.879-5.752-3.463-4.254-6.566
	C90.706,220.286,95.025,219.862,97.696,218.772z"/>
<path d="M170.502,147.265c-0.987,0.722-9.662,7.314-10.668,8.039c-3.709,2.665-7.39,5.233-11.045,7.725
	c-2.479,1.692-4.938,3.333-7.382,4.944c-15.019,9.883-29.412,18.261-42.646,25.086c-1.922,0.996-3.828,1.965-5.704,2.891
	c-4.044,2.004-7.961,3.847-11.751,5.539c-2.06,0.927-4.083,1.8-6.06,2.632c-17.536,7.374-31.653,11.143-40.481,11.143
	c-3.2,0-5.357-0.704-6.818-1.436c0,0-21.749,1.554,3.409-41.231c-17.999,21.344-25.229,39.538-13.14,48.222
	c4,2.872,9.566,4.329,16.549,4.329c12.555,0,30.212-4.981,50.537-13.802c1.972-0.856,3.976-1.756,5.995-2.68
	c3.813-1.747,7.696-3.616,11.657-5.605c1.872-0.943,3.764-1.919,5.668-2.916c16.937-8.858,34.921-19.754,52.871-32.171
	c2.345-1.626,12.419-8.666,14.758-10.343L170.502,147.265z"/>
<path d="M191.197,157.63"/>
<path d="M229.904,111.285c1.664-1.454,3.291-2.894,4.88-4.329c3.31-2.996,6.456-5.961,9.402-8.877
	c1.555-1.537,3.038-3.062,4.476-4.577c21.623-22.678,30.303-42.007,15.784-51.232c-4.799-3.055-11.484-4.601-19.868-4.601
	c-15.075,0-25.973,3.074-50.381,12.443l8.693,7.408c21.057-7.833,31.081-9.349,41.688-9.349c3.841,0,6.604,0.511,8.188,1.524
	c6.332,4.022,0.969,17.344-16.29,36.06c-1.384,1.513-2.854,3.053-4.398,4.629c-2.821,2.887-5.909,5.877-9.251,8.973
	c-1.552,1.43-3.166,2.887-4.825,4.357c-4.982,4.418-20.817,21.06-26.804,25.801l6.306,12.5L229.904,111.285z"/>
<path d="M203.547,172.991"/>
</svg>
