<?xml version="1.0" encoding="utf-8"?>
<!-- Generated by IcoMoon.io -->
<!DOCTYPE svg PUBLIC "-//W3C//DTD SVG 1.1//EN" "http://www.w3.org/Graphics/SVG/1.1/DTD/svg11.dtd">
<svg version="1.1" xmlns="http://www.w3.org/2000/svg" xmlns:xlink="http://www.w3.org/1999/xlink" width="32" height="32" viewBox="0 0 32 32">
	<path d="M7.734 22.948c-0.359 0-0.539-0.18-0.719-0.419-1.917-1.857-3.773-3.714-5.63-5.57-0.898-0.898-1.018-0.779 0-1.797 3.055-3.055 6.109-6.109 9.164-9.164 1.557-1.617 3.115-3.234 4.672-4.792 0.599-0.539 0.599-0.599 1.138 0 1.797 1.857 3.474 3.654 5.271 5.51 1.078 1.138 2.216 2.276 3.294 3.414 0.419 0.419 0.479 0.719 0.060 1.138-0.12 0.18-0.24 0.359-0.359 0.479-0.419 0.599-0.539 0.599-1.078 0.060-2.396-2.216-4.852-4.492-7.307-6.708-0.299-0.299-0.539-0.299-0.839 0-2.216 2.036-4.432 4.073-6.648 6.169-1.677 1.617-3.414 3.115-5.151 4.732-0.539 0.539-0.539 0.599 0 1.138 1.677 1.617 3.294 3.294 4.971 4.911 0.299 0.359 0.24 0.539-0.18 0.719-0.18 0.060-0.419 0.12-0.659 0.18zM10.969 20.911c-0.839 0-1.617 0-2.456 0-0.839-0.060-1.078-0.419-0.659-1.198 0.719-1.258 1.497-2.576 2.216-3.833 1.378-2.396 2.755-4.792 4.133-7.188 0.299-0.539 0.659-1.138 0.958-1.677 0.359-0.599 0.898-0.599 1.258 0 0.359 0.539 0.659 1.078 0.958 1.617 1.917 3.354 3.893 6.708 5.81 10.063 0.18 0.419 0.479 0.779 0.659 1.198 0.299 0.539 0.12 0.958-0.479 0.958-1.018 0.060-2.096 0.060-3.174 0-0.359 0-0.359-0.18-0.12-0.479 0.419-0.479 0.839-0.779 1.557-0.719 0.539 0.060 0.659-0.12 0.359-0.599-1.438-2.516-2.875-4.971-4.313-7.487-0.539-0.898-1.018-1.797-1.557-2.695-0.060-0.12-0.12-0.299-0.299-0.299-0.18 0-0.24 0.18-0.299 0.359-1.078 1.797-2.096 3.594-3.174 5.451-0.898 1.557-1.797 3.115-2.695 4.732-0.12 0.12-0.299 0.24-0.18 0.419 0.12 0.18 0.299 0.12 0.479 0.12 1.318 0 2.695 0 4.073 0 0.18 0 0.539-0.060 0.659 0.18 0.12 0.299-0.18 0.419-0.299 0.599-0.299 0.359-0.659 0.479-1.078 0.479-0.779-0.060-1.557 0-2.336 0zM11.688 25.463c0.299-0.060 0.419 0.060 0.539 0.24 0.958 1.078 2.036 2.036 3.055 3.055 0.359 0.419 0.659 0.359 1.018 0 1.797-1.797 3.534-3.534 5.331-5.331 2.096-2.096 4.193-4.193 6.349-6.289 0.359-0.419 0.419-0.659 0-1.018-0.419-0.359-0.779-0.779-1.198-1.198-0.299-0.299-0.359-0.539 0-0.898 1.138-1.138 0.898-1.138 1.977-0.060 0.539 0.539 1.138 1.078 1.677 1.617 0.599 0.539 0.599 0.659 0 1.198-3.115 3.115-6.229 6.229-9.344 9.284-1.617 1.677-3.294 3.234-4.911 4.852-0.24 0.299-0.479 0.419-0.779 0.060-1.378-1.438-2.815-2.815-4.193-4.253-0.24-0.18-0.659-0.359-0.479-0.719 0.18-0.359 0.659-0.419 0.958-0.539zM19.893 17.378c-0.12 0.060-1.078 0.839-1.198 0.898-0.419 0.299-0.839 0.599-1.258 0.898-0.299 0.18-0.539 0.359-0.839 0.539-1.677 1.138-3.294 2.036-4.792 2.815-0.24 0.12-0.419 0.24-0.659 0.359-0.419 0.24-0.898 0.419-1.318 0.599-0.24 0.12-0.479 0.24-0.659 0.299-1.977 0.839-3.594 1.258-4.612 1.258-0.359 0-0.599-0.060-0.719-0.18 0 0-2.456 0.18 0.359-4.612-2.036 2.396-2.815 4.432-1.497 5.451 0.479 0.299 1.078 0.479 1.857 0.479 1.438 0 3.414-0.599 5.75-1.557 0.18-0.12 0.419-0.24 0.659-0.299 0.419-0.24 0.839-0.419 1.318-0.659 0.18-0.12 0.419-0.18 0.599-0.299 1.917-1.018 3.953-2.276 5.99-3.654 0.24-0.18 1.378-0.958 1.677-1.138zM26.602 13.305c0.18-0.12 0.359-0.299 0.539-0.479 0.359-0.299 0.719-0.659 1.078-0.958 0.18-0.18 0.299-0.359 0.479-0.539 2.456-2.576 3.414-4.732 1.797-5.81-0.539-0.299-1.318-0.479-2.276-0.479-1.677 0-2.935 0.359-5.63 1.378l0.958 0.839c2.396-0.898 3.474-1.018 4.672-1.018 0.479 0 0.779 0.060 0.958 0.12 0.719 0.479 0.12 1.977-1.857 4.073-0.12 0.18-0.299 0.359-0.479 0.539-0.299 0.299-0.659 0.659-1.078 1.018-0.12 0.18-0.359 0.299-0.539 0.479-0.539 0.479-2.336 2.396-2.995 2.935l0.719 1.378z" fill="#000000" />
</svg>
