<?xml version="1.0" encoding="utf-8"?>
<!-- Generator: Adobe Illustrator 18.1.1, SVG Export Plug-In . SVG Version: 6.00 Build 0)  -->
<svg version="1.1" id="Layer_1" xmlns="http://www.w3.org/2000/svg" xmlns:xlink="http://www.w3.org/1999/xlink" x="0px" y="0px"
	 viewBox="0 0 37.1 46.3" enable-background="new 0 0 37.1 46.3" xml:space="preserve">
<path fill="#010101" d="M28.3,46.3H9.2v-4.4h7.5v-3.5c-4.8-0.4-8.7-2.2-11.6-5.2C-0.3,27.5,0,19.2,0,18.3v-2.9h4.4l0,3.1
	c0,0.1-0.4,7.2,3.9,11.7c2.4,2.6,6,3.9,10.6,3.9c4.6,0,8.1-1.3,10.4-3.9c4.1-4.5,3.4-11.6,3.4-11.7l0-0.1l0.1-3l4.4,0v2.8
	c0,1.3,0.5,9.3-4.6,14.9c-2.8,3.1-6.6,4.8-11.4,5.2v3.5h7.2V46.3z"/>
<path fill="#010101" d="M18.4,0C13.2,0,8.9,3.1,8.1,7.2h13.7v3.6H8v2.8h13.9v3.6H8v2.7h13.9v3.6H8.1c0.9,4,5.2,7,10.3,7
	c5.8,0,10.5-3.8,10.5-8.5V8.5C28.9,3.8,24.2,0,18.4,0"/>
</svg>
