<?xml version="1.0" encoding="utf-8"?>
<!-- Generated by IcoMoon.io -->
<!DOCTYPE svg PUBLIC "-//W3C//DTD SVG 1.1//EN" "http://www.w3.org/Graphics/SVG/1.1/DTD/svg11.dtd">
<svg version="1.1" xmlns="http://www.w3.org/2000/svg" xmlns:xlink="http://www.w3.org/1999/xlink" width="35" height="32" viewBox="0 0 35 32">
	<path d="M32.391 3.824c1.027 0 1.834 0.807 1.834 1.834v2.421c0 0.88-0.587 1.54-1.394 1.76 0 0.147 0.073 0.293 0.073 0.44l-0.88 18.118c-0.073 0.954-0.88 1.687-1.834 1.687h-19.218c-1.027 0-1.834-0.733-1.907-1.687l-0.073-3.154h-5.501v-1.394h5.428l-0.147-1.467h-7.995v-1.394h7.922l-0.147-4.254h-5.061v-1.394h4.988l-0.22-5.061c0-0.147 0-0.293 0-0.44-0.807-0.22-1.394-0.88-1.394-1.76v-2.421c0-1.027 0.807-1.834 1.834-1.834h3.521v-0.147c0-0.954 0.807-1.76 1.834-1.76h12.983c1.027 0 1.834 0.807 1.834 1.76v0.147h3.521zM30.19 28.251l0.88-18.118h-20.979l0.22 5.208h10.783v1.394h-10.709l0.22 4.254h11.956v1.394h-11.883v1.467h10.416v1.394h-10.343l0.22 3.007 19.218 0zM32.391 8.079v-2.421h-5.355v-1.981h-12.983v1.981h-5.355v2.421h23.693z" fill="#000000" />
</svg>
