<?xml version="1.0" encoding="utf-8"?>
<!-- Generator: Adobe Illustrator 16.0.0, SVG Export Plug-In . SVG Version: 6.00 Build 0)  -->
<!DOCTYPE svg PUBLIC "-//W3C//DTD SVG 1.1//EN" "http://www.w3.org/Graphics/SVG/1.1/DTD/svg11.dtd">
<svg version="1.1" id="Layer_1" xmlns="http://www.w3.org/2000/svg" xmlns:xlink="http://www.w3.org/1999/xlink" x="0px" y="0px"
	 width="609.552px" height="514.08px" viewBox="0 0 609.552 514.08" enable-background="new 0 0 609.552 514.08"
	 xml:space="preserve">
<g transform="matrix(1 0 0 -1 0 800)">
	<path fill="#010101" d="M576.504,765.116c18.36,0,33.048-14.688,33.048-33.66V686.78c0-15.912-11.016-28.152-25.704-31.824
		c0.612-2.448,1.225-4.896,1.225-7.344L569.16,317.744c-1.225-17.748-15.912-31.824-33.66-31.824H185.436
		c-17.748,0-32.436,14.076-33.66,31.824l-2.448,57.528H50.184v25.092h97.92l-1.836,26.315H0v25.093h145.044l-3.672,78.336H50.184
		V555.2h89.964l-4.284,92.412c0,2.448,0.612,4.896,1.224,7.344c-14.688,3.672-26.316,15.912-26.316,31.824v44.676
		c0,18.972,15.3,33.66,33.66,33.66h64.26v1.836c0,18.36,15.3,33.048,33.66,33.048h236.232c18.36,0,33.66-14.688,33.66-33.048v-1.836
		H576.504z M535.5,319.58l15.912,329.868H169.524l4.284-94.248H370.26v-25.092H175.032l3.672-78.336h218.483V426.68H179.928
		l1.224-26.315H370.26v-25.092H182.376l3.06-55.692H535.5z M576.504,686.78v44.676h-97.92v35.496H242.352v-35.496h-97.92V686.78
		H576.504z"/>
</g>
</svg>
