<?xml version="1.0" encoding="utf-8"?>
<!-- Generator: Adobe Illustrator 16.0.0, SVG Export Plug-In . SVG Version: 6.00 Build 0)  -->
<!DOCTYPE svg PUBLIC "-//W3C//DTD SVG 1.1//EN" "http://www.w3.org/Graphics/SVG/1.1/DTD/svg11.dtd">
<svg version="1.1" id="Layer_1" xmlns="http://www.w3.org/2000/svg" xmlns:xlink="http://www.w3.org/1999/xlink" x="0px" y="0px"
	 width="1150px" height="1227px" viewBox="0 0 1150 1227" enable-background="new 0 0 1150 1227" xml:space="preserve">
<g transform="matrix(1 0 0 -1 0 800)">
	<path fill="#020202" d="M1062.35,585.017c32.935,0,59.281-26.348,59.281-60.381v-80.143c0-28.544-19.76-50.501-46.107-57.088
		c1.097-4.392,2.197-8.782,2.197-13.174l-28.545-591.737c-2.2-31.838-28.544-57.088-60.381-57.088H360.829
		c-31.837,0-58.185,25.25-60.382,57.088l-4.39,103.196H118.207v45.014h175.654l-3.294,47.204H28.184v45.015h260.188l-6.586,140.523
		H118.207v45.011H279.59l-7.686,165.773c0,4.393,1.099,8.783,2.195,13.175c-26.349,6.587-47.207,28.544-47.207,57.087v80.144
		c0,34.032,27.445,60.381,60.381,60.381h115.272v3.294c0,32.935,27.447,59.283,60.382,59.283h423.768
		c32.935,0,60.382-26.349,60.382-59.283v-3.294H1062.35L1062.35,585.017z M988.795-214.213l28.544,591.738H332.285l7.688-169.068
		h352.405v-45.011H342.167l6.587-140.523h391.928v-45.012H350.949l2.196-47.206h339.232v-45.011H355.34l5.488-99.903h627.967
		V-214.213z M1062.35,444.493v80.143H886.696v63.675H462.928v-63.675H287.274v-80.143H1062.35z"/>
</g>
</svg>
